<?xml version="1.0" encoding="utf-8"?>
<!-- Generator: Adobe Illustrator 19.0.0, SVG Export Plug-In . SVG Version: 6.00 Build 0)  -->
<svg version="1.1" id="Layer_1" xmlns="http://www.w3.org/2000/svg" xmlns:xlink="http://www.w3.org/1999/xlink" x="0px" y="0px"
	 viewBox="0 0 511.5 167.3" style="enable-background:new 0 0 511.5 167.3;" xml:space="preserve">
<style type="text/css">
	.st0{fill:#1C262E;}
	.st1{clip-path:url(#SVGID_2_);fill:url(#SVGID_3_);}
	.st2{clip-path:url(#SVGID_2_);fill:url(#SVGID_4_);}
	.st3{clip-path:url(#SVGID_2_);fill:url(#SVGID_5_);}
	.st4{clip-path:url(#SVGID_2_);fill:url(#SVGID_6_);}
	.st5{fill:#F9F9F9;}
	.st6{fill:#F9F9FA;}
	.st7{fill:url(#SVGID_7_);}
</style>
<g>
	<g>
		<path class="st0" d="M511.5,22.6v122.1c0,12.5-10.1,22.6-22.6,22.6H22.6C10.1,167.3,0,157.2,0,144.7V22.6C0,10.1,10.1,0,22.6,0
			h466.3C501.4,0,511.5,10.1,511.5,22.6z"/>
		<g id="PLAY_1_">
			<defs>
				<path id="SVGID_1_" d="M110.8,73.7L87.8,60.3c0,0-42-24.3-44.5-25.7s-4.9-0.6-4.9,2.4c0,5,0,51.8,0,51.8s0,50.6,0,52.9
					c0,2.2,1.8,3.2,3.9,2c2.1-1.2,45.5-26.3,45.5-26.3l23.1-13.3c0,0,19.6-11.3,22.2-12.8c2.6-1.5,2.4-3.6,0.2-4.7
					C131,85.4,110.8,73.7,110.8,73.7z"/>
			</defs>
			<clipPath id="SVGID_2_">
				<use xlink:href="#SVGID_1_"  style="overflow:visible;"/>
			</clipPath>
			<linearGradient id="SVGID_3_" gradientUnits="userSpaceOnUse" x1="66.9327" y1="32.2152" x2="66.9327" y2="145.5179">
				<stop  offset="0" style="stop-color:#257CB0"/>
				<stop  offset="0.2863" style="stop-color:#4A93B5"/>
				<stop  offset="0.767" style="stop-color:#78BCBB"/>
				<stop  offset="1" style="stop-color:#89CFBD"/>
			</linearGradient>
			<polygon class="st1" points="38.4,32.2 38.4,88.9 38.4,145.5 95.5,88.9 			"/>
			<linearGradient id="SVGID_4_" gradientUnits="userSpaceOnUse" x1="38.3659" y1="60.3353" x2="110.8454" y2="60.3353">
				<stop  offset="0" style="stop-color:#52C1AD"/>
				<stop  offset="1" style="stop-color:#DEE89A"/>
			</linearGradient>
			<polygon class="st2" points="110.8,73.7 87.8,60.3 38.4,31.8 38.4,32.2 95.5,88.9 			"/>
			<linearGradient id="SVGID_5_" gradientUnits="userSpaceOnUse" x1="74.6051" y1="88.8675" x2="74.6051" y2="145.93">
				<stop  offset="0" style="stop-color:#EC413D"/>
				<stop  offset="0.1668" style="stop-color:#DA4452"/>
				<stop  offset="0.5748" style="stop-color:#B0487A"/>
				<stop  offset="0.8619" style="stop-color:#954A92"/>
				<stop  offset="1" style="stop-color:#8A4A9D"/>
			</linearGradient>
			<polygon class="st3" points="38.4,145.5 38.4,145.9 87.8,117.4 110.8,104.1 95.5,88.9 			"/>
			<linearGradient id="SVGID_6_" gradientUnits="userSpaceOnUse" x1="116.3504" y1="73.6507" x2="116.3504" y2="104.0823">
				<stop  offset="0" style="stop-color:#F58879"/>
				<stop  offset="0.1194" style="stop-color:#F69079"/>
				<stop  offset="0.7128" style="stop-color:#FCB877"/>
				<stop  offset="1" style="stop-color:#FEC874"/>
			</linearGradient>
			<polygon class="st4" points="110.8,73.7 95.5,88.9 110.8,104.1 137.2,88.9 			"/>
		</g>
		<g>
			<path class="st5" d="M408.2,81.3c-2.4-3-5.8-4.5-10.1-4.5c-2.2,0-4.2,0.4-5.9,1.2c-1.7,0.8-3.2,2.1-4.5,3.9h-0.2l-0.7-4.5h-4.1
				v47.8h5v-13.6c0-1.7-0.1-3.5-0.4-5.5h0.4c1.2,1.6,2.7,2.9,4.5,3.6c1.8,0.8,3.7,1.2,5.9,1.2c4.3,0,7.6-1.5,10.1-4.5
				c2.4-3,3.6-7.2,3.6-12.6C411.7,88.5,410.5,84.3,408.2,81.3z M404.1,103.4c-1.6,2.3-3.8,3.5-6.7,3.5c-3.4,0-5.9-1-7.4-3
				c-1.5-2-2.3-5.3-2.3-9.9v-1.1c0-4.1,0.8-7,2.3-8.9c1.5-1.9,3.9-2.8,7.3-2.8c2.9,0,5.2,1.1,6.8,3.3c1.6,2.2,2.4,5.4,2.4,9.5
				C406.6,97.9,405.8,101.1,404.1,103.4z"/>
			<path class="st5" d="M418.3,63.6v46.8h5V63.6H418.3z"/>
			<path class="st5" d="M452.8,79.5c-1.9-1.8-4.8-2.6-8.7-2.6c-2,0-3.9,0.3-5.8,0.8c-1.9,0.5-3.7,1.2-5.3,2.1l1.5,3.8
				c3.5-1.7,6.6-2.5,9.3-2.5c2.4,0,4.2,0.6,5.3,1.8c1.1,1.2,1.7,3.1,1.7,5.7v2l-5.6,0.2c-10.6,0.3-16,3.8-16,10.5
				c0,3.1,0.9,5.5,2.8,7.2c1.9,1.7,4.4,2.5,7.7,2.5c2.4,0,4.5-0.4,6.1-1.1c1.6-0.7,3.3-2.1,4.9-4.2h0.2l1,4.7h3.7V87.9
				C455.7,84.1,454.7,81.3,452.8,79.5z M450.7,97.2c0,3.1-0.9,5.5-2.7,7.2c-1.8,1.7-4.2,2.6-7.3,2.6c-2,0-3.5-0.5-4.6-1.4
				c-1.1-0.9-1.6-2.3-1.6-4.1c0-2.3,0.9-4,2.6-5.1c1.8-1.1,4.6-1.7,8.6-1.8l5-0.2V97.2z"/>
			<path class="st5" d="M484.1,77.5c-4.6,12.8-7.3,20.4-8.2,22.8c-0.8,2.5-1.4,4.2-1.6,5.3h-0.2c-0.4-1.9-1.4-5-3-9.3l-7.2-18.8
				h-5.4l13.3,33.1l-1.8,4.7c-1.5,3.8-3.9,5.8-7.3,5.8c-1.4,0-2.6-0.1-3.7-0.4v4c1.5,0.3,3,0.5,4.5,0.5c2.7,0,5-0.8,6.9-2.3
				c1.9-1.6,3.5-4.2,4.9-7.9l14.2-37.5H484.1z"/>
		</g>
		<g>
			<path class="st5" d="M307.1,107.9l-2.5-1.9c-0.8-0.6-1.8-1.5-1.8-3c0-1.5,1-2.5,1.9-3.4c2.9-2.3,5.8-4.7,5.8-9.8
				c0-5.2-3.3-8-4.9-9.3h4.3l4.4-2.5h-14.2c-3.7,0-8.4,0.6-12.3,3.8c-3,2.5-4.4,6.1-4.4,9.2c0,5.4,4.1,10.8,11.4,10.8
				c0.7,0,1.4-0.1,2.2-0.1c-0.3,0.8-0.7,1.5-0.7,2.7c0,2.1,1.1,3.4,2.1,4.7c-1,0.1-2.3,0.2-3.7,0.3c-3,0.4-6.5,1.1-9.4,2.9
				c-4.1,2.4-5.3,5.9-5.3,8.4c0,5.1,4.8,9.9,14.8,9.9c11.5,0,17.8-6.2,18.1-12.5c0-0.2,0-0.4,0-0.5
				C312.8,112.8,310.1,110.4,307.1,107.9z M298,100c-5.9,0-8.6-7.6-8.6-12.3c0-1.8,0.4-3.7,1.5-5.1c1.1-1.4,3-2.3,4.8-2.3
				c5.7,0,8.7,7.7,8.7,12.7c0,1.2-0.1,3.4-1.7,5C301.6,99.1,299.8,100,298,100z M308.2,120.2c0,4.3-3.5,7.5-10.1,7.5
				c-7.4,0-12.1-3.5-12.1-8.4c0-4.9,4.4-6.5,5.9-7.1c2.1-0.7,4.7-1,6.2-1.1c0.5,0,0.9,0,1,0c0.7,0,1,0,1.6,0.1
				c1.8,1.3,3.2,2.3,4.3,3.3C307.2,116.3,308.2,117.9,308.2,120.2z"/>
			<path class="st5" d="M263.3,77.1c-7.6,0-13.6,4.1-16.3,9.8c-1,2.1-1.6,4.5-1.6,7c0,7.7,5.8,16.2,16.8,16.2
				c7.4,0,12.7-3.8,15.4-8.7c1.4-2.5,2.1-5.3,2.1-8.1C279.7,85,273.4,77.1,263.3,77.1z M270.8,104.4c-1.6,2.2-4.3,3.5-7,3.5
				c-8.3,0-11.7-11.2-11.7-18c0-0.2,0-0.5,0-0.7c0.1-2.7,0.7-5.5,3.1-7.7c1.7-1.5,3.9-2.3,6.2-2.3c8.5,0,11.4,11.6,11.4,17.6
				c0,0.8,0,1.5-0.1,2.3C272.6,101,272,102.9,270.8,104.4z"/>
			<path class="st5" d="M238.7,82.9c-2.8-3.4-6.9-5.7-12.2-5.8c-0.2,0-0.3,0-0.5,0c-10.5,0-17.8,7.7-17.8,16.7
				c0,7.7,5.8,16.2,16.8,16.2c11.2,0,17.5-8.6,17.5-16.7C242.4,89.5,241.1,85.8,238.7,82.9z M233.5,104.4c-1.6,2.2-4.3,3.5-7,3.5
				c-8.3,0-11.7-11.2-11.7-18c0-3,0.5-6,3.2-8.4c1.7-1.5,3.9-2.3,6.2-2.3c8.5,0,11.4,11.6,11.4,17.6
				C235.6,99.5,235.2,102.3,233.5,104.4z"/>
			<path class="st5" d="M190.8,94.3l-5.5,3l10.4-0.6v11.1c-2.1,0.8-4.4,1.7-8.8,1.7c-15.1,0-24.5-12.3-24.5-25.3
				c0-12.1,8.2-20.4,19.2-20.4c8.2,0,12.4,4.2,14.8,6.5l-1.7,2.8l2.4-0.6l5.7-5.5c-1.5-1-3.9-2.8-9.1-4.3c-3.3-0.9-6.9-1.5-10.6-1.5
				c-17.7,0-28,12.5-28,25.9c0,11,7.3,25,26.4,25c3.8,0,7.4-0.5,11.4-1.2l9.9-2.3v-8.4c0-0.7,0.1-2.7,0.1-3.3
				c0.1-0.5,0.2-0.7,0.7-1.1l1.8-1.7H190.8z"/>
			<path class="st5" d="M327.5,107c-2.3-0.2-2.8-0.6-2.8-3.3v-0.8V64.5c0-0.1,0-0.3,0-0.4c0.3-2.4,1-2.8,3.1-4.1H318l-5.2,2.5h5.3v0
				l0,0v40.4v2.3c0,1.4-0.3,1.6-1.9,3.7h12.2l2.6-1.5C329.8,107.2,328.7,107.1,327.5,107z"/>
			<path class="st5" d="M350.9,106.5c-6.5,0-12.4-5.1-14.2-13.8l5.3-0.4l16.1-6.5c-0.5-1.6-1.4-4.5-4.8-6.8
				c-2.1-1.3-4.6-1.9-7.1-1.9c-7.1,0-15.7,5.2-15.7,15.9c0,5.2,2.1,11.1,7,14.5c3.5,2.5,7,2.7,9.1,2.7c2.1,0,4.4-0.3,6.7-1.3
				c0.8-0.3,1.5-0.8,2.3-1.2l3.6-3.4C356.9,105.3,354.4,106.5,350.9,106.5z M336.5,88.9c0-7.4,5.2-9.5,7.9-9.5
				c3.7,0,6.8,3.2,6.8,5.9c0,1-0.7,1.4-2,1.9l-12.5,5.4C336.6,91.3,336.5,90.1,336.5,88.9z"/>
			<g>
				<path class="st5" d="M360.2,77.1v0.5h1.5v4.5h0.6v-4.5h1.5v-0.5H360.2z"/>
				<path class="st5" d="M368.1,77.1l-1.3,4h0l-1.3-4h-0.9v5h0.5v-4.6h0l1.4,4.6h0.4l1.4-4.6h0v4.6h0.5v-5H368.1z"/>
			</g>
		</g>
		<g>
			<path class="st6" d="M166.7,41c-1.5-4.3-2.3-6.6-2.3-7h-4.1c0,0.4-0.8,2.8-2.5,7.1c-0.4,1.1-0.8,2-1.1,2.8
				c-1,2.5-1.4,3.9-1.4,4.1h3.2c0-0.4,0.2-1.4,0.7-2.9c0.1-0.3,0.2-0.7,0.3-1.1h5c0.7,2.2,1,3.5,1,4h3.4
				C169,47.6,168.2,45.3,166.7,41z M160.1,41.9c1.3-3.7,1.9-5.7,1.9-6h0.2c0,0.3,0.6,2.3,1.8,6H160.1z"/>
			<path class="st6" d="M182.8,34h-2.7c0.1,2,0.1,4,0.1,6c0,1.3,0.1,2.7,0.3,4.3h-0.2c-0.3-1-1.4-2.9-3.3-5.7
				c-1.8-2.6-2.7-4.2-2.7-4.5h-3.2c0.1,1.8,0.2,4.1,0.2,6.7c0,2.7,0,5.1-0.2,7.3h2.6c-0.1-2.5-0.2-4.7-0.2-6.5
				c0-1.3-0.1-2.7-0.3-4.3h0.2c0.3,1.1,1.5,3.1,3.5,6.1c2,2.8,2.9,4.3,2.9,4.6h2.7c-0.1-2.2-0.2-4.6-0.2-7.3
				C182.7,38,182.7,35.8,182.8,34z"/>
			<path class="st6" d="M196.6,35.9c-1.2-1.3-3-1.9-5.6-1.9c-0.2,0-0.6,0-1.2,0c-0.6,0-1.1,0-1.4,0h-1.9c0.1,1.8,0.1,4.1,0.1,6.7
				c0,2.7-0.1,5.2-0.1,7.3c1.9,0.1,3.3,0.1,4.4,0.1c2.3,0,4.2-0.8,5.5-2.3c1.3-1.5,2-3.3,2-5.3C198.4,38.7,197.8,37.2,196.6,35.9z
				 M194.3,44.5c-0.7,1-1.9,1.4-3.4,1.4c-0.5,0-0.9,0-1.4-0.1c-0.1-1.7-0.1-3.4-0.1-5.1c0-1.6,0-3-0.1-4.5c0.5-0.1,1-0.1,1.3-0.1
				c1.6,0,2.9,0.5,3.7,1.4s1.2,2.1,1.2,3.5C195.4,42.4,195.1,43.5,194.3,44.5z"/>
			<path class="st6" d="M210.5,42.9c-0.5-0.9-1.2-1.5-1.9-1.7v-0.2c1.9-0.7,2.8-2,2.8-3.7c0-2.3-1.6-3.4-4.9-3.4c-0.6,0-1.2,0-1.9,0
				c-0.7,0-1.1,0-1.4,0h-1.9c0.1,1.8,0.1,4.1,0.1,6.7c0,2.7,0,5.2-0.1,7.3h3c-0.1-1.9-0.1-3.7-0.1-5.6c0.4,0,0.8,0,1.2,0
				c1,0,1.7,0.3,2.2,0.9c0.4,0.6,1.1,2.2,1.9,4.7h3.2C211.8,45.5,211.1,43.8,210.5,42.9z M205.3,40.5c-0.3,0-0.6,0-1,0
				c0-1.8,0-3.2-0.1-4.3c0.5-0.1,1.1-0.1,1.8-0.1c1.8,0,2.8,0.7,2.8,2.1C208.7,39.7,207.6,40.5,205.3,40.5z"/>
			<path class="st6" d="M226.2,35.7c-1.3-1.3-2.9-2-4.8-2c-2,0-3.6,0.7-5,2.2c-1.3,1.4-2,3.3-2,5.5c0,2,0.6,3.7,1.9,5.1
				c1.3,1.3,2.9,2,4.8,2c2,0,3.6-0.7,5-2.2c1.3-1.5,2-3.3,2-5.5C228.1,38.7,227.5,37,226.2,35.7z M224.1,44.6
				c-0.7,0.9-1.6,1.4-2.7,1.4c-1.1,0-2.1-0.5-2.8-1.4c-0.8-0.9-1.2-2.1-1.2-3.6c0-1.4,0.4-2.6,1.1-3.6c0.7-0.9,1.6-1.4,2.7-1.4
				c1.1,0,2.1,0.5,2.8,1.4c0.8,0.9,1.2,2.1,1.2,3.6C225.2,42.5,224.8,43.7,224.1,44.6z"/>
			<path class="st6" d="M234.2,34h-3c0.1,1.8,0.1,4.1,0.1,6.7c0,2.7,0,5.1-0.1,7.3h3c-0.1-2.2-0.1-4.6-0.1-7.3
				C234.1,38.1,234.1,35.8,234.2,34z"/>
			<path class="st6" d="M248,35.9c-1.2-1.3-3-1.9-5.6-1.9c-0.2,0-0.6,0-1.2,0c-0.6,0-1.1,0-1.4,0H238c0.1,1.8,0.1,4.1,0.1,6.7
				c0,2.7,0,5.2-0.1,7.3c1.9,0.1,3.3,0.1,4.4,0.1c2.4,0,4.2-0.8,5.5-2.3c1.3-1.5,2-3.3,2-5.3C249.8,38.7,249.2,37.2,248,35.9z
				 M245.7,44.5c-0.7,1-1.9,1.4-3.4,1.4c-0.5,0-0.9,0-1.4-0.1c-0.1-1.7-0.1-3.4-0.1-5.1c0-1.6,0-3-0.1-4.5c0.5-0.1,1-0.1,1.3-0.1
				c1.6,0,2.9,0.5,3.7,1.4c0.8,0.9,1.2,2.1,1.2,3.5C246.8,42.4,246.5,43.5,245.7,44.5z"/>
			<path class="st6" d="M268.2,41c-1.5-4.3-2.3-6.6-2.3-7h-4.1c0,0.4-0.8,2.8-2.5,7.1c-1.7,4.3-2.5,6.6-2.5,6.9h3.2
				c0-0.5,0.3-1.8,1-4h5c0.7,2.2,1,3.5,1,4h3.4C270.4,47.6,269.7,45.3,268.2,41z M261.6,41.9c1.3-3.7,1.9-5.7,1.9-6h0.2
				c0,0.3,0.6,2.3,1.8,6H261.6z"/>
			<path class="st6" d="M281.5,34.9c-0.9-0.6-2.1-0.9-3.4-0.9c-0.6,0-1.2,0-2,0c-0.8,0-1.3,0-1.5,0h-1.9c0.1,1.9,0.1,4.1,0.1,6.7
				c0,2.8,0,5.3-0.1,7.3h3c-0.1-2.2-0.1-4-0.1-5.3c0.1,0,0.4,0,0.7,0c1.8,0,3.4-0.4,4.7-1.2c1.3-0.8,1.9-2.1,1.9-3.8
				C283,36.4,282.5,35.5,281.5,34.9z M276.3,40.8c-0.2,0-0.4,0-0.6,0c0-1.7,0-3.3-0.1-4.6c0.6-0.1,1.1-0.2,1.6-0.2c2,0,3,0.8,3,2.3
				C280.2,39.9,278.9,40.8,276.3,40.8z"/>
			<path class="st6" d="M294.4,34.9c-0.9-0.6-2.1-0.9-3.5-0.9c-0.5,0-1.2,0-2,0c-0.8,0-1.3,0-1.5,0h-1.9c0.1,1.9,0.1,4.1,0.1,6.7
				c0,2.8,0,5.3-0.1,7.3h3c-0.1-2.2-0.1-4-0.1-5.3c0.1,0,0.4,0,0.7,0c1.8,0,3.4-0.4,4.7-1.2c1.3-0.8,1.9-2.1,1.9-3.8
				C295.8,36.4,295.4,35.5,294.4,34.9z M289.1,40.8c-0.2,0-0.4,0-0.6,0c0-1.7,0-3.3-0.1-4.6C289,36,289.5,36,290,36
				c2,0,3.1,0.8,3.1,2.3C293.1,39.9,291.8,40.8,289.1,40.8z"/>
			<path class="st6" d="M315,35.7c-1.3-1.3-2.9-2-4.8-2c-2,0-3.7,0.7-5,2.2c-1.3,1.4-2,3.3-2,5.5c0,2,0.6,3.7,1.9,5.1
				c1.3,1.3,2.9,2,4.8,2c2,0,3.6-0.7,5-2.2c1.3-1.5,2-3.3,2-5.5C316.9,38.7,316.3,37,315,35.7z M312.8,44.6
				c-0.7,0.9-1.6,1.4-2.7,1.4c-1.1,0-2.1-0.5-2.8-1.4c-0.8-0.9-1.2-2.1-1.2-3.6c0-1.4,0.4-2.6,1.1-3.6s1.6-1.4,2.7-1.4
				c1.1,0,2.1,0.5,2.8,1.4c0.8,0.9,1.1,2.1,1.1,3.6C313.9,42.5,313.6,43.7,312.8,44.6z"/>
			<path class="st6" d="M331.5,34h-2.7c0.1,2,0.2,4,0.2,6c0,1.3,0.1,2.7,0.3,4.3H329c-0.3-1-1.4-2.9-3.2-5.7
				c-1.8-2.6-2.7-4.2-2.7-4.5h-3.2c0.1,1.8,0.2,4.1,0.2,6.7c0,2.7-0.1,5.1-0.2,7.3h2.6c-0.1-2.5-0.1-4.7-0.1-6.5
				c0-1.3-0.1-2.7-0.3-4.3h0.2c0.3,1.1,1.5,3.1,3.5,6.1c2,2.8,3,4.3,3,4.6h2.6c-0.1-2.2-0.1-4.6-0.1-7.3
				C331.3,38,331.4,35.8,331.5,34z"/>
		</g>
	</g>
	<linearGradient id="SVGID_7_" gradientUnits="userSpaceOnUse" x1="306.5497" y1="-32.5018" x2="275.6911" y2="142.5057">
		<stop  offset="0" style="stop-color:#FFFFFF;stop-opacity:0.3"/>
		<stop  offset="1" style="stop-color:#000000;stop-opacity:0"/>
	</linearGradient>
	<path class="st7" d="M511.5,22.6v122.1c0,12.5-10.1,22.6-22.6,22.6h-72.5l-103.6-49.2l-7.8-3.7l-6.9-3.3l-3.5-1.6l-17-8.1l-4.8-2.3
		l-20.6-9.8l-5.1-2.4l-8.3-4l-12.2-5.8l-67.3-32l-2.5-1.2L64.3,0h424.6C501.4,0,511.5,10.1,511.5,22.6z"/>
</g>
</svg>
