<svg xmlns="http://www.w3.org/2000/svg" xmlns:xlink="http://www.w3.org/1999/xlink" version="1.1" id="Layer_1" x="0px" y="0px" viewBox="0 0 543 628.2" style="enable-background:new 0 0 543 628.2;" xml:space="preserve">
<style type="text/css">
	.st0{fill:#83B2B9;}
	.st1{fill:#A2DBE3;}
	.st2{fill:#56757A;}
	.st3{fill:#65C294;}
	.st4{fill:#ECAE20;}
	.st5{fill:#B98A16;}
	.st6{fill:#4B9672;}
	.st7{fill:#96CBD3;}
	.st8{fill:#172916;}
	.st9{fill:#CCE9E6;}
	.st10{fill:#C7E8ED;}
	.st11{fill:#89A9AF;}
	.st12{fill:#A4D7BA;}
	.st13{fill:#0A1E0A;}
	.st14{fill:#F9C68D;}
	.st15{fill:#F7B56E;}
	.st16{fill:#A55D26;}
	.st17{fill:#B37643;}
	.st18{fill:#F29120;}
	.st19{fill:#B16940;}
	.st20{fill:#EF7C22;}
	.st21{fill:none;}
	.st22{fill:#A24D24;}
	.st23{fill:#F6AB72;}
	.st24{fill:#F29348;}
	.st25{fill:#D9EFF2;}
	.st26{fill:#FFFFFF;}
	.st27{fill:#FFCB0B;}
	.st28{fill:#FFDD7F;}
	.st29{fill:#FFF1D1;}
	.st30{fill:#F08721;}
	.st31{fill:#F49C4A;}
	.st32{fill:#FACA9C;}
	.st33{fill:#B06428;}
</style>
<path id="XMLID_96_" class="st0" d="M349.9,454c-3.1,3.8-2.2,6.5-6.7,8.7c2.4,4.1,3.6,15.6,6.6,27.9c12-6,44.5-20.5,55.1-7.5  c11.3,13.7,20,57.1,8.5,69.9c-1,1.2-3.3,3.7-6.2,3.7c-0.3,0-0.6,0-1-0.1c0,0-0.1,0-0.1,0c-3.4-0.8-4.5-4.4-5.8-9  c-1.7-5.9-3.9-13.8-10.8-19.4c-0.3,0.5-0.6,0.9-1,1.4c-6,8.7-14.7,19.5-24,26.6c-9.9,7.5-26,12.6-45.6,12.6c-5.4,0-11-0.4-16.9-1.2  c-11.8-1.7-24.3-5.2-37.3-11c-30.5-13.7-45.7-53.3-52-76.1c-2-7-3.1-12.3-3.6-14.9"/>
<path id="XMLID_58_" class="st0" d="M200.1,416.7c0,0,0.1,0,0.1,0c0-0.1-0.1-0.2-0.1-0.3c-7.2-18-11.6-47.5-13.4-61.1  c-0.1-0.5-0.1-1.1-0.2-1.5c0,0-0.1,0-0.1,0l0.1-0.2l2.1-5.7l0.4-1l0,0l2.8-7.7l29.9-81.1l3.3-8.8l2.6-7.1c0,0,0,0,0,0l3-8.2l2.1-5.8  l2-5.6l52,1.9l13.5,8.7l5.9,3.8l8.1,5.2l0,0l11,7l16.6,41.6l21.3,47l4.2,9.2l3.4,7.4c-3.1-0.4-6.5-0.7-10-0.7c-0.1,0-0.2,0-0.3,0  c-1.7,13-6.4,45.2-14.1,63.8c1.8,0.6,3.5,1.5,4.9,2.7"/>
<path id="XMLID_217_" class="st1" d="M408.3,553.2c-0.3,0.9-0.6,1.7-1,2.4c0,0-0.1,0-0.1,0c-3.4-0.8-4.5-4.4-5.8-9  c-1.7-5.9-3.9-13.8-10.8-19.4c-0.3,0.5-0.6,0.9-1,1.4c-0.6-2.8-1-4.7-1-4.7l8.2-8.6C396.9,515.3,415,535.3,408.3,553.2z"/>
<path id="XMLID_97_" class="st1" d="M382.4,485.9c0,0-17.1,8.1-21.4,18.7c-4.3,10.7-10,19.2-11,17.6c-1-1.6-0.9-23.3-0.9-23.3  l11.8-10.6L382.4,485.9z"/>
<path id="XMLID_209_" class="st1" d="M302.2,567.5c-11.8-1.7-24.3-5.2-37.3-11c-30.5-13.7-45.7-53.3-52-76.1c1-1.6,1.7-2.6,1.7-2.6  s31.6-4.5,38.5,7.5s21,40,39.4,58C299.3,549.9,301.8,558.8,302.2,567.5z"/>
<path id="XMLID_216_" class="st1" d="M265.2,425.3c-0.6-0.4-26.1-15.1-36.8-15.6c-10.9-0.5-11.9,13-27.6,7c-0.2-0.1-0.4-0.2-0.6-0.3  c-7.2-18-11.6-47.5-13.4-61.1l3.9-8.3l37.8-9.3c0,0,12.6,55.9,21.3,61.4C258.4,404.6,265,424.6,265.2,425.3z"/>
<path id="XMLID_30_" class="st1" d="M245.5,253.2c0,0-11.1,38.2,1.5,41.2s21.9-4.2,21.9-4.2l4.8,2.4c0,0,0.1,9.8,9.7,9.3  c9.5-0.5,26.8-3.7,29.5-5.2s-6.4-36.5-11.3-38.6c-4.9-2.1-23.3,5.5-30.6,5S251.6,262.3,245.5,253.2z"/>
<polygon id="XMLID_47_" class="st2" points="230.2,416.7 264.7,437.3 240.9,437.3 "/>
<path id="XMLID_53_" class="st2" d="M324.7,417c0,0,10.6,2.7,14.3-0.3c3.7-3-2.1,13.3-4.4,14s-17.1,3.6-17.1,3.6v-5.5L324.7,417z"/>
<path id="XMLID_276_" class="st3" d="M220.5,307.8c-2,19-1.3,42.8-0.6,55.7c0,0.1,0,0.2,0,0.3c-7.4-6.7-19.8-16.2-31.5-17  c-0.2,0-0.4,0-0.6,0c0.2,0,0.4,0,0.6,0c0.5-2.6,1.1-5.3,1.7-8c1.8-7.7,4.3-15.4,7-21.1c5.1-11,12.4-34,12.8-45.5  c0.4-11.5,6.1-16.5,6.1-16.5l10.3,4.3l7.1,3C228.2,275.6,222.1,292.7,220.5,307.8z"/>
<path id="XMLID_269_" class="st4" d="M164.1,350.1c5.3-1.5,12.8-3.2,21.5-3.3C176.8,347,169.3,348.6,164.1,350.1L164.1,350.1z"/>
<path id="XMLID_243_" class="st4" d="M240.9,247.4c-1.6,3.2-4.3,8.8-7.1,15.7c-5.3,12.6-11.4,29.7-12.9,44.7  c-2,19.2-1.3,43.1-0.6,56c-0.1-0.1-0.2-0.2-0.3-0.3c-7.5-6.8-19.8-16.1-31.5-16.7c0.5-2.6,1.1-5.3,1.7-8c9.8,2,21.5,5.5,21.5,5.5  s-2.6-40.6,6.6-64.1c2.9-7.3,5.7-14.2,8.2-20.2l7.1,3c2.2-5.2,4.2-9.7,5.8-12.9c-2.4-1.3-4.6-2.7-6.8-4.2c0.6-1.3,1.1-2.5,1.5-3.5  C236.2,244.2,238.5,245.8,240.9,247.4z"/>
<path id="XMLID_191_" class="st5" d="M190.1,338.8c-0.7,2.7-1.2,5.4-1.7,8c-0.2,0-0.4,0-0.6,0c-0.2,0-0.4,0-0.5,0h-0.2  c-0.5,0-1,0-1.6,0c-0.6,0-1.1,0-1.7,0c-7.9,0.3-14.8,1.8-19.8,3.3l4.1-9.5c6.5-2,13.3-3.5,17.5-2.7  C187.1,338.1,188.6,338.4,190.1,338.8z"/>
<path id="XMLID_194_" class="st6" d="M232.4,245.9c-1.6,3.7-3.7,8.5-6.1,14.1l-10.3-4.3c0,0-5.7,5-6.1,16.5  c-0.5,11.5-7.7,34.5-12.8,45.5c-2.7,5.7-5.1,13.5-7,21.1c-1.6-0.3-3.1-0.6-4.5-0.9c-4.2-0.7-11,0.8-17.5,2.7l-4.1,9.5  c-0.1,0-0.2,0.1-0.3,0.1l8.1-18.5c10.3-9.1,18.8-22.3,24.2-37.6c3.6-10.1,5.5-20.3,5.8-30c9.4-6.6,16.1-16.9,18.4-28.8  C223.9,239.2,228,242.8,232.4,245.9z"/>
<path id="XMLID_196_" class="st5" d="M239.3,250.1c-1.5,3.2-3.6,7.7-5.8,12.9l-7.1-3c2.3-5.6,4.4-10.4,6.1-14.1  C234.6,247.4,236.9,248.8,239.3,250.1z"/>
<path id="XMLID_207_" class="st6" d="M383.9,350.2c-5.6-1.7-13.8-3.4-23.3-3.4c-12.1,0-25.2,10-32.9,17c0.7-12.9,1.5-36.8-0.6-56  c-2.5-23.2-15.6-51.3-20.1-60.4c2.4-1.5,4.7-3.2,6.9-5v0c3.3-2.6,6.3-5.5,9.1-8.7c2.4,11.5,9.1,21.5,18.2,28  c0.3,9.7,2.2,19.9,5.8,30c5.8,16.5,15.3,30.6,26.8,39.8c0.9,0.7,1.8,1.4,2.8,2.1l3.1,7.1L383.9,350.2z"/>
<g id="XMLID_176_">
	<path id="XMLID_186_" class="st1" d="M484.7,186.2c-0.9,5.8-3.2,11.2-3.6,12.2c-2.7-0.5-5.3-1-7.8-1.5c-1.2-0.3-2.5-0.5-3.7-0.8   c3.2-6.8,7.3-12.8,9.1-13.1c4.2-0.7,5.4,0,5.8,0.4C484.8,183.8,484.9,184.8,484.7,186.2z"/>
	<path id="XMLID_184_" class="st1" d="M531,182.5C531,182.5,531,182.5,531,182.5c-3.4,2.1-5.2,5.4-6.8,8.1c-1.7,3.1-2.9,5-5.1,5.8   c-6.4,2.4-12.7,3.5-18.7,3.7c7.5-4.1,16.3-9.9,19.6-15.3c3-5,3.9-9.3,4.5-12.2c0.2-0.8,0.4-1.9,0.5-2.4c1.6-0.1,2.2,0,2.8,0.8   c0.9,1.1,2.2,4,2.6,11.6L531,182.5z"/>
	<path id="XMLID_309_" class="st1" d="M532.7,205.2c-3.6,6.8-10.2,11.5-20.4,14.3c-3.2,0.9-9.2,1.5-15.6,2.2   c-9.5,1-20.3,2.2-26.8,4.6c-3.7,1.4-7.3,5.3-10.3,10.2c-2.2,3.4-4.1,7.2-5.8,10.9c-0.2,5.3-1,10.9-2.3,16.8   c-1.7,7.6-4.3,15.5-7.7,23.4c-3.5,8.1-7.7,15.6-12.2,22.2c-3.8,5.5-7.9,10.4-12.1,14.3c-1.9,2.9-4.2,5.4-6.9,7.3   c-1.7,1.2-3.5,2.2-5.5,2.9c-6.5,2.3-13.9,1.4-21.4-2.4c-2.7-1.4-5.4-3.1-8-5.3c-10.5-8.4-19.4-21.6-24.8-37   c-2.9-8.2-4.6-16.3-5.2-24c-0.2-2.5-0.3-4.9-0.2-7.3c-2.2-1.3-4.2-2.8-6.1-4.5c-8-7.2-13.1-17.8-13.1-29.5   c0-21.6,17.1-39.2,38.1-39.2c10.8,0,20.6,4.7,27.5,12.1c0,0,0,0,0,0c6.5,7,10.5,16.6,10.5,27c0,0.9,0,1.9-0.1,2.8   c-0.2,2.6-0.6,5.2-1.3,7.6c1.1,1.2,2.2,2.4,3.2,3.7c-4.7,6.3-9.2,13.8-13.1,22c-0.7,1.5-1.4,2.9-2,4.4c-3.7,8.5-6.5,17.1-8.2,25.3   l5.4,5.4c0.1-0.4,0.1-0.7,0.2-1.1c0,0,0-0.1,0.1-0.3c1.6-8.6,4.5-17.7,8.4-26.7c2.4-5.5,5-10.5,7.7-15.1c1.8-3.1,3.7-5.9,5.5-8.6   c1.3-1.8,2.7-3.6,4-5.2c1.1-1.4,2.3-2.7,3.4-3.9l3.9-3.9c2.8-3.8,7.3-9.4,12.2-14.9c4.7-5.3,9.9-10.4,14.7-13.7   c4.3-3,10.6-2.3,18.6-0.8c1.6,0.3,3.3,0.7,5,1c5,1,10.4,2.2,16.2,2.8l2,0.2h0c9.5,0.9,19.8,0.4,30.9-3.8c4.2-1.6,6.2-5.1,7.9-8.3   c1.8-3.2,3.3-5.9,6.9-7.1c0.5-0.2,0.8-0.2,0.9-0.2c0.1,0,0.1,0,0.1,0c0.1,0.1,0.3,0.4,0.3,0.6C538.2,189.3,536.5,197.9,532.7,205.2   z"/>
	<path id="XMLID_262_" class="st7" d="M394.2,266.6c0.6,15.3-11.1,23.6-11.1,23.6L394.2,266.6z"/>
	<path id="XMLID_265_" class="st7" d="M364.6,255.5c2.4-1.5,21.9-13.7,29.4-26c4.9-8,2.6-22.3,0-32.2c6.5,7,10.5,16.6,10.5,27   c0,0.9,0,1.9-0.1,2.8c-0.2,2.6-0.6,5.2-1.3,7.6c1.1,1.2,2.2,2.4,3.2,3.7c-4.7,6.3-9.2,13.8-13.1,22   C389,242.4,367.2,254,364.6,255.5z"/>
	<g id="XMLID_159_">
		<g id="XMLID_526_">
			<g id="XMLID_544_">
				<g id="XMLID_545_">
					<path id="XMLID_546_" class="st8" d="M366.5,178.8c-7.7,0-14.9,2-21.2,5.5c-0.1,0.1-0.2,0.1-0.3,0.2c-2.5,1.4-4.9,3.1-7.1,5       c-1.8,1.5-3.4,3.2-5,5c-0.9,1.1-1.8,2.2-2.5,3.3c-2.7,3.9-4.9,8.3-6.3,13c-0.5,1.6-0.9,3.2-1.2,4.8c-0.1,0.3-0.1,0.6-0.2,0.9       c-0.4,2.5-0.6,5.1-0.6,7.7c0,0.5,0,1,0,1.5c0.1,2.7,0.4,5.4,0.9,8c2.4,11.5,9.1,21.5,18.2,28c2,1.4,4.2,2.7,6.5,3.8       c-0.2-2.5-0.3-4.9-0.2-7.3c-2.2-1.3-4.2-2.8-6.1-4.5c-0.5-0.4-0.9-0.8-1.3-1.3c-0.4-0.4-0.8-0.8-1.2-1.2c0-0.1-0.1-0.1-0.2-0.2       c-0.4-0.4-0.8-0.9-1.2-1.3c-0.2-0.3-0.4-0.5-0.6-0.8c-0.2-0.2-0.3-0.4-0.5-0.6c0-0.1-0.1-0.1-0.2-0.2c-0.3-0.5-0.7-0.9-1-1.4       c-0.2-0.3-0.4-0.5-0.5-0.8s-0.3-0.5-0.5-0.8c-0.3-0.5-0.6-0.9-0.8-1.4c-0.1-0.1-0.1-0.3-0.2-0.4c-0.3-0.5-0.5-1-0.7-1.4       c-0.2-0.5-0.5-1-0.7-1.4c-0.1-0.3-0.2-0.5-0.3-0.8c-0.1-0.3-0.2-0.5-0.3-0.8c-0.1-0.2-0.2-0.4-0.2-0.6       c-0.1-0.3-0.2-0.6-0.3-0.9c-0.1-0.3-0.2-0.6-0.3-0.9c0,0,0,0,0,0c0,0,0,0,0-0.1c-0.2-0.6-0.3-1.1-0.5-1.7       c-0.1-0.2-0.1-0.5-0.2-0.7c-0.1-0.2-0.1-0.5-0.2-0.7c-0.1-0.5-0.2-1-0.3-1.4c-0.1-0.3-0.1-0.6-0.2-1c-0.1-0.6-0.2-1.3-0.3-2       c-0.1-0.6-0.1-1.3-0.2-2v0c0-0.3,0-0.6-0.1-0.9v-0.1c0-0.1,0-0.1,0-0.2v0c0-0.1,0-0.2,0-0.3c0-0.4,0-0.9,0-1.3       c0-0.4,0-0.8,0-1.2c0-0.3,0-0.6,0-0.9c0-0.3,0-0.6,0.1-0.9v-0.1c0-0.3,0-0.6,0.1-0.9c0-0.5,0.1-1,0.2-1.5c0,0,0,0,0,0       c0,0,0,0,0-0.1c0,0,0-0.1,0-0.1c0.1-0.4,0.1-0.9,0.2-1.3c0-0.3,0.1-0.6,0.2-0.9c0.1-0.3,0.1-0.7,0.2-1c0-0.2,0.1-0.4,0.2-0.6       c0.1-0.5,0.3-1.1,0.4-1.6c0.1-0.3,0.2-0.6,0.3-0.9c0.1-0.2,0.2-0.5,0.2-0.7c0.1-0.1,0.1-0.3,0.2-0.4c0-0.1,0.1-0.3,0.1-0.4       c0-0.1,0.1-0.3,0.1-0.4c0.1-0.2,0.2-0.4,0.3-0.6c0.1-0.2,0.2-0.5,0.3-0.7c0.1-0.3,0.3-0.6,0.4-1c0.1-0.3,0.3-0.7,0.5-1       c0.1-0.3,0.3-0.7,0.5-1c0.2-0.3,0.3-0.6,0.5-1c0.3-0.6,0.7-1.2,1.1-1.8c0.4-0.7,0.9-1.4,1.3-2c0.1-0.2,0.3-0.4,0.5-0.6       c0.2-0.3,0.4-0.6,0.6-0.8c0.4-0.5,0.9-1.1,1.3-1.6c0.1-0.1,0.2-0.2,0.3-0.3c0.5-0.5,1-1.1,1.5-1.6c0.6-0.6,1.3-1.2,1.9-1.8       c0.3-0.2,0.5-0.5,0.8-0.7c0.1-0.1,0.2-0.2,0.3-0.2c0.1-0.1,0.2-0.2,0.4-0.3c0.2-0.2,0.4-0.3,0.6-0.5c0.4-0.3,0.8-0.6,1.2-0.9       c0.4-0.3,0.8-0.5,1.2-0.8c0.2-0.1,0.3-0.2,0.5-0.3c0.8-0.5,1.6-1,2.5-1.4c0.5-0.3,1-0.5,1.4-0.7c0.2-0.1,0.5-0.2,0.7-0.3       c0.2-0.1,0.5-0.2,0.7-0.3s0.5-0.2,0.7-0.3c0.3-0.1,0.5-0.2,0.8-0.3c0.5-0.2,1-0.4,1.5-0.5c0,0,0,0,0,0c0.5-0.2,1-0.3,1.5-0.5       c0.5-0.1,1-0.3,1.6-0.4c0.5-0.1,1-0.2,1.5-0.3c0,0,0.1,0,0.1,0c0.3-0.1,0.7-0.1,1.1-0.2c0,0,0.1,0,0.1,0c0.3,0,0.7-0.1,1-0.1h0       c0.3,0,0.7-0.1,1.1-0.1c0.5,0,1.1-0.1,1.7-0.1c0.6,0,1.1,0,1.7,0c1,0,2,0,3,0.1c0.3,0,0.7,0.1,1,0.1c1.3,0.1,2.6,0.3,3.9,0.6       c0.6,0.1,1.3,0.3,1.9,0.5c0.3,0.1,0.6,0.2,0.9,0.3c0.3,0.1,0.6,0.2,0.9,0.3c1.4,0.5,2.7,1,4,1.6c0.6,0.3,1.1,0.5,1.6,0.8       c0.2,0.1,0.4,0.2,0.6,0.3c0.3,0.1,0.5,0.3,0.8,0.4c0.2,0.1,0.4,0.2,0.5,0.3c0.2,0.1,0.4,0.2,0.6,0.4c0.3,0.2,0.5,0.3,0.8,0.5       c0.3,0.2,0.5,0.3,0.8,0.5c0.3,0.2,0.5,0.3,0.8,0.5c0.3,0.2,0.5,0.4,0.7,0.6c0.3,0.2,0.5,0.4,0.7,0.6c0.3,0.2,0.5,0.4,0.7,0.6       c0.2,0.2,0.5,0.4,0.7,0.6c0.3,0.3,0.5,0.5,0.8,0.8c0.2,0.2,0.4,0.3,0.5,0.5c0.4,0.4,0.8,0.9,1.3,1.3c0.4,0.5,0.8,0.9,1.3,1.4       c0.3,0.4,0.6,0.8,0.9,1.2c0.1,0.1,0.2,0.2,0.2,0.3c0.3,0.4,0.6,0.8,0.9,1.2c0.1,0.1,0.2,0.2,0.2,0.3c0.3,0.4,0.6,0.9,0.9,1.4       c0,0.1,0.1,0.1,0.1,0.2c0.3,0.4,0.5,0.9,0.8,1.3c0.3,0.5,0.6,1.1,0.9,1.6c0.3,0.5,0.5,1.1,0.8,1.7c0.3,0.5,0.5,1.1,0.7,1.7       c0.1,0.3,0.2,0.6,0.3,0.9c0.1,0.3,0.2,0.6,0.3,0.8c0.1,0.3,0.2,0.6,0.3,0.9c0.1,0.3,0.2,0.6,0.3,0.9l0.2,0.6       c0.1,0.3,0.2,0.6,0.2,0.9c0.2,0.6,0.3,1.3,0.4,2c0.1,0.3,0.1,0.6,0.2,1c0.1,0.3,0.1,0.6,0.2,1c0.1,0.3,0.1,0.6,0.1,1       c0,0.1,0,0.1,0,0.2c0.1,0.6,0.1,1.2,0.2,1.8c0.1,1,0.1,2,0.1,3c0,0.9,0,1.9-0.1,2.8c-0.2,2.6-0.6,5.2-1.3,7.6       c0.6,0.6,1.1,1.2,1.7,1.8c0.5,0.6,1,1.2,1.6,1.9c-1.4,1.9-2.8,3.8-4.1,5.9c-3.2,4.9-6.2,10.3-9,16.2c3.8-3,7.1-6.6,9.8-10.6       c1.9-2.9,3.6-6,4.8-9.4c0.8-2.1,1.4-4.2,1.9-6.4c0.1-0.4,0.2-0.7,0.2-1.1c0.4-2.4,0.7-4.8,0.8-7.3c0-0.5,0-1,0-1.4       C410.9,199.2,391,178.8,366.5,178.8z"/>
				</g>
			</g>
			<g id="XMLID_539_">
				<g id="XMLID_540_">
					<path id="XMLID_541_" class="st8" d="M412.8,236.3c-0.8-1-1.5-2-2.3-2.9c-0.1-0.1-0.2-0.3-0.3-0.4c-0.7-0.8-1.4-1.6-2.1-2.4       c-1.1-1.2-2.3-2.4-3.5-3.5c-0.2,2.6-0.6,5.2-1.3,7.6c0.6,0.6,1.1,1.2,1.7,1.8c0.5,0.6,1,1.2,1.6,1.9c0.5,0.7,1,1.3,1.6,2       c0.6,0.8,1.2,1.6,1.7,2.4l0,0c0.2,0.3,0.4,0.6,0.6,0.9c1.3-1.8,2.7-3.6,4-5.2C413.8,237.7,413.3,237,412.8,236.3z M419.6,324.1       c-3.2,4.8-7.3,8.4-12.4,10.2c-6.5,2.3-13.9,1.4-21.4-2.4c-0.3-0.2-0.7-0.3-1-0.5c-0.3-0.2-0.7-0.4-1-0.6       c-0.3-0.2-0.5-0.3-0.8-0.5c-0.1,0-0.2-0.1-0.3-0.2c-0.5-0.3-1-0.6-1.4-0.9c-0.3-0.2-0.6-0.4-0.9-0.6c-0.3-0.2-0.6-0.4-0.9-0.6       c-0.6-0.4-1.2-0.9-1.7-1.3c-10.5-8.4-19.4-21.6-24.8-37c-2.9-8.2-4.6-16.3-5.2-24c-0.2-2.5-0.3-4.9-0.2-7.3       c-2.2-1.3-4.2-2.8-6.1-4.5c-0.2,2.6-0.2,5.2-0.2,7.9c0.3,9.7,2.2,19.9,5.8,30c5.8,16.5,15.3,30.6,26.8,39.8       c0.9,0.7,1.8,1.4,2.8,2.1c3.3,2.4,6.7,4.3,10.1,5.6c4.4,1.8,8.8,2.7,13,2.7c3.3,0,6.5-0.5,9.6-1.6c6-2.1,11.1-6.2,15-11.9       c3.2-4.7,5.6-10.5,7.1-17.2c0.1-0.4,0.2-0.9,0.3-1.3C427.8,315.3,423.8,320.2,419.6,324.1z"/>
				</g>
			</g>
			<g id="XMLID_533_">
				<g id="XMLID_534_">
					<path id="XMLID_535_" class="st8" d="M459.9,239.2c-0.1-0.9-0.2-1.8-0.3-2.7c-0.4,0.7-0.9,1.4-1.3,2.1c-0.5,0.8-1,1.7-1.4,2.5       c-0.6,1.2-1.3,2.4-1.9,3.7c-0.4,0.9-0.8,1.8-1.2,2.6c-0.2,5.3-1,10.9-2.3,16.8c-1,4.6-2.4,9.3-4,14c-0.3,0.9-0.7,1.9-1,2.8       c-0.8,2.2-1.7,4.4-2.7,6.6c0,0.1-0.1,0.2-0.2,0.3c-3.5,8-7.6,15.4-12,21.8c-3.8,5.5-7.9,10.4-12.1,14.3       c-3.2,4.8-7.3,8.4-12.4,10.2c-6.5,2.3-13.9,1.4-21.4-2.4c2.1,3.3,4.8,5.8,8,7.2c2.1,0.9,4.4,1.4,6.7,1.4       c6.9,0,14.7-3.8,22.6-11.1c0.4-0.3,0.7-0.7,1.1-1c9.7-9.2,18.6-22.7,25.3-38.2c0.4-1,0.8-1.9,1.2-2.9       c4.3-10.6,7.2-21.2,8.5-31.1c0,0,0,0,0,0c0.4-3.1,0.7-6.2,0.8-9.1v-0.5c0-0.8,0-1.7,0-2.5C460.1,242.4,460,240.8,459.9,239.2z        M431.8,216.5c-2,0.8-4.1,1.9-6.2,3.2c-1.4,0.9-2.7,1.8-4.1,2.9h0c-0.5,0.4-1,0.8-1.6,1.3c-3.2,2.7-6.3,5.8-9.4,9.5       c-0.2,0.2-0.4,0.4-0.6,0.7c-1.2,1.4-2.3,2.9-3.4,4.4c-1.4,1.9-2.8,3.8-4.1,5.9c-3.2,4.9-6.2,10.3-9,16.2       c-0.7,1.5-1.4,2.9-2,4.4c-3.7,8.5-6.5,17.1-8.2,25.3l5.4,5.4c1.6-9,4.5-18.6,8.7-28.2c2.2-5.2,4.7-10,7.2-14.3       c1.6-2.8,3.3-5.4,5-7.9c0.3-0.5,0.7-1,1-1.5c1.3-1.8,2.7-3.6,4-5.2c1.1-1.4,2.3-2.7,3.4-3.9c1.3-1.4,2.6-2.7,3.9-3.9       c1.6-2.1,3.7-4.8,6.1-7.8c1.5-1.8,3-3.7,4.7-5.5c0.5-0.5,1-1.1,1.5-1.6C433.2,216,432.5,216.2,431.8,216.5z"/>
				</g>
			</g>
			<g id="XMLID_531_">
				<path id="XMLID_532_" class="st8" d="M537.6,207.8c-4.3,8.2-12.3,13.9-23.8,17.1c-3.6,1-9.6,1.7-16.4,2.4      c-9.2,1-19.6,2.1-25.5,4.3c-3.8,1.4-8.1,8-11.7,15.5c-2.9,6-5.5,12.6-7.1,17.7l-1.5-0.5c1.3-5.9,2.1-11.5,2.3-16.8      c1.7-3.7,3.6-7.5,5.8-10.9c3.1-4.8,6.6-8.8,10.3-10.2c6.6-2.4,17.3-3.6,26.8-4.6c6.4-0.7,12.4-1.3,15.6-2.2      c10.1-2.8,16.8-7.5,20.4-14.3c4.2-8.1,5.8-17.8,4.3-19.1c0,0,0,0-0.1,0c-0.1,0-0.4,0-0.9,0.2c-3.6,1.1-5.1,3.9-6.9,7.1      c-1.8,3.1-3.7,6.7-7.9,8.3c-11,4.2-21.4,4.7-30.9,3.8h0c-0.7,0-1.3-0.1-2-0.2c-5.8-0.7-11.2-1.8-16.2-2.8      c-10.3-2.1-18.4-3.8-23.6-0.3c-4.8,3.3-10,8.4-14.7,13.7c-5,5.5-9.4,11.2-12.2,14.9l-3.9,3.9l-3.8-2.7c0.3-0.4,2.5-3.6,6-8      c6.3-8.1,16.5-20.2,25.5-26.4c5-3.5,11.4-3.5,18.5-2.4c1.8,0.3,3.7,0.6,5.6,1c1.2,0.3,2.4,0.5,3.7,0.8c2.5,0.5,5.1,1.1,7.8,1.5      c1.8,0.3,3.7,0.6,5.6,0.9h0c0.9,0.1,1.7,0.2,2.6,0.3h0c3.6,0.4,7.3,0.6,11.2,0.4c6-0.2,12.2-1.3,18.7-3.7      c2.2-0.8,3.4-2.7,5.1-5.8c1.5-2.7,3.3-6,6.7-8.1c0,0,0,0,0,0c1-0.6,2.1-1.1,3.3-1.5c0.6-0.2,1.1-0.3,1.6-0.4      c2.9-0.4,4.5,1,5.3,1.9C545.7,187.8,540.7,201.8,537.6,207.8z"/>
			</g>
			<g id="XMLID_529_">
				<path id="XMLID_530_" class="st8" d="M490.2,187c-0.8,5.1-2.5,9.9-3.5,12.3h0c-0.4,0.9-0.6,1.5-0.7,1.6l-5-2.3      c0,0,0-0.1,0.1-0.2c0.4-1,2.8-6.5,3.6-12.2c0.2-1.4,0.1-2.4-0.3-2.8c-0.3-0.3-1.5-1-5.8-0.4c-1.7,0.3-5.9,6.3-9.1,13.1      c-0.2,0.4-0.4,0.9-0.6,1.3l-5-2.2c0,0,0-0.1,0-0.1c2.3-5,8-16.6,13.8-17.5c1.2-0.2,2.5-0.3,3.8-0.3c2.4,0,4.9,0.5,6.7,2.3      C490.1,181.2,490.7,183.8,490.2,187z"/>
			</g>
			<g id="XMLID_527_">
				<path id="XMLID_528_" class="st8" d="M536.1,182.2l-5.1,0.3l-0.4,0c0-0.3,0-0.5,0-0.8c-0.1-1.8-0.3-3.3-0.5-4.5      c0-0.2-0.1-0.4-0.1-0.5c0-0.2,0-0.3-0.1-0.5c0-0.3-0.1-0.6-0.2-0.9c0-0.2-0.1-0.5-0.1-0.7c-0.2-0.8-0.4-1.5-0.7-2.1      c-0.1-0.2-0.1-0.3-0.2-0.4c-0.1-0.1-0.1-0.3-0.2-0.4c0,0,0,0,0,0c-0.1-0.1-0.1-0.2-0.2-0.3c-0.1-0.2-0.2-0.4-0.4-0.5      c-0.6-0.7-1.2-0.8-2.8-0.8c-0.2,0.5-0.4,1.5-0.5,2.4c-0.3,1.3-0.6,2.9-1.1,4.7c-0.2,0.7-0.5,1.5-0.8,2.2      c-0.1,0.3-0.2,0.5-0.3,0.8c-0.3,0.8-0.7,1.6-1.1,2.4c-0.1,0.2-0.2,0.4-0.3,0.6c-0.1,0.2-0.2,0.3-0.3,0.5      c-0.2,0.3-0.4,0.6-0.5,0.9c-3.3,5.5-12.1,11.2-19.6,15.3c-4.3,2.4-8.1,4.2-10.2,5.2h0c-0.7,0.3-0.5-1.6-0.8-1.5l-1.2,1.3      l-1.8-4.1c0.8-0.4,1.8-0.8,2.9-1.3h0c8-3.8,22.4-11.7,26.1-17.8c1-1.7,1.7-3.2,2.2-4.7c0.8-2.2,1.2-4.1,1.5-5.7      c0.6-2.9,1.3-6.5,5.3-6.8c5.7-0.3,9.6,1.8,11.1,12.5c0.2,1,0.3,2.2,0.4,3.4C536,181.1,536.1,181.7,536.1,182.2z"/>
			</g>
		</g>
	</g>
</g>
<path id="XMLID_248_" class="st9" d="M410.9,261.7l-22.2,32.8c0,0,0-0.1,0.1-0.3c1.6-8.6,4.5-17.7,8.4-26.7c2.4-5.5,5-10.5,7.7-15.1  L410.9,261.7z"/>
<g id="XMLID_179_">
	<path id="XMLID_187_" class="st1" d="M73.5,198.5c-1.2,0.2-2.4,0.5-3.7,0.8c-2.5,0.5-5.1,1.1-7.8,1.5c-0.5-1-2.8-6.5-3.7-12.2   c-0.2-1.4-0.1-2.4,0.3-2.8c0.3-0.3,1.6-1,5.8-0.4C66.1,185.7,70.3,191.8,73.5,198.5z"/>
	<path id="XMLID_183_" class="st1" d="M42.5,202.5c-6-0.2-12.2-1.3-18.7-3.7c-2.2-0.8-3.4-2.8-5.1-5.8c-1.5-2.7-3.3-6-6.8-8.1   c0,0,0,0,0,0l0.5,0c0.4-7.6,1.6-10.5,2.6-11.6c0.6-0.7,1.2-0.8,2.8-0.7c0.2,0.5,0.4,1.5,0.5,2.4c0.6,2.8,1.4,7.2,4.5,12.2   C26.2,192.6,35,198.3,42.5,202.5z"/>
	<g id="XMLID_174_">
		<path id="XMLID_268_" class="st1" d="M214.6,226.7c0,11.8-5.1,22.3-13.1,29.5c-1.9,1.7-3.9,3.2-6.1,4.5c0,2.4,0,4.8-0.2,7.3    c-0.6,7.7-2.3,15.9-5.2,24c-5.4,15.4-14.3,28.5-24.8,37c-2.7,2.1-5.3,3.9-8,5.3c-7.5,3.9-14.9,4.7-21.4,2.4    c-4.1-1.5-7.7-4.1-10.5-7.6v0c-0.7-0.8-1.3-1.6-1.8-2.5c-4.2-3.9-8.3-8.8-12.1-14.3c-4.5-6.6-8.7-14.1-12.2-22.2    c-3.4-7.9-6-15.8-7.7-23.4c-1.3-5.9-2.1-11.5-2.3-16.8c-1.7-3.7-3.6-7.5-5.8-10.9c-2.4-3.7-5-7-7.9-8.8c-0.8-0.6-1.6-1-2.5-1.3    c-6.6-2.4-17.3-3.6-26.8-4.6c-6.4-0.7-12.4-1.3-15.6-2.2c-4-1.1-7.5-2.5-10.5-4.3c-4.5-2.6-7.8-5.9-9.9-10.1    c-4.2-8.1-5.8-17.8-4.3-19.1c0,0,0,0,0.1,0c0.1,0,0.4,0,0.9,0.2c3.6,1.1,5.1,3.9,6.9,7.1c1.8,3.1,3.7,6.7,7.9,8.3    c11,4.2,21.4,4.7,30.9,3.8c0,0,0,0,0,0h0l2-0.2c1.9-0.2,3.8-0.5,5.7-0.8c3.7-0.6,7.2-1.3,10.5-2c10.3-2.1,18.4-3.8,23.6-0.3    c1.7,1.2,3.4,2.5,5.1,4.1c3.2,2.8,6.5,6.2,9.6,9.6c4.9,5.5,9.4,11.2,12.2,14.9l3.9,3.9c1.1,1.2,2.3,2.5,3.4,3.9    c1.3,1.6,2.7,3.4,4,5.3c4.7,6.6,9.2,14.5,13.2,23.7c4.1,9.5,7.1,19.1,8.7,28.1l-10.2,10.2l13.4-13.4l2.2-2.2    c-1.4-6.3-3.3-12.9-5.9-19.5c-0.8-1.9-1.5-3.9-2.4-5.8c-0.6-1.5-1.3-3-2-4.4c-3.9-8.3-8.3-15.7-13.1-22c1-1.3,2.1-2.5,3.2-3.7    c-0.7-2.5-1.1-5-1.3-7.6c-0.1-0.9-0.1-1.9-0.1-2.8c0-20.9,16-38.1,36.1-39.1c0.7,0,1.3-0.1,2-0.1    C197.6,187.5,214.6,205.1,214.6,226.7z"/>
		<path id="XMLID_229_" class="st7" d="M214.6,226.7c0,11.8-5.1,22.3-13.1,29.5c-1.9,1.7-3.9,3.2-6.1,4.5c0,2.4,0,4.8-0.2,7.3    c-0.6,7.7-2.3,15.9-5.2,24c-5.4,15.4-14.3,28.5-24.8,37c-2.7,2.1-5.3,3.9-8,5.3c-7.5,3.9-14.9,4.7-21.4,2.4    c-4.1-1.5-7.7-4.1-10.5-7.6v0c0,0,20.7,2.7,31.9-6.3c6.4-5.1,3.9-17.9,0.5-27.9c-2.6-7.6-5.6-13.6-5.6-13.6s0.7-3.5,1.9-8.1    c1.3-4.8,3.3-10.9,5.9-15.1c4.9-8-12.4-19.9-12.9-20.2c0.4,0,12.2,1.4,21.6,4.6c9.7,3.2,19.3-12.2,19.8-25.7    c0.3-7.3-7.1-19.6-13.9-29.2c0.7,0,1.3-0.1,2-0.1C197.6,187.5,214.6,205.1,214.6,226.7z"/>
		<g id="XMLID_177_">
			<g id="XMLID_587_">
				<g id="XMLID_606_">
					<g id="XMLID_607_">
						<path id="XMLID_608_" class="st8" d="M220.1,217.6c-0.1-0.4-0.2-0.8-0.3-1.2c-0.4-1.7-0.8-3.3-1.4-4.9        c-1.3-3.8-3.1-7.4-5.3-10.6c-0.8-1.2-1.7-2.4-2.6-3.5c-1.8-2.2-3.8-4.2-5.9-6c-2.3-1.9-4.7-3.6-7.4-5c-0.1,0-0.2-0.1-0.3-0.1        c-6.1-3.3-13.1-5.1-20.4-5.1c-24.5,0-44.4,20.4-44.4,45.5c0,0.8,0,1.6,0.1,2.4c0.1,2.1,0.4,4.3,0.8,6.3        c0.1,0.4,0.1,0.7,0.2,1.1c0.5,2.2,1.1,4.3,1.9,6.4c0.8,2.2,1.8,4.4,3,6.4c3,5.3,6.9,9.9,11.6,13.6c-3.3-7-7-13.4-11-19.1        c-0.7-1-1.4-2-2.1-2.9c0.3-0.4,0.7-0.8,1-1.2c0.7-0.9,1.5-1.7,2.2-2.5c-0.7-2.5-1.1-5-1.3-7.6c-0.1-0.9-0.1-1.9-0.1-2.8        c0-4.6,0.8-9,2.2-13.1c0.1-0.3,0.2-0.5,0.3-0.8c0.3-0.9,0.7-1.8,1.1-2.6c0.1-0.3,0.3-0.5,0.4-0.8c0.1-0.3,0.3-0.6,0.4-0.8        c0.1-0.3,0.3-0.5,0.4-0.8c0.1-0.3,0.3-0.5,0.4-0.8c0.1-0.3,0.3-0.5,0.5-0.8c0.2-0.3,0.3-0.5,0.5-0.8c0.3-0.5,0.6-0.9,0.9-1.4        c0.2-0.3,0.4-0.6,0.7-0.9c0.2-0.2,0.3-0.5,0.5-0.7c0.4-0.5,0.7-0.9,1.1-1.4c0.4-0.5,0.8-0.9,1.2-1.3c0.4-0.4,0.8-0.9,1.3-1.3        c0.4-0.4,0.8-0.8,1.3-1.2c1.2-1.1,2.4-2.1,3.8-3c0.3-0.2,0.5-0.3,0.8-0.5c0.3-0.2,0.5-0.3,0.8-0.5c1.4-0.9,2.9-1.7,4.5-2.4        c0.3-0.1,0.5-0.3,0.8-0.4c0.2-0.1,0.4-0.2,0.6-0.2c0.3-0.1,0.5-0.2,0.8-0.3c0.5-0.2,0.9-0.3,1.3-0.5c0.2-0.1,0.5-0.2,0.7-0.2        c0.3-0.1,0.6-0.2,1-0.3c0.3-0.1,0.5-0.1,0.8-0.2c0.5-0.1,1.1-0.3,1.6-0.4c0.3-0.1,0.5-0.1,0.7-0.2c0.4-0.1,0.8-0.1,1.1-0.2        c0.5-0.1,1.1-0.2,1.7-0.2c0.7-0.1,1.4-0.1,2.1-0.2c0.7,0,1.3-0.1,2-0.1c0.5,0,0.9,0,1.3,0c0.2,0,0.3,0,0.5,0c0,0,0.1,0,0.2,0        c0.4,0,0.8,0,1.2,0.1c0.5,0,1,0.1,1.5,0.2c0,0,0.1,0,0.1,0c0.5,0.1,1,0.1,1.5,0.2c0,0,0,0,0,0c0.5,0.1,0.9,0.2,1.3,0.3        c0.1,0,0.2,0,0.3,0c0.1,0,0.2,0,0.2,0c0,0,0.1,0,0.1,0c0.4,0.1,0.7,0.2,1.1,0.3c0.2,0,0.4,0.1,0.5,0.1c0.2,0,0.3,0.1,0.5,0.1        c0.2,0.1,0.4,0.1,0.6,0.2c0.4,0.1,0.8,0.2,1.2,0.4c0.1,0.1,0.3,0.1,0.4,0.1c0.3,0.1,0.7,0.3,1,0.4c0.1,0,0.2,0.1,0.3,0.1        c0.4,0.2,0.8,0.3,1.2,0.5c0.5,0.2,0.9,0.4,1.3,0.6c0,0,0,0,0.1,0c0,0,0,0,0.1,0c0.4,0.2,0.8,0.4,1.2,0.7        c0.9,0.5,1.8,1,2.6,1.6c0,0,0,0,0,0c0.4,0.3,0.8,0.6,1.2,0.9c0.4,0.3,0.7,0.5,1,0.8c0.1,0,0.1,0.1,0.2,0.1        c0,0,0.1,0.1,0.1,0.1c0.3,0.2,0.5,0.4,0.7,0.6c0.6,0.5,1.1,1,1.7,1.4c0.3,0.3,0.5,0.5,0.8,0.8c0.2,0.2,0.5,0.5,0.7,0.7        c0,0,0.1,0.1,0.1,0.1c0.3,0.3,0.5,0.5,0.8,0.8c0.1,0.1,0.2,0.2,0.3,0.3c0,0,0,0,0,0c0.1,0.1,0.1,0.2,0.2,0.2        c0.2,0.2,0.3,0.4,0.5,0.5c0,0,0,0,0.1,0.1c0.3,0.3,0.6,0.7,0.8,1c0.1,0.1,0.2,0.3,0.4,0.5c0.1,0.1,0.2,0.3,0.3,0.5        c0.1,0.1,0.1,0.2,0.2,0.3c0.1,0.2,0.3,0.4,0.4,0.6c0,0,0.1,0.1,0.1,0.1c0.1,0.1,0.2,0.3,0.3,0.4c0,0,0,0,0,0c0,0,0,0,0,0        c0,0,0,0,0,0.1c0.1,0.2,0.2,0.4,0.4,0.5c0.5,0.7,0.9,1.4,1.3,2.1c0.3,0.5,0.6,1.1,0.9,1.7c0,0,0,0.1,0.1,0.1        c0.2,0.3,0.3,0.7,0.5,1c0.2,0.3,0.3,0.7,0.5,1c0.1,0.2,0.2,0.4,0.2,0.6c0,0.1,0,0.1,0.1,0.2c0.1,0.2,0.2,0.4,0.2,0.6        c0,0,0,0,0,0c0.2,0.6,0.5,1.2,0.6,1.8c0.1,0.4,0.2,0.7,0.3,1.1c0,0.1,0,0.2,0.1,0.2c0.1,0.4,0.2,0.7,0.3,1.1c0,0,0,0.1,0,0.1        c0.2,0.6,0.3,1.2,0.4,1.8c0.1,0.3,0.1,0.6,0.2,0.9c0,0.2,0.1,0.4,0.1,0.5c0,0,0,0,0,0.1c0.1,0.3,0.1,0.5,0.1,0.8        c0.1,0.3,0.1,0.6,0.1,0.9c0,0.3,0.1,0.7,0.1,1c0,0.3,0,0.5,0.1,0.8c0,0.3,0,0.6,0.1,0.9c0,0.2,0,0.4,0,0.5c0,0.2,0,0.4,0,0.5        c0,0.4,0,0.8,0,1.2c0,0.7,0,1.4-0.1,2.2v0c0,0.3,0,0.7-0.1,1c0,0.2,0,0.3,0,0.5c0,0.2,0,0.3,0,0.5c0,0.2,0,0.5-0.1,0.7        c0,0.4-0.1,0.8-0.2,1.3c0,0.2-0.1,0.4-0.1,0.6v0c0,0.2-0.1,0.5-0.1,0.7c-0.1,0.4-0.1,0.7-0.2,1c-0.1,0.3-0.1,0.7-0.2,1        c-0.1,0.5-0.2,0.9-0.3,1.3c0,0.1-0.1,0.3-0.1,0.4c-0.1,0.4-0.3,0.9-0.4,1.3c-0.1,0.3-0.2,0.7-0.3,1c-0.2,0.7-0.5,1.3-0.8,1.9        c-0.1,0.3-0.3,0.6-0.4,1c-0.1,0.3-0.3,0.6-0.4,0.9c-0.1,0.2-0.2,0.5-0.3,0.7c-0.2,0.3-0.3,0.7-0.5,1c0,0.1,0,0.1-0.1,0.2        c-0.2,0.4-0.4,0.7-0.6,1.1c-0.2,0.4-0.5,0.8-0.8,1.2c-0.1,0.2-0.2,0.4-0.4,0.6c0,0-0.1,0.1-0.1,0.1c-0.2,0.3-0.4,0.6-0.6,0.9        c-0.2,0.3-0.4,0.5-0.5,0.7c-0.4,0.5-0.8,1-1.2,1.5c0,0,0,0,0,0c-0.4,0.5-0.8,1-1.2,1.4c-0.4,0.4-0.8,0.9-1.2,1.3        c0,0-0.1,0.1-0.2,0.1c-0.4,0.4-0.9,0.8-1.3,1.2c-1.9,1.7-3.9,3.2-6.1,4.5c0,2.4,0,4.8-0.2,7.3c2.3-1.1,4.5-2.4,6.5-3.8        c9.4-6.6,16.1-16.9,18.4-28.8c0.5-2.8,0.8-5.6,0.8-8.5v-0.1C221,223.6,220.6,220.5,220.1,217.6z"/>
					</g>
				</g>
				<g id="XMLID_601_">
					<g id="XMLID_602_">
						<path id="XMLID_603_" class="st8" d="M138.5,229.5c-1.3,1.3-2.6,2.6-3.9,4c-0.6,0.6-1.1,1.3-1.7,1.9c-0.1,0.1-0.2,0.3-0.3,0.4        c-1,1.1-1.9,2.3-2.8,3.5l0,0c-0.4,0.5-0.8,1-1.1,1.5c1,1.3,2.1,2.6,3.1,4c0.3,0.4,0.6,0.8,0.9,1.3c0.8-1.1,1.5-2.2,2.3-3.3        c0.5-0.7,1-1.4,1.6-2c0.3-0.4,0.7-0.8,1-1.2c0.7-0.9,1.5-1.7,2.2-2.5C139.2,234.6,138.7,232.1,138.5,229.5z M201.6,256.2        c-1.9,1.7-3.9,3.2-6.1,4.5c0,2.4,0,4.8-0.2,7.3c-0.6,7.7-2.3,15.9-5.2,24c-0.7,1.9-1.4,3.8-2.2,5.6c-0.2,0.5-0.4,0.9-0.6,1.4        c-0.3,0.6-0.5,1.1-0.8,1.7c-0.3,0.7-0.6,1.3-1,2c-0.2,0.5-0.5,0.9-0.7,1.4c-0.2,0.5-0.5,0.9-0.7,1.4c-0.5,0.9-1,1.8-1.5,2.7        c-0.1,0.2-0.2,0.4-0.3,0.6c-0.1,0.3-0.3,0.5-0.4,0.7c-0.5,0.8-0.9,1.5-1.4,2.3c-0.3,0.4-0.5,0.8-0.8,1.2        c-1,1.6-2.1,3.1-3.2,4.5c-0.3,0.4-0.5,0.7-0.8,1.1c-0.4,0.5-0.9,1-1.3,1.6c-0.4,0.5-0.9,1-1.3,1.5c-0.3,0.3-0.6,0.7-0.9,1        c-0.6,0.7-1.2,1.3-1.8,1.9c-0.3,0.3-0.6,0.6-0.9,0.9c-0.3,0.3-0.6,0.6-0.9,0.9c-0.6,0.6-1.3,1.2-1.9,1.7        c-0.2,0.2-0.4,0.3-0.6,0.5c-0.1,0.1-0.2,0.2-0.3,0.2c0,0,0,0-0.1,0.1c0,0,0,0,0,0c0,0-0.1,0.1-0.2,0.1c-2.7,2.1-5.3,3.9-8,5.3        c-7.5,3.9-14.9,4.7-21.4,2.4c-0.3-0.1-0.5-0.2-0.8-0.3c-0.2-0.1-0.4-0.2-0.6-0.2c-0.2-0.1-0.4-0.2-0.6-0.3        c-0.3-0.1-0.6-0.3-0.8-0.4c-0.3-0.2-0.6-0.3-0.9-0.5c-0.9-0.5-1.7-1-2.5-1.7c-0.3-0.2-0.5-0.4-0.8-0.6        c-0.3-0.2-0.5-0.4-0.8-0.7c-0.4-0.4-0.8-0.8-1.2-1.1c-0.2-0.2-0.3-0.4-0.5-0.5c-0.4-0.4-0.8-0.9-1.2-1.4        c-0.3-0.4-0.6-0.8-0.9-1.1c0-0.1-0.1-0.1-0.1-0.2c-0.3-0.4-0.6-0.8-0.8-1.2c-4.2-3.9-8.3-8.8-12.1-14.3        c0.1,0.5,0.2,0.9,0.3,1.3c1.5,6.7,3.9,12.5,7.1,17.2c3.9,5.7,9,9.8,15,11.9c3.1,1.1,6.3,1.6,9.6,1.6c5.7,0,11.5-1.6,17.4-4.7        c2.8-1.5,5.7-3.4,8.5-5.6c0.9-0.7,1.8-1.4,2.6-2.2c10.3-9.1,18.8-22.3,24.2-37.6c3.6-10.1,5.5-20.3,5.8-30        C201.8,261.4,201.8,258.8,201.6,256.2z"/>
					</g>
				</g>
				<g id="XMLID_596_">
					<g id="XMLID_597_">
						<path id="XMLID_598_" class="st8" d="M135.9,336.6c-0.3-0.1-0.5-0.2-0.8-0.3c-0.2-0.1-0.4-0.2-0.6-0.2        c-0.2-0.1-0.4-0.2-0.6-0.3c-0.3-0.1-0.6-0.3-0.8-0.4c-0.3-0.2-0.6-0.3-0.9-0.5c-0.9-0.5-1.7-1-2.5-1.7        c-0.3-0.2-0.5-0.4-0.8-0.6c-0.3-0.2-0.5-0.4-0.8-0.7c-0.4-0.4-0.8-0.8-1.2-1.1c-0.2-0.2-0.3-0.4-0.5-0.5        c-0.4-0.4-0.8-0.9-1.2-1.4c-0.3-0.4-0.6-0.8-0.9-1.1c0-0.1-0.1-0.1-0.1-0.2c-0.3-0.4-0.6-0.8-0.8-1.2        c-4.2-3.9-8.3-8.8-12.1-14.3c-4.5-6.6-8.7-14.1-12.2-22.2c-0.3-0.7-0.6-1.4-0.9-2.2c-0.9-2.3-1.8-4.5-2.6-6.8        c-0.4-1.2-0.8-2.4-1.2-3.5c-0.7-2.2-1.4-4.5-2-6.7v0c-0.4-1.5-0.7-2.9-1-4.3c-1.2-5.3-1.9-10.4-2.2-15.2        c0-0.5-0.1-1.1-0.1-1.6c-0.8-1.8-1.6-3.5-2.6-5.3c-0.7-1.4-1.5-2.8-2.3-4.2c-0.3-0.5-0.6-1-0.9-1.4c-0.3,2.2-0.5,4.5-0.5,7        c0,0.2,0,0.3,0,0.5c0,1,0,2,0,3c0.1,4.4,0.6,9,1.5,13.8c1.4,7.8,3.8,16.1,7,24.4c0.6,1.6,1.3,3.3,2,4.9        c6.7,15.5,15.7,29,25.3,38.2c0.3,0.3,0.7,0.7,1.1,1c8,7.3,15.8,11.1,22.6,11.1c2.4,0,4.6-0.5,6.8-1.4c3.3-1.4,6-3.9,8-7.2        C149.8,338.1,142.4,338.9,135.9,336.6z M159.3,289.9c-0.1-0.5-0.3-1.1-0.4-1.6c-0.5-1.9-1-3.9-1.6-5.9c-0.2-0.7-0.4-1.3-0.6-2        c-0.2-0.7-0.4-1.4-0.7-2c-0.6-1.8-1.2-3.5-1.9-5.3v0c0-0.1,0-0.1-0.1-0.2c-0.3-0.9-0.7-1.8-1.1-2.7c-0.4-1-0.8-1.9-1.2-2.9        c-0.6-1.5-1.3-3-2-4.4c-3.3-7-7-13.4-11-19.1c-0.7-1-1.4-2-2.1-2.9c-1.1-1.5-2.3-3-3.4-4.4c-0.2-0.2-0.4-0.4-0.5-0.7        c-3.1-3.7-6.3-6.8-9.4-9.5c-0.7-0.6-1.4-1.1-2.1-1.7c0,0,0,0,0,0c-2-1.6-4.1-2.9-6.1-4c-1.9-1-3.9-1.9-5.7-2.5        c1.4,1.6,2.8,3.2,4.2,4.8c3.2,3.9,6,7.5,8,10.1c1.3,1.2,2.6,2.5,3.9,3.9c1.1,1.2,2.3,2.5,3.4,3.9c1,1.3,2.1,2.6,3.1,4        c0.3,0.4,0.6,0.8,0.9,1.3c1.5,2,2.9,4.2,4.3,6.4c3.2,5.1,6.2,10.9,8.9,17.3c4.1,9.5,7.1,19.1,8.7,28.1l3.2-3.2l2.2-2.2        C159.7,291.7,159.5,290.8,159.3,289.9z"/>
					</g>
				</g>
				<g id="XMLID_594_">
					<polygon id="XMLID_595_" class="st8" points="159.9,292.5 144.3,308.1 154.5,297.9      "/>
				</g>
				<g id="XMLID_592_">
					<path id="XMLID_593_" class="st8" d="M129.2,234.3l-3.8,2.7l-3.9-3.9c-2.8-3.8-7.3-9.4-12.2-14.9c-4.7-5.3-9.9-10.4-14.7-13.7       c-5.2-3.6-13.3-1.9-23.6,0.3c-5,1-10.4,2.2-16.2,2.8c-0.6,0.1-1.3,0.1-2,0.2h0c-9.5,0.9-19.8,0.4-30.9-3.8       c-4.2-1.6-6.2-5.1-7.9-8.3c-1.8-3.2-3.3-5.9-6.9-7.1c-0.5-0.2-0.8-0.2-0.9-0.2c-0.1,0-0.1,0-0.1,0c-1.4,1.3,0.1,11.1,4.3,19.1       c3.6,6.8,10.2,11.5,20.4,14.3c3.2,0.9,9.2,1.5,15.6,2.2c9.5,1,20.3,2.2,26.8,4.6c3.7,1.4,7.2,5.3,10.3,10.2       c2.2,3.4,4.1,7.2,5.8,10.9c0.2,5.3,1,10.9,2.3,16.8l-1.5,0.5c-1.6-5.1-4.2-11.7-7.1-17.7c-3.7-7.5-8-14.1-11.8-15.5       c-5.9-2.2-16.3-3.3-25.5-4.3c-6.9-0.7-12.8-1.4-16.5-2.4c-11.5-3.2-19.5-8.9-23.8-17.1c-3.1-6-8.1-20-3.7-25.2       c0.8-0.9,2.4-2.3,5.3-1.9c0.5,0.1,1.1,0.2,1.7,0.4c1.3,0.4,2.3,0.9,3.3,1.5c0,0,0,0,0,0c3.4,2.1,5.2,5.4,6.8,8.1       c1.7,3,2.9,5,5.1,5.8c6.4,2.4,12.7,3.5,18.7,3.7c3.9,0.1,7.6,0,11.2-0.4h0c0.9-0.1,1.8-0.2,2.6-0.3c1.9-0.3,3.8-0.6,5.6-0.9       c2.7-0.5,5.3-1,7.8-1.5c1.2-0.3,2.5-0.5,3.7-0.8c1.9-0.4,3.8-0.7,5.6-1c7.2-1.1,13.5-1.1,18.5,2.4c9.1,6.2,19.3,18.3,25.5,26.4       C126.6,230.7,128.9,233.9,129.2,234.3z"/>
				</g>
				<g id="XMLID_590_">
					<path id="XMLID_591_" class="st8" d="M79.1,197.6l-5,2.2c-0.2-0.4-0.4-0.9-0.6-1.3c-3.2-6.8-7.3-12.8-9.1-13.1       c-4.2-0.7-5.4,0-5.8,0.4c-0.4,0.4-0.5,1.4-0.3,2.8c0.9,5.7,3.2,11.2,3.7,12.2c0,0.1,0.1,0.2,0.1,0.2l-5,2.3       c0-0.1-0.3-0.6-0.7-1.6c-1-2.4-2.7-7.2-3.5-12.3c-0.5-3.3,0.1-5.8,1.9-7.5c2.8-2.8,7.3-2.4,10.5-1.9       C71.1,180.9,76.8,192.5,79.1,197.6C79.1,197.5,79.1,197.6,79.1,197.6z"/>
				</g>
				<g id="XMLID_588_">
					<path id="XMLID_589_" class="st8" d="M52.8,207.7L52.8,207.7c-2.2-1-6-2.8-10.3-5.2c-7.5-4.2-16.3-9.9-19.6-15.3       c-0.4-0.6-0.7-1.2-1-1.8c-0.2-0.3-0.3-0.6-0.5-0.9c-0.1-0.2-0.2-0.5-0.3-0.7c-0.1-0.2-0.2-0.4-0.2-0.5       c-0.1-0.2-0.1-0.3-0.2-0.5c-0.1-0.3-0.2-0.6-0.3-0.8c0-0.1-0.1-0.2-0.1-0.3c-0.1-0.3-0.3-0.7-0.4-1c-0.4-1.2-0.7-2.3-0.9-3.3       c-0.2-0.8-0.3-1.6-0.5-2.3c-0.2-0.8-0.4-1.9-0.5-2.4c-1.6-0.1-2.2,0-2.8,0.7c-0.2,0.2-0.4,0.5-0.6,0.9       c-0.1,0.2-0.2,0.4-0.3,0.7c0,0.1-0.1,0.2-0.1,0.3c0,0.1-0.1,0.2-0.1,0.4c-0.1,0.3-0.2,0.7-0.3,1.1c0,0.2-0.1,0.3-0.1,0.5       c-0.2,0.8-0.4,1.7-0.5,2.8c0,0.3-0.1,0.6-0.1,0.9c0,0.1,0,0.1,0,0.2c0,0.2,0,0.4-0.1,0.6c0,0.3-0.1,0.5-0.1,0.8       c0,0.2,0,0.4,0,0.6c-0.1,0.6-0.1,1.2-0.1,1.8l-0.5,1.4l-5.1-1.7c0-0.5,0.1-1.1,0.1-1.6c0.2-2.2,0.4-4.1,0.8-5.7       c1.7-8.7,5.5-10.5,10.7-10.1c4,0.2,4.7,3.9,5.3,6.8c0.2,1,0.4,2.1,0.8,3.4c0.6,2,1.4,4.4,3,7c3.7,6.1,18.1,13.9,26.1,17.8h0       c1.1,0.5,2.1,1,2.9,1.3l-1.8,4.1"/>
				</g>
			</g>
		</g>
	</g>
</g>
<path id="XMLID_360_" class="st1" d="M373.5,194.7c-0.2,0.4-3.3,5.6-10.9,10.2c-5.7,3.5-14,6.5-25.5,6.8c-0.7,1.7-1.5,3.4-2.3,5  c-9.9,19.4-27.4,34.1-48.8,40.2l-13.6,3.9v0.9l-1.5-0.4l-1.5,0.4v-0.9l-13.6-3.9c-21.5-6.1-39.1-21-49-40.4  c-0.9-1.7-1.7-3.5-2.4-5.3c-8.2-1-14.4-3.6-19-6.3c-7.6-4.6-10.8-9.9-10.9-10.2c0.1,0,1.2,0.6,12.5,6c4.4,2.1,9.1,2.2,14.1,0.8  c-0.1-0.4-0.2-0.8-0.3-1.2l-1.5-5.8c-1.3-3.8-2.3-7.8-3-11.9l-0.8-4.8c-1.2,0.2-2.4,0.3-3.6,0.3c-12.8,0-23.2-10.4-23.2-23.2  c0-11.4,8.2-20.8,19-22.8l0-0.3c0,0,0,0,0,0c-1.1-2.3-2.1-4.7-3-7.1c0,0,0-0.1,0-0.1c-0.7-1.9-1.4-3.9-1.9-5.9  c-0.9-3.2-1.7-6.5-2.3-9.9c-0.3-2-0.6-4-0.8-6.1c-0.4-3.2-0.5-6.5-0.5-9.8c0-37.4,22.3-69.7,54.3-84.3c1.9-0.9,3.8-1.7,5.7-2.4  c6.8-2.6,14.1-4.4,21.6-5.3c2-0.3,4.1-0.4,6.2-0.5c0.1,0,0.3,0,0.4,0c0.3,0,0.7,0,1,0c1.1,0,2.3-0.1,3.4-0.1c0.8,0,1.6,0,2.5,0  c0.1-0.1,0.1-0.2,0.2-0.4c0,0.1,0,0.2-0.1,0.4c2.1,0.1,4.2,0.2,6.2,0.4c2.1,0.2,4.3,0.5,6.4,0.8c0.2,0,0.3,0,0.5,0.1  c2.5,0.4,5,1,7.5,1.6h0c31.6,8.2,56.7,32.6,65.8,63.7c0.6,2,1.1,4.1,1.6,6.2c1.4,6.4,2.2,13,2.2,19.8c0,1.8,0,3.5-0.2,5.2  c-0.1,2-0.3,4-0.5,6c-0.7,6-2,11.8-3.8,17.3c-0.9,2.8-1.9,5.5-3.1,8.2c-0.4,0.9-0.8,1.9-1.3,2.8C365.5,135,373,144.1,373,155  c0,12.8-10.4,23.2-23.2,23.2c-1.2,0-2.3-0.1-3.4-0.3l-0.8,4.7c-0.1,0.7-0.3,1.5-0.4,2.2c-0.8,3.9-1.8,7.6-3.2,11.3l-0.8,3.2  c7.2,3.3,13.8,4.3,19.8,1.4C372,195.4,373.3,194.7,373.5,194.7z"/>
<path id="XMLID_144_" class="st7" d="M372,155c0,12.8-10.4,23.2-23.2,23.2c-1.2,0-2.3-0.1-3.4-0.3l-0.8,4.7  c-0.1,0.7-0.3,1.5-0.4,2.2l-19,7.8l-41.5-4.1l-12.4-40.6l-24.1-23.1l13.3-40l98.3,36.8c-0.9,2.8-1.9,5.5-3.1,8.2  c-0.4,0.9-0.8,1.9-1.3,2.8C364.5,135,372,144.1,372,155z"/>
<polygon id="XMLID_81_" class="st10" points="274.1,146.3 274.1,186.2 254.8,185.3 "/>
<polygon id="XMLID_83_" class="st11" points="273.8,146.3 273.8,186.2 293.1,185.3 "/>
<path id="XMLID_346_" class="st3" d="M364.3,93c0,1.8,0,3.5-0.2,5.2c-0.1,2-0.3,4-0.5,6c-1.1,8.9-3.4,17.5-6.9,25.5  c-0.4,0.9-0.8,1.9-1.3,2.8c-0.5,1.2-1.1,2.3-1.7,3.4c-0.1,0-0.1,0-0.2,0c-1.4,0.1-2.8,0.1-4.2,0.1c-0.6,0-1.3,0-1.9,0  c-0.2,0-0.4,0-0.6,0c0,0,0,0,0,0c-5.5-0.1-10.8-0.8-16.1-1.8c-6.5-1.3-12.9-3.3-18.9-6c-11.1-4.9-21.2-12-29.8-21.1  c-0.9-1-1.8-1.9-2.6-2.9c-9.4,10.4-21.1,18.7-34.3,24c-7.4,3-15.4,5-23.6,6c-3.6,0.4-7.2,0.6-10.8,0.6c-3.7,0-7.3-0.2-10.9-0.6  c-1.6-0.2-3.2-0.4-4.8-0.7c-2.3-0.4-4.5-0.8-6.7-1.4c-0.3,0-0.5-0.1-0.7-0.2c0,0,0,0,0,0c-1.1-2.3-2.1-4.7-3-7.1c0,0,0-0.1,0-0.1  c-0.7-1.9-1.4-3.9-1.9-5.9c-0.9-3.2-1.7-6.5-2.3-9.9c0,0,0,0,0-0.1c-0.3-2-0.6-4-0.8-6c-0.4-3.2-0.5-6.5-0.5-9.8  c0-36.3,21-67.8,51.4-82.9c1-0.5,1.9-0.9,2.9-1.4c1.9-0.9,3.8-1.7,5.7-2.4c6.8-2.6,14.1-4.4,21.6-5.3c2-0.3,4.1-0.4,6.2-0.5  c0.1,0,0.3,0,0.4,0c0.3,0,0.7,0,1,0c1.1,0,2.3-0.1,3.4-0.1c0.8,0,1.6,0,2.5,0c0.1-0.1,0.1-0.2,0.2-0.4c0,0.1,0,0.2-0.1,0.4  c2.1,0.1,4.2,0.2,6.2,0.4c2.1,0.2,4.3,0.5,6.4,0.8c0.2,0,0.3,0,0.5,0.1c2.5,0.4,5,1,7.5,1.6h0c31.6,8.2,56.7,32.6,65.8,63.7  c0.6,2,1.1,4.1,1.6,6.2C363.6,79.5,364.3,86.2,364.3,93z"/>
<path id="XMLID_336_" class="st12" d="M234.9,12.8c0,0-28.4,28.1-32.9,52.7c-4.5,24.6-1,53.4-1,53.4l-13,1.3l-6.6-11.4  c-0.3-2-0.6-4-0.8-6c-0.4-3.2-0.5-6.5-0.5-9.8c0-36.3,21-67.8,51.4-82.9C233.4,11.7,234.9,12.8,234.9,12.8z"/>
<path id="XMLID_272_" class="st9" d="M368,254.6c-2.3,0.7-4.7,1-7.2,1c-14.5,0-26.2-11.7-26.2-26.2c0-9.1,4.7-17.2,11.8-21.9  c-2.9,4.7-4.5,10.3-4.5,16.2C341.9,239.3,353.2,252.2,368,254.6z"/>
<path id="XMLID_143_" class="st6" d="M274.3,4.4c0,0,4.2,28.5,3.1,30.8c-1.2,2.3,16.6,12.8,17.5,14.5s2.3,17.5,2.3,17.5  s-10.4,30.5-15.2,30.6s-19.3-10.1-19.3-10.1l-2.6-1.9c0,0-20.1,21.2-25.4,24.7s-42.8,16.3-42.8,16.3l-3.3-5.8c0,0,25.8-5.5,29-8.5  s29.7-20.1,34.1-27.7S264,56,265.2,52.5s5.2-25.2,3.8-31.5s-3.2-16.6-3.2-16.6H274.3z"/>
<path id="XMLID_133_" class="st6" d="M354.5,59.8l2.6,8.2c0,0-33.3-7.5-41-15.5s-11.7-18.6-11.7-18.6S332,60,354.5,59.8z"/>
<path id="XMLID_131_" class="st6" d="M302,68c0,0,16.2,19.2,34.2,23.3c18,4.1,25.9,3.3,25.9,3.3l-1.9,6.7c0,0-20.6,0-31.5-5  s-31.6-20.8-31.6-20.8L302,68z"/>
<path id="XMLID_132_" class="st6" d="M302,9.2c0,0,12,33.3,4.5,55.4s-21.7,41.9-21.7,41.9l-4.3-5.1c0,0,17.5-31.4,18.6-38.8  s3.3-23.5,1.4-31.2s-5.7-25.1-5.7-25.1L302,9.2z"/>
<g id="XMLID_1_">
	<g id="XMLID_418_">
		<path id="XMLID_419_" class="st8" d="M280.5,0.7c-2-0.2-4.1-0.3-6.2-0.4c-0.2,1.3-0.3,2.7-0.4,4c-0.1,0.7-0.1,1.3-0.1,2    c0.3,0,0.6,0,0.9,0c2.5,0.1,5,0.3,7.4,0.6C281.5,4.9,280.9,2.8,280.5,0.7z M189.5,120.7c-0.3-0.8-0.5-1.6-0.8-2.4    c-1.2-3.8-2.1-7.8-2.7-11.8c-1.9,0.9-3.8,1.6-5.7,2.4c0.6,3.4,1.3,6.7,2.3,9.9c0.6,2,1.2,4,1.9,5.9c2-0.1,3.9-0.3,5.8-0.5    c0.1,0,0.3,0,0.4,0C190.3,123,189.9,121.8,189.5,120.7z M189.5,120.7c-0.3-0.8-0.5-1.6-0.8-2.4c-1.2-3.8-2.1-7.8-2.7-11.8    c-1.9,0.9-3.8,1.6-5.7,2.4c0.6,3.4,1.3,6.7,2.3,9.9c0.6,2,1.2,4,1.9,5.9c2-0.1,3.9-0.3,5.8-0.5c0.1,0,0.3,0,0.4,0    C190.3,123,189.9,121.8,189.5,120.7z M189.5,120.7c-0.3-0.8-0.5-1.6-0.8-2.4c-1.2-3.8-2.1-7.8-2.7-11.8c-1.9,0.9-3.8,1.6-5.7,2.4    c0.6,3.4,1.3,6.7,2.3,9.9c0.6,2,1.2,4,1.9,5.9c2-0.1,3.9-0.3,5.8-0.5c0.1,0,0.3,0,0.4,0C190.3,123,189.9,121.8,189.5,120.7z     M189.5,120.7c-0.3-0.8-0.5-1.6-0.8-2.4c-1.2-3.8-2.1-7.8-2.7-11.8c-1.9,0.9-3.8,1.6-5.7,2.4c0.6,3.4,1.3,6.7,2.3,9.9    c0.6,2,1.2,4,1.9,5.9c2-0.1,3.9-0.3,5.8-0.5c0.1,0,0.3,0,0.4,0C190.3,123,189.9,121.8,189.5,120.7z M362.2,73.2    c-0.5-2.1-1-4.2-1.6-6.2c-9.1-31.1-34.2-55.5-65.8-63.7h0c-2.5-0.6-5-1.2-7.5-1.6c-0.2,0-0.3-0.1-0.5-0.1    c-2.1-0.4-4.2-0.6-6.4-0.8c-2-0.2-4.1-0.3-6.2-0.4c0,0-0.1,0-0.2,0c-0.8,0-1.6,0-2.5,0c-1.1,0-2.3,0-3.4,0.1c-0.3,0-0.7,0-1,0    c-0.1,0-0.3,0-0.4,0c-2.1,0.1-4.2,0.3-6.2,0.5c-7.5,0.9-14.7,2.7-21.6,5.3c-1.9,0.7-3.8,1.5-5.7,2.4C201.3,23.2,179,55.6,179,93    c0,3.3,0.2,6.6,0.5,9.8c0.2,2.1,0.5,4.1,0.8,6.1c0.6,3.4,1.3,6.7,2.3,9.9c0.6,2,1.2,4,1.9,5.9c0,0,0,0.1,0,0.1    c0.9,2.4,1.9,4.8,3,7.1c0,0,0,0,0,0c0.3,0.1,0.5,0.1,0.7,0.2c2.2,0.6,4.4,1,6.7,1.4c-0.3-0.5-0.5-1-0.8-1.5    c-0.6-1.2-1.2-2.5-1.8-3.8c-0.2-0.5-0.4-1-0.6-1.4c-0.4-0.9-0.7-1.7-1.1-2.6c-0.4-1.1-0.9-2.3-1.3-3.5c-0.3-0.8-0.5-1.6-0.8-2.4    c-1.2-3.8-2.1-7.8-2.7-11.8c-0.3-2.1-0.6-4.2-0.8-6.3c-0.2-2.4-0.3-4.8-0.3-7.2c0-34.3,20.1-64,49.1-78.1c1.9-0.9,3.8-1.8,5.8-2.5    c7.2-2.8,14.8-4.8,22.7-5.6c0.6-0.1,1.1-0.1,1.7-0.2c0.6-0.1,1.3-0.1,1.9-0.1c0.5,0,1-0.1,1.5-0.1c0.3,0,0.7,0,1,0    c0.8,0,1.5,0,2.3,0c0.2,0,0.5,0,0.7,0c0.7,0,1.4,0,2,0c0.3,0,0.6,0,0.9,0c2.5,0.1,5,0.3,7.4,0.6c2.2,0.3,4.4,0.6,6.6,1    c0.6,0.1,1.2,0.3,1.8,0.4c1.7,0.4,3.4,0.8,5.1,1.3c0.7,0.2,1.4,0.4,2.1,0.6c1.8,0.6,3.5,1.2,5.3,1.9c24,9.3,42.9,29.1,51,53.7    c0.7,2.1,1.3,4.3,1.9,6.4c1.6,6.6,2.5,13.5,2.5,20.6c0,0.6,0,1.1,0,1.7c0,1.2-0.1,2.4-0.1,3.6c-0.1,1-0.1,2.1-0.2,3.1    c-0.1,1-0.2,1.9-0.3,2.9c-1.1,8.4-3.4,16.4-6.7,23.9c-0.3,0.6-0.6,1.2-0.8,1.8c-0.3,0.6-0.6,1.2-0.9,1.8c-0.4,0.9-0.9,1.8-1.4,2.7    c-0.3,0.5-0.6,1-0.9,1.5c0.2,0,0.4,0,0.6,0c0.6,0,1.3,0,1.9,0c1.4,0,2.8,0,4.2-0.1c0.1,0,0.1,0,0.2,0c0.6-1.1,1.2-2.3,1.7-3.4    c0.4-0.9,0.9-1.8,1.3-2.8c3.5-8,5.8-16.5,6.9-25.5c0.3-2,0.4-4,0.5-6c0.1-1.7,0.2-3.5,0.2-5.2C364.3,86.2,363.6,79.5,362.2,73.2z     M189.5,120.7c-0.3-0.8-0.5-1.6-0.8-2.4c-1.2-3.8-2.1-7.8-2.7-11.8c-1.9,0.9-3.8,1.6-5.7,2.4c0.6,3.4,1.3,6.7,2.3,9.9    c0.6,2,1.2,4,1.9,5.9c2-0.1,3.9-0.3,5.8-0.5c0.1,0,0.3,0,0.4,0C190.3,123,189.9,121.8,189.5,120.7z M189.5,120.7    c-0.3-0.8-0.5-1.6-0.8-2.4c-1.2-3.8-2.1-7.8-2.7-11.8c-1.9,0.9-3.8,1.6-5.7,2.4c0.6,3.4,1.3,6.7,2.3,9.9c0.6,2,1.2,4,1.9,5.9    c2-0.1,3.9-0.3,5.8-0.5c0.1,0,0.3,0,0.4,0C190.3,123,189.9,121.8,189.5,120.7z M189.5,120.7c-0.3-0.8-0.5-1.6-0.8-2.4    c-1.2-3.8-2.1-7.8-2.7-11.8c-1.9,0.9-3.8,1.6-5.7,2.4c0.6,3.4,1.3,6.7,2.3,9.9c0.6,2,1.2,4,1.9,5.9c2-0.1,3.9-0.3,5.8-0.5    c0.1,0,0.3,0,0.4,0C190.3,123,189.9,121.8,189.5,120.7z"/>
	</g>
</g>
<g id="XMLID_3_">
	<g id="XMLID_124_">
		<path id="XMLID_126_" class="st8" d="M303.1,34.7c-0.7-8.5-2.5-16.6-5.3-24.3c-0.4-1.2-0.9-2.3-1.3-3.4c-0.5-1.2-1-2.5-1.6-3.7h0    c-2.5-0.6-5-1.2-7.5-1.6c1.2,2.2,2.3,4.4,3.2,6.7c2,4.7,3.6,9.5,4.7,14.6c1,4.5,1.7,9.2,2,14c0.1,1.7,0.2,3.5,0.2,5.2    c0,5.1-0.4,10-1.3,14.8c-0.4,2.3-0.9,4.6-1.5,6.9c-0.3,1.1-0.6,2.2-0.9,3.3c-0.7,2.2-1.4,4.4-2.3,6.5c-0.6,1.6-1.3,3.3-2.1,4.9    c-1.7,3.7-3.7,7.3-6,10.7c-1.2,1.9-2.5,3.7-3.8,5.4c-0.5,0.7-1,1.3-1.6,2c-0.8,0.9-1.5,1.9-2.4,2.8    c-13.7,15.5-32.8,26.1-54.4,28.7c-3.4,0.4-7,0.6-10.5,0.6s-7.1-0.2-10.5-0.6c-2.8-0.3-5.6-0.8-8.3-1.4c-2.5-0.6-4.9-1.2-7.2-1.9    c0.9,2.4,1.9,4.8,3,7.1c0,0,0,0,0,0c0.3,0.1,0.5,0.1,0.7,0.2c2.2,0.6,4.4,1,6.7,1.4c1.6,0.3,3.2,0.5,4.8,0.7    c3.6,0.4,7.2,0.6,10.9,0.6c3.7,0,7.3-0.2,10.8-0.6c8.3-1,16.2-3,23.6-6c13.2-5.3,24.9-13.6,34.3-24c0.6-0.6,1.2-1.3,1.7-2    c0.8-0.9,1.5-1.8,2.2-2.7c5.1-6.4,9.3-13.5,12.6-21.1c0.4-1,0.8-1.9,1.2-2.9c0.4-1.1,0.8-2.2,1.2-3.3c3.1-8.8,4.8-18.3,5-28.1    c0-0.7,0-1.4,0-2C303.4,39.6,303.3,37.1,303.1,34.7z"/>
	</g>
</g>
<g id="XMLID_4_">
	<g id="XMLID_129_">
		<path id="XMLID_140_" class="st8" d="M269.6,9.5c-0.3-1.1-0.5-2.1-0.9-3.1c-0.2-0.7-0.4-1.3-0.6-2c-0.1-0.2-0.1-0.5-0.2-0.7    c-0.3-0.9-0.6-1.8-0.9-2.7c0-0.2-0.1-0.3-0.2-0.5c-2.1,0.1-4.2,0.3-6.2,0.5c0.7,1.9,1.4,3.8,2,5.8c0.2,0.8,0.5,1.5,0.7,2.3    c1.1,3.8,1.9,7.8,2.4,11.8c0.5,3.7,0.7,7.4,0.7,11.2c0,4.2-0.3,8.4-0.9,12.5c-0.4,3-1,5.9-1.7,8.8l0,0c-0.1,0.4-0.2,0.8-0.3,1.2    c-0.3,1.3-0.7,2.6-1.1,3.9c-0.8,2.4-1.7,4.8-2.6,7.1c0,0.1-0.1,0.3-0.2,0.4c-1.7,3.9-3.6,7.7-5.8,11.3    c-13.8,22.5-37.4,38.2-64.9,41.1c-2,0.2-4.1,0.4-6.1,0.4c0.6,2,1.2,4,1.9,5.9c2-0.1,3.9-0.3,5.8-0.5c0.1,0,0.3,0,0.4,0    c27.5-3.3,51.4-18.7,66.1-40.8c1.1-1.7,2.2-3.4,3.2-5.1c0.1-0.2,0.2-0.3,0.3-0.5c0.1-0.1,0.2-0.3,0.3-0.4v0c0.5-0.9,1-1.8,1.5-2.7    c0.5-1,1-2,1.5-2.9c0.8-1.7,1.6-3.4,2.3-5.2c0.6-1.4,1.1-2.8,1.6-4.2c0.8-2.4,1.6-4.9,2.2-7.5v0c0.6-2.3,1-4.5,1.4-6.8    c0.5-2.6,0.8-5.2,1-7.8c0,0,0-0.1,0-0.2c0.2-2.6,0.3-5.2,0.3-7.9C272.4,24.3,271.4,16.8,269.6,9.5z"/>
	</g>
</g>
<g id="XMLID_5_">
	<g id="XMLID_167_">
		<path id="XMLID_168_" class="st8" d="M239.9,12.4c-0.2-2.1-0.5-4.1-0.8-6.1c-1.9,0.7-3.8,1.5-5.7,2.4c0.3,2.1,0.6,4.2,0.8,6.3    c0.2,2.4,0.3,4.8,0.3,7.2c0,34.3-20.1,64-49.1,78.1c-1.9,0.9-3.8,1.8-5.8,2.5c0.2,2.1,0.5,4.1,0.8,6.1c1.9-0.7,3.8-1.5,5.7-2.4    c32-14.6,54.3-46.9,54.3-84.4C240.4,18.8,240.2,15.6,239.9,12.4z"/>
	</g>
</g>
<g id="XMLID_8_">
	<g id="XMLID_146_">
		<path id="XMLID_147_" class="st8" d="M360.6,66.9c-2.2-0.3-4.4-0.6-6.6-1c-17.5-3.5-33.4-12.2-45.8-25.4c-1.8-1.9-3.5-3.8-5.1-5.9    c-3-3.7-5.6-7.6-7.8-11.7c1,4.5,1.7,9.2,2,14c1.9,2.5,3.9,4.9,6.1,7.3c0.1,0.2,0.3,0.3,0.4,0.5c14.1,14.8,32.2,24.4,52.1,27.7    c2.1,0.3,4.2,0.6,6.3,0.8C361.7,71,361.2,69,360.6,66.9z M286.8,1.6c-2.1-0.4-4.2-0.6-6.4-0.8c0.5,2.1,1,4.2,1.6,6.2    c2.2,0.3,4.4,0.6,6.6,1C288,5.9,287.4,3.7,286.8,1.6z M441.9,40.6C442,40.6,442,40.5,441.9,40.6c0-0.1,0-0.1,0-0.1    C442,40.5,442,40.5,441.9,40.6z"/>
	</g>
</g>
<g id="XMLID_7_">
	<g id="XMLID_321_">
		<path id="XMLID_327_" class="st8" d="M441.9,40.6C442,40.6,442,40.5,441.9,40.6c0-0.1,0-0.1,0-0.1C442,40.5,442,40.5,441.9,40.6z     M361.1,98.3c-1,0-2,0-3,0h-0.3c-20.9-0.6-40.5-8.5-55.8-22.4c-1.1-1-2.1-2-3.2-3c-0.2-0.2-0.4-0.4-0.6-0.6c-0.3-0.3-0.7-0.7-1-1    c-0.3-0.3-0.6-0.6-0.9-1c-0.1-0.1-0.2-0.2-0.3-0.3c-0.5-0.6-1-1.1-1.5-1.7c-0.3-0.4-0.6-0.7-1-1.1c-0.7,2.2-1.4,4.4-2.3,6.5    c0.5,0.6,1,1.1,1.6,1.7c0.3,0.3,0.5,0.5,0.8,0.8c0,0,0.1,0.1,0.1,0.1c0.3,0.3,0.6,0.6,0.9,0.9c0.4,0.4,0.9,0.9,1.3,1.3    c1.1,1.1,2.3,2.1,3.4,3.1c16.1,14.1,36.5,22.1,58.2,22.7c0,0,0.1,0,0.1,0c0.9,0,1.7,0,2.6,0c1.1,0,2.2,0,3.4-0.1    c0.3-2,0.4-4,0.5-6C363.2,98.3,362.2,98.3,361.1,98.3z M274.1,0.4c-0.8,0-1.6,0-2.5,0c-1.1,0-2.3,0-3.4,0.1    c-0.1,1.1-0.3,2.2-0.3,3.3c0,0.2,0,0.5-0.1,0.7c0,0.7-0.1,1.4-0.1,2c0,0.9-0.1,1.8-0.1,2.7c0,1.6,0,3.3,0,4.9c0,0.2,0,0.4,0,0.6    c0.2,4.8,0.7,9.5,1.5,14.2c0.7,3.8,1.7,7.6,2.8,11.3c0,0,0,0.1,0,0.1c0,0,0-0.1,0-0.2c0.2-2.6,0.3-5.2,0.3-7.9    c0-7.8-1-15.4-2.8-22.6c0.5-1.1,0.9-2.1,1.4-3.2c0.2,0,0.5,0,0.7,0c0.7,0,1.4,0,2,0c0-0.7,0.1-1.3,0.1-2c0.1-1.3,0.3-2.7,0.4-4    c0-0.1,0-0.2,0.1-0.4C274.3,0.1,274.2,0.2,274.1,0.4z"/>
	</g>
</g>
<g id="XMLID_6_">
	<g id="XMLID_340_">
		<path id="XMLID_343_" class="st8" d="M441.9,40.6C442,40.6,442,40.5,441.9,40.6c0-0.1,0-0.1,0-0.1C442,40.5,442,40.5,441.9,40.6z     M271.7,0.3c-1.1,0-2.3,0-3.4,0.1c-0.3,0-0.7,0-1,0c-0.1,0.2-0.2,0.4-0.3,0.5c-1,1.9-1.9,3.8-2.7,5.7c-0.4,0.8-0.7,1.6-1,2.5    c1.1,3.8,1.9,7.8,2.4,11.8c0.6-2.1,1.2-4.3,1.9-6.3c0-0.1,0-0.1,0.1-0.2c0.6-1.7,1.2-3.3,1.9-4.9c0.5-1.1,0.9-2.1,1.4-3.2    c0.3-0.7,0.6-1.3,1-2c0.7-1.4,1.4-2.7,2.2-4C273.3,0.3,272.5,0.3,271.7,0.3z M264.3,60L264.3,60c-0.1-0.4-0.1-0.7-0.2-1.1    c-0.1-0.7-0.3-1.5-0.4-2.2c-0.1-0.7-0.2-1.4-0.3-2.1c-0.3,1.3-0.7,2.6-1.1,3.9c-0.8,2.4-1.7,4.8-2.6,7.1c0,0.1-0.1,0.3-0.2,0.4    c0.1,0.2,0.1,0.4,0.2,0.6c0,0.1,0,0.2,0.1,0.3c0.7,2.6,1.5,5.2,2.4,7.7c0.5-1,1-2,1.5-2.9c0.8-1.7,1.6-3.4,2.3-5.2    C265.2,64.3,264.7,62.1,264.3,60z M354.6,129.9c-1.5,0.1-3.1,0.1-4.6,0.1c-1,0-2,0-3,0c-5.3-0.1-10.5-0.8-15.6-1.8    c-16.9-3.5-32.3-12-44.5-24.8c-0.2-0.1-0.3-0.3-0.4-0.4c-1.1-1.1-2.1-2.3-3.1-3.4c-0.4-0.5-0.8-0.9-1.1-1.4    c-0.1-0.1-0.3-0.3-0.4-0.5h0c-0.8-1-1.6-2-2.3-3c-0.5,0.7-1,1.3-1.6,2c-0.8,0.9-1.5,1.9-2.4,2.8c1.2,1.6,2.5,3.2,3.8,4.7    c0.8,1,1.7,2,2.6,2.9c8.6,9.1,18.7,16.2,29.8,21.1c6,2.7,12.4,4.7,18.9,6c5.2,1.1,10.6,1.7,16.1,1.8c0,0,0,0,0,0    c0.2,0,0.4,0,0.6,0c0.6,0,1.3,0,1.9,0c1.4,0,2.8,0,4.2-0.1c0.1,0,0.1,0,0.2,0c0.6-1.1,1.2-2.3,1.7-3.4c0.4-0.9,0.9-1.8,1.3-2.8    C356,129.8,355.3,129.8,354.6,129.9z"/>
	</g>
</g>
<path id="XMLID_2_" class="st8" d="M341.7,170.1l-0.3,1.5l-0.8,4.7l-0.9,5.4c-0.5,2.7-1.1,5.4-1.8,8c-0.7,2.3-1.5,4.5-2.3,6.7  c-0.5,1.3-1.1,2.6-1.7,3.9c-1.9,3.9-4.1,7.6-6.7,11.1c-1.1,1.6-2.4,3.1-3.6,4.5c-0.2,0.3-0.5,0.5-0.8,0.8c-2.1,2.3-4.3,4.5-6.8,6.6  c-4.8,4.1-10.1,7.4-15.8,10c-9.1,4.2-19.1,6.4-29.2,6.4c-13.7,0-27-4-38.3-11.5c-2.3-1.5-4.5-3.2-6.7-5c-2.1-1.8-4-3.6-5.9-5.6  c-0.4-0.4-0.7-0.8-1.1-1.2c-1.4-1.5-2.7-3.1-3.9-4.8c-2.1-2.8-4-5.7-5.6-8.8c-0.7-1.3-1.4-2.6-2-4c-1.1-2.4-2.1-4.9-2.9-7.5  c-1.1-3.2-1.9-6.5-2.4-9.8l-0.9-5.5l-0.8-4.8v0l-0.2-1.3c-1.8,1-3.7,1.7-5.7,2l1,5.9l0.8,4.8c0.2,1.3,0.5,2.5,0.7,3.7  c0.6,2.8,1.4,5.5,2.3,8.2c0.1,0.4,0.2,0.7,0.4,1c0.7,1.9,1.4,3.8,2.3,5.6c0.7,1.4,1.4,2.9,2.1,4.3c1.1,2.1,2.3,4.2,3.6,6.1  c1.2,1.8,2.4,3.5,3.7,5.2c0.9,1.1,1.8,2.2,2.7,3.3c2.1,2.4,4.4,4.7,6.9,6.8c3,2.6,6.2,5,9.5,7.1c6.6,4.2,13.9,7.4,21.6,9.3  c6,1.5,12.3,2.4,18.8,2.4c9.8,0,19.3-1.9,27.9-5.3c2.5-1,4.9-2.1,7.2-3.3c4.9-2.6,9.5-5.7,13.7-9.2c0.8-0.7,1.5-1.3,2.3-2  c2.3-2.1,4.6-4.4,6.6-6.9c0,0,0,0,0,0c0.6-0.7,1.3-1.5,1.9-2.3c1.2-1.6,2.4-3.2,3.5-4.8c1.8-2.7,3.4-5.6,4.9-8.5  c0.7-1.3,1.3-2.7,1.9-4.1c0.4-1,0.8-2,1.2-3.1c0.3-0.8,0.6-1.7,0.8-2.5c0,0,0,0,0,0c1-3,1.8-6.1,2.4-9.2c0.1-0.6,0.2-1.2,0.3-1.7  l0.8-4.7l1-5.9C345.4,171.7,343.4,171,341.7,170.1z M187,128.2l0.6,3.7l0,0.3l1,5.9c1-0.2,2.1-0.3,3.2-0.3c1,0,2,0.1,2.9,0.3  l-0.7-3.9h27.4c8.3-1,16.2-3,23.6-6H187z"/>
<g id="XMLID_10_">
	<g id="XMLID_200_">
		<path id="XMLID_203_" class="st8" d="M355.5,132.5c-0.4-0.1-0.8-0.2-1.3-0.3c-1.4-0.3-2.9-0.4-4.4-0.4c-0.2,0-0.5,0-0.7,0    c-3.4,0.1-6.6,0.9-9.5,2.3h8.1l0,0.3l-0.3,1.5l-0.3,2c0.9-0.1,1.8-0.2,2.7-0.2c1.2,0,2.3,0.1,3.4,0.3c7.9,1.6,13.8,8.5,13.8,16.8    c0,9.5-7.7,17.2-17.2,17.2c-0.8,0-1.6-0.1-2.4-0.2c-2.1-0.3-4-0.9-5.8-1.9l-0.3,1.5l-0.8,4.7c0.9,0.4,1.9,0.8,2.9,1    c0.9,0.3,1.9,0.5,2.9,0.6c1.1,0.2,2.2,0.3,3.4,0.3c12.8,0,23.2-10.4,23.2-23.2C373,144.1,365.5,135,355.5,132.5z"/>
	</g>
</g>
<g id="XMLID_17_">
	<g id="XMLID_169_">
		<path id="XMLID_171_" class="st8" d="M200.4,171.3l-0.2-1.3c-1.8,1-3.7,1.7-5.7,2c-0.8,0.1-1.7,0.2-2.6,0.2    c-9.5,0-17.2-7.7-17.2-17.2c0-8.4,6.1-15.4,14-16.9c1-0.2,2.1-0.3,3.2-0.3c1,0,2,0.1,2.9,0.3l-0.7-3.9h7.9c-2.4-1.2-5-1.9-7.8-2.2    c-0.8-0.1-1.6-0.1-2.4-0.1c-1.2,0-2.3,0.1-3.5,0.3c-0.2,0-0.5,0.1-0.7,0.1c-10.8,2-19,11.4-19,22.8c0,12.8,10.4,23.2,23.2,23.2    c1.2,0,2.4-0.1,3.6-0.3c1-0.1,1.9-0.4,2.8-0.6c1-0.3,2-0.7,3-1.1L200.4,171.3L200.4,171.3z"/>
	</g>
</g>
<path id="XMLID_294_" class="st8" d="M345.5,182.6l-0.5,1.9l-2.3,9.3v0l-0.6,2.3l-0.8,3.2l-0.3,1c-0.3,1.2-0.6,2.3-1,3.4  c-0.8,2.7-1.8,5.4-2.9,8c-0.7,1.7-1.5,3.4-2.3,5c-1.8,3.6-3.9,7-6.3,10.3v0c-1.7,2.3-3.5,4.6-5.4,6.7c-4.7,5.2-10.1,9.8-16,13.7  c-2,1.3-4,2.5-6.1,3.5c-4.7,2.5-9.8,4.5-15,6l-13.6,3.9v0.9l-1.5-0.4l-1.5,0.4v-0.9l-13.6-3.9c-3.5-1-7-2.3-10.3-3.7  c-2.1-0.9-4.3-2-6.3-3.1c-7.1-3.9-13.6-8.9-19.1-14.8c-2-2.1-3.8-4.2-5.6-6.5c-2.9-3.8-5.5-8-7.7-12.3c-0.9-1.7-1.7-3.5-2.4-5.3  c-0.7-1.7-1.4-3.5-2-5.3c-0.5-1.5-1-3-1.4-4.6c-0.1-0.4-0.2-0.8-0.3-1.2l-1.2-4.8l-0.2-0.9l-2.1-8.1l-1-3.8l2-5.3l0,0l2.2-5.9v0  l6.5,6l14.3,13.2l1.2,1.1l3.5,0.3l44.9,4.2l48.5-4.5l1.1-1l3-2.7l11.5-10.6l6.5-6l0.1,0.3l2.1,5.7v0L345.5,182.6z"/>
<path id="XMLID_121_" class="st13" d="M362.6,204.9c-5.7,3.5-14,6.5-25.5,6.8c-0.7,1.7-1.5,3.4-2.3,5c-1.3,0-2.7-0.1-4.2-0.2  c-2.3-0.1-4.7-0.4-7.2-0.8c-2.7-0.4-5.5-0.9-8.5-1.6c-11.2-2.6-19.4-6-25.5-9.6c-13.2-3.8-15.4-2.2-15.4-2.2  c-4.4-1.7-11.5,0.6-16.8,2.9c-2,1.1-4.2,2.2-6.7,3.3c-4.9,2.1-10.7,4-17.7,5.7c-5,1.2-9.7,1.9-14,2.3c-2.7,0.2-5.2,0.3-7.6,0.3  c-1.6,0-3.1-0.1-4.5-0.2c-0.9-1.7-1.7-3.5-2.4-5.3c-8.2-1-14.4-3.6-19-6.3c0.5,0.3,1,0.5,1.6,0.8c4.8,2.3,9.9,2.2,15.5,0.3  c0.5-0.2,1-0.4,1.6-0.6c1.8-0.7,3.6-1.5,5.5-2.5c5.2-2.7,10.6-6.6,16.4-11c2.1-1.7,4.3-3.4,6.6-5.2c15.3-12.3,35.7-7.7,41.5-6  c5.8-1.7,26.2-6.3,41.5,6c1.7,1.3,3.3,2.6,4.9,3.9c4.7,3.7,9.1,6.9,13.4,9.6c1.8,1.1,3.5,2.1,5.2,3c0.3,0.2,0.7,0.3,1,0.5  c7.7,3.8,14.7,5,21,2C361.6,205.4,362.1,205.1,362.6,204.9z"/>
<path id="XMLID_137_" class="st8" d="M373.5,194.7c-0.2,0.4-3.3,5.6-10.9,10.2c-5.7,3.5-14,6.5-25.5,6.8c-1,0-2,0-3,0  c-2.2,0-4.6-0.2-7-0.5c-3.8-0.4-7.8-1.1-12.1-2.1c-11.2-2.6-19.4-6-25.5-9.6c-13.2-3.8-15.4-2.2-15.4-2.2  c-4.4-1.7-11.5,0.6-16.8,2.9c-2,1.1-4.2,2.2-6.7,3.3c-4.9,2.1-10.7,4-17.7,5.7c-6.6,1.6-12.6,2.3-17.9,2.5c-2.6,0.1-5.1,0-7.4-0.1  c-1.1-0.1-2.2-0.2-3.2-0.3c-8.2-1-14.4-3.6-19-6.3c-7.6-4.6-10.8-9.9-10.9-10.2c0.1,0,1.2,0.6,12.5,6c4.4,2.1,9.1,2.2,14.1,0.8  c0.3-0.1,0.6-0.2,0.9-0.3c1.8-0.6,3.7-1.3,5.6-2.3c4.3-2.1,8.9-5,13.7-8.5c3.6-2.6,7.4-5.6,11.3-8.8c15.3-12.3,35.7-7.7,41.5-6  c5.8-1.7,26.2-6.3,41.5,6c2.7,2.2,5.3,4.2,7.9,6.2c4.2,3.2,8.3,6.1,12.2,8.4c1.8,1.1,3.6,2,5.3,2.9c0.1,0.1,0.3,0.1,0.4,0.2  c7.2,3.3,13.8,4.3,19.8,1.4C372,195.4,373.3,194.7,373.5,194.7z"/>
<polygon id="XMLID_69_" class="st14" points="259.7,56.3 263.5,59.2 274.1,51.4 274.1,45.7 "/>
<polygon id="XMLID_62_" class="st15" points="259.6,77.8 259.8,77.9 263.6,75.1 263.5,75 263.5,59.2 259.7,56.3 "/>
<polygon id="XMLID_84_" class="st16" points="274.1,82.9 274.1,88.6 288.6,78 284.7,75.1 284.7,75.1 "/>
<polygon id="XMLID_92_" class="st17" points="284.7,75.1 288.6,78 288.7,56.5 284.8,59.4 "/>
<polygon id="XMLID_118_" class="st18" points="259.8,77.9 274.1,88.7 274.1,88.6 274.1,74.5 279.1,70.9 279.1,70.9 279.1,63.6   284.8,59.4 288.7,56.5 274.2,45.7 274.1,45.7 274.1,59.8 269.2,63.5 269.2,63.5 269.2,70.8 269.3,70.9 263.6,75.1 "/>
<polygon id="XMLID_65_" class="st19" points="279.1,70.9 284.7,75.1 284.8,59.4 279.1,63.6 "/>
<polygon id="XMLID_117_" class="st20" points="263.6,75.1 274.1,82.9 274.1,82.9 274.1,74.5 279.1,70.9 279.1,70.9 279.1,63.6   284.8,59.4 284.8,59.3 274.2,51.4 274.1,51.4 274.1,59.8 269.2,63.5 269.2,63.5 269.2,70.8 269.3,70.9 "/>
<polygon id="XMLID_113_" class="st18" points="269.2,70.8 269.3,70.9 274.1,74.5 274.1,74.5 279.1,70.9 279.1,70.9 279.1,63.6   279.1,63.5 274.1,59.8 274.1,59.8 269.2,63.5 269.2,63.5 "/>
<line id="XMLID_79_" class="st21" x1="292.2" y1="53.7" x2="288.6" y2="56.3"/>
<polygon id="XMLID_75_" class="st22" points="274.1,74.5 274.1,82.9 284.7,75.1 284.7,75.1 279.1,70.9 279.1,70.9 "/>
<polyline id="XMLID_36_" class="st21" points="269.2,70.9 274,67.2 274.1,67.2 279.1,63.5 "/>
<line id="XMLID_73_" class="st21" x1="290.2" y1="79.2" x2="288.5" y2="77.9"/>
<polygon id="XMLID_67_" class="st23" points="263.5,75 263.6,75.1 269.3,70.9 269.2,70.8 269.2,63.5 263.5,59.2 "/>
<path id="XMLID_218_" class="st0" d="M532.7,205.2c-3.6,6.8-10.2,11.5-20.4,14.3c-3.2,0.9-9.2,1.5-15.6,2.2  c-9.5,1-20.3,2.2-26.8,4.6c-3.7,1.4-7.3,5.3-10.3,10.2c-2.2,3.4-4.1,7.2-5.8,10.9c-0.2,5.3-1,10.9-2.3,16.8  c-1.7,7.6-4.3,15.5-7.7,23.4c-3.5,8.1-7.7,15.6-12.2,22.2c-3.8,5.5-7.9,10.4-12.1,14.3c-1.9,2.9-4.2,5.4-6.9,7.3  c2.9-9.7,20.7-32.3,21.2-40.6c1-17.3,25.2-85.2,30.1-88.6c0.6-0.4,1.7-0.7,3.2-0.9c1.6,0.3,3.3,0.7,5,1c5,1,10.4,2.2,16.2,2.8l2,0.2  h0c9.5,0.9,19.8,0.4,30.9-3.8c6.4-0.1,11.4-10.4,16.2-14.9C538.2,189.3,536.5,197.9,532.7,205.2z"/>
<polyline id="XMLID_37_" class="st21" points="279,70.9 274.1,67.3 274,67.2 269.2,63.6 "/>
<polygon id="XMLID_40_" class="st24" points="263.5,59.2 269.2,63.5 269.2,63.5 274.1,59.8 274.1,51.4 "/>
<line id="XMLID_74_" class="st21" x1="274.1" y1="91.3" x2="274.1" y2="88.6"/>
<polyline id="XMLID_25_" class="st21" points="274.1,59.8 274.1,67.2 274.1,67.3 274.1,74.5 "/>
<line id="XMLID_48_" class="st21" x1="274.1" y1="45.7" x2="274.1" y2="45"/>
<ellipse id="XMLID_20_" transform="matrix(0.9834 0.1815 -0.1815 0.9834 32.5496 -53.3981)" class="st25" cx="308" cy="151.2" rx="17.3" ry="10"/>
<ellipse id="XMLID_28_" transform="matrix(-0.9834 0.1815 -0.1815 -0.9834 505.5078 256.0416)" class="st25" cx="241" cy="151.2" rx="17.3" ry="10"/>
<path id="XMLID_33_" class="st8" d="M294.6,74.1V74l0-5.8l0-4.4l0-7.5c0-1-0.2-1.9-0.7-2.7c-0.4-0.8-1-1.5-1.8-2.1l-14.5-10.6l0,0  l0,0l-0.1,0c-1-0.8-2.3-1.1-3.5-1.1c-0.7,0-1.4,0.1-2,0.4c0,0,0,0-0.1,0c-0.5,0.2-1,0.5-1.5,0.8l-3.2,2.4l-1.8,1.3l-9.5,7.1  c-1.5,1.1-2.4,2.9-2.4,4.8v0l0.1,20.7V78c0,0.7,0.1,1.4,0.4,2c0.1,0.2,0.2,0.5,0.3,0.7c0.4,0.8,1,1.5,1.8,2.1l0.7,0.5l3.2,2.4  l2.6,1.9l0.2,0.2l7.7,5.7l0,0l0,0l0.1,0.1c0.9,0.7,2,1,3.1,1.1c0.1,0,0.3,0,0.4,0c1.3,0,2.5-0.4,3.6-1.2l5.6-4.2l6-4.5l1.4-1l1.4-1  l0.2-0.1c1.5-1.1,2.4-2.9,2.4-4.8v-0.7L294.6,74.1z M274.2,88.7L274.2,88.7l-12.1-8.9c0,0-0.1,0-0.1-0.1c0,0,0,0-0.1,0  c-0.7-0.5-1.3-1.2-1.6-2c0-0.1-0.1-0.1-0.1-0.2c-0.4-0.8-0.6-1.7-0.6-2.6v0l0-7.9v-1.4l0-6.1v0c0-0.9,0.2-1.8,0.6-2.6  c0.4-0.9,1-1.6,1.8-2.2l1.7-1.3l0,0l1.6-1.2L271,48l3-2.3l0.1,0l12,8.8c0.8,0.6,1.4,1.4,1.8,2.2c0.4,0.8,0.6,1.7,0.6,2.6v0l0.1,18.5  l-0.2,0.1L274.2,88.7z"/>
<path id="XMLID_16_" class="st8" d="M283.5,125.2c0,0,9,10.1,19.9,9.9s27.4,4.3,30.1,11.6s2.8,7.3,2.8,7.3s-9.3-11-26.4-8.8  S285.7,134.4,283.5,125.2z"/>
<path id="XMLID_11_" class="st8" d="M265.2,125.2c0,0-9,10.1-19.9,9.9s-27.4,4.3-30.1,11.6s-2.8,7.3-2.8,7.3s9.3-11,26.4-8.8  S263,134.4,265.2,125.2z"/>
<path id="XMLID_22_" class="st8" d="M277.8,117.3c0,0,1.4,13.6,6.9,18.7C284.8,136,275.3,133.3,277.8,117.3z"/>
<path id="XMLID_23_" class="st8" d="M273.4,117.3c0,0-1.4,13.6-6.9,18.7C266.4,136,275.9,133.3,273.4,117.3z"/>
<circle id="XMLID_26_" class="st8" cx="244.2" cy="151.5" r="7.4"/>
<circle id="XMLID_29_" class="st26" cx="237.5" cy="152.9" r="2.9"/>
<circle id="XMLID_44_" class="st26" cx="240.3" cy="148.9" r="1.4"/>
<circle id="XMLID_71_" class="st8" cx="304.5" cy="150.4" r="7.4"/>
<circle id="XMLID_63_" class="st26" cx="297.7" cy="151.7" r="2.9"/>
<circle id="XMLID_31_" class="st26" cx="300.6" cy="147.8" r="1.4"/>
<g id="XMLID_120_">
	<path id="XMLID_125_" class="st8" d="M351.6,164.7c-1.5,0.4-3.1,0.5-4.4-0.4c-1.6-1.1-2.1-3.4-1.5-6.9c1.3-7,5.4-9.8,7.4-10.7   c0.6-0.3,1.2,0.1,1.4,0.6l0,0c0.1,0.5-0.1,1-0.5,1.2c-1.6,0.7-5.1,3-6.2,9.3c-0.5,2.5-0.2,4.3,0.6,4.9c1,0.7,3.4,0.2,6.1-1.4   c0.6-0.4,0.8-0.8,0.7-1.4c-0.4-1.5-2.4-3-3.6-3.4c-0.4-0.1-0.6-0.5-0.6-0.9l0,0c0-0.7,0.7-1.2,1.3-0.9c2,0.7,4.3,2.7,4.9,4.7   c0.4,1.5-0.1,2.9-1.6,3.7C354.6,163.5,353.1,164.2,351.6,164.7z"/>
</g>
<g id="XMLID_80_">
	<path id="XMLID_130_" class="st8" d="M191,164.7c1.5,0.4,3.1,0.5,4.4-0.4c1.6-1.1,2.1-3.4,1.5-6.9c-1.3-7-5.4-9.8-7.4-10.7   c-0.6-0.3-1.2,0.1-1.4,0.6l0,0c-0.1,0.5,0.1,1,0.5,1.2c1.6,0.7,5.1,3,6.2,9.3c0.5,2.5,0.2,4.3-0.6,4.9c-1,0.7-3.4,0.2-6.1-1.4   c-0.6-0.4-0.8-0.8-0.7-1.4c0.4-1.5,2.4-3,3.6-3.4c0.4-0.1,0.6-0.5,0.6-0.9l0,0c0-0.7-0.7-1.2-1.3-0.9c-2,0.7-4.3,2.7-4.9,4.7   c-0.4,1.5,0.1,2.9,1.6,3.7C188,163.5,189.5,164.2,191,164.7z"/>
</g>
<g id="XMLID_181_">
	<g id="XMLID_250_">
		<path id="XMLID_251_" class="st8" d="M248.2,247.7c0,0-0.5,1-1.3,2.7c-0.4,0.8-0.8,1.7-1.4,2.8c-4.4,9.3-13.2,29.1-16.8,47.1    c-0.5,2.3-0.9,4.7-1.1,6.9c-0.1,0.4-0.1,0.9-0.2,1.3c-2.8,26.5,0,63.6,0,64l0.8,10.3l-6.9-7.7c-0.2-0.2-14.1-15.7-27.6-20.1    c-2.3-0.8-4.6-1.2-6.8-1.2c-0.1,0-0.3,0-0.5,0c0,0-0.1,0-0.1,0c-15.6,0.1-27.5,5.6-27.7,5.7l-8.4,3.9l10.4-23.9l4.7-10.7l0,0l0,0    l6.4,2.8l0,0.1l-8.1,18.5c0.1,0,0.2-0.1,0.3-0.1v0c0.3-0.1,0.6-0.2,1-0.3c0.5-0.1,1.1-0.3,1.7-0.5c0.1,0,0.2-0.1,0.3-0.1    c0,0,0.1,0,0.1,0c0.2,0,0.4-0.1,0.6-0.1c0.2-0.1,0.4-0.1,0.7-0.2c0.5-0.1,0.9-0.2,1.4-0.3c0.2,0,0.4-0.1,0.6-0.1    c0.6-0.1,1.2-0.2,1.8-0.3c0.1,0,0.2,0,0.3,0c0.2,0,0.4-0.1,0.6-0.1c0.1,0,0.3,0,0.4-0.1c0.3,0,0.7-0.1,1-0.2    c0.2,0,0.5-0.1,0.7-0.1c0.1,0,0.1,0,0.2,0c0.9-0.1,1.8-0.3,2.7-0.4c0.4,0,0.7-0.1,1.1-0.1c0.5,0,1-0.1,1.5-0.1h0.1    c0.1,0,0.1,0,0.2,0c0.4,0,0.8-0.1,1.3-0.1c0.3,0,0.5,0,0.8,0c0.3,0,0.5,0,0.8,0c0,0,0,0,0.1,0c0.5,0,1.1,0,1.6,0c0.5,0,1,0,1.5,0    h0.1c0.3,0,0.7,0,1,0c0.3,0,0.6,0,0.8,0.1c0.2,0,0.3,0,0.5,0c0.1,0,0.2,0,0.3,0c0.3,0,0.6,0.1,0.9,0.1c0.7,0.1,1.3,0.2,2,0.4    c0,0,0.1,0,0.1,0c0,0,0,0,0,0c0.7,0.2,1.5,0.4,2.2,0.6c0.4,0.1,0.7,0.2,1.1,0.4c1.9,0.7,3.8,1.5,5.7,2.4c0.4,0.2,0.7,0.4,1.1,0.6    c0.4,0.2,0.7,0.4,1.1,0.6c0.4,0.2,0.7,0.4,1.1,0.6c0.4,0.2,0.8,0.5,1.1,0.7c0.3,0.2,0.7,0.4,1,0.6c0.2,0.1,0.4,0.2,0.6,0.4    c0.3,0.2,0.7,0.4,1,0.7c0.3,0.2,0.7,0.4,1,0.7c1,0.7,1.9,1.4,2.8,2c0.3,0.2,0.6,0.5,0.9,0.7c2.4,1.8,4.5,3.7,6.4,5.4    c0-0.1,0-0.2,0-0.3c-0.1-2.6-0.3-5.6-0.4-8.9c0-0.8,0-1.6-0.1-2.4c0-1-0.1-2-0.1-3c0-1.3-0.1-2.7-0.1-4.1    c-0.2-11.8,0-25.5,1.2-37.3c0.1-0.7,0.2-1.3,0.2-2c0.1-0.5,0.1-1.1,0.2-1.6c0.1-0.7,0.2-1.4,0.3-2.1c0.1-0.5,0.2-1,0.3-1.5    c0.1-0.5,0.2-1,0.3-1.5c0.2-1,0.4-2,0.6-2.9c0.1-0.5,0.2-1,0.3-1.5c0.2-1,0.5-2,0.7-2.9c0.1-0.5,0.3-1,0.4-1.5    c0.5-2,1.1-3.9,1.7-5.8c0.3-1.1,0.7-2.3,1.1-3.4c0.4-1.3,0.8-2.5,1.3-3.8c0-0.1,0.1-0.2,0.1-0.3c0.2-0.7,0.5-1.3,0.7-2    c0.1-0.3,0.2-0.6,0.4-1c0.2-0.6,0.5-1.3,0.7-1.9c0.3-0.7,0.5-1.3,0.8-2c0.3-0.8,0.6-1.6,0.9-2.3c0.7-1.7,1.3-3.4,2-4.9    c0.2-0.5,0.4-0.9,0.6-1.4c0.1-0.3,0.2-0.5,0.4-0.8c1.8-4.3,3.5-7.9,4.9-10.7v0c0.5-1.1,1-2,1.4-2.8c0.8-1.6,1.3-2.6,1.4-2.8    l5.9,3.1L248.2,247.7z"/>
	</g>
</g>
<g id="XMLID_180_">
	<g id="XMLID_252_">
		<path id="XMLID_310_" class="st8" d="M397.2,363.3l-8.4-3.9c-0.1-0.1-7.5-3.4-18.2-5c-3.1-0.4-6.5-0.7-10-0.7c-0.1,0-0.2,0-0.3,0    c-2.4,0-4.8,0.6-7.2,1.5c-13.2,4.8-26.6,19.7-26.8,19.8l-6.9,7.7l0.8-10.3c0-0.4,2.8-37.5,0-64c-0.1-0.5-0.1-1.1-0.2-1.6    c-0.3-2.3-0.7-4.6-1.2-6.9c-4-19.6-14-41.1-17.8-49c-0.2-0.4-0.4-0.7-0.5-1c-0.7-1.4-1.1-2.1-1.1-2.2l3.4-1.8l2.8-1.5    c0.1,0.2,0.7,1.3,1.5,2.9c4.5,9.1,17.6,37.2,20.1,60.4c2,19.2,1.3,43.1,0.6,56c6.3-5.7,16.2-13.5,26.3-16.1    c0.2-0.1,0.5-0.1,0.7-0.2c2-0.5,4-0.7,5.9-0.7c2.3,0,4.5,0.1,6.7,0.3c6.6,0.6,12.3,1.9,16.6,3.1l-4.2-9.5l-3.1-7.1l-0.9-2l5.6-2.4    l0.9-0.4l0.6,1.3l4,9.1L397.2,363.3z"/>
	</g>
</g>
<path id="XMLID_202_" class="st5" d="M383.9,350.2c-5.6-1.7-13.8-3.4-23.3-3.4c-12.1,0-25.2,10-32.9,17c0.7-12.9,1.5-36.8-0.6-56  c-2.5-23.2-15.6-51.3-20.1-60.4c2.4-1.5,4.7-3.2,6.9-5c3.1,7,9.3,21.2,15.7,37.8c9.2,23.5,6.6,64.1,6.6,64.1s15.8-4.6,25.9-6.3  c4.2-0.7,11,0.8,17.5,2.7L383.9,350.2z"/>
<path id="XMLID_160_" class="st9" d="M168.7,193c0,0-26.7,5.4-25.7,42.3C143,235.3,145.5,207.8,168.7,193z"/>
<g id="XMLID_56_">
	<path id="XMLID_182_" class="st8" d="M138.7,243.7c0-0.7-0.1-1.3-0.3-1.9c-0.2-0.6-0.4-1.3-0.8-2.2c-0.7-1.6-1.7-3.8-2.9-6.1   c-0.7-1.4-1.5-2.9-2.4-4.4c-3.3-5.7-7.6-12-12.4-17.2c-1.6-1.7-3.3-3.3-5-4.7c-2.9-2.3-5.9-4-8.8-4.6l-1.8-0.4l-1.3,1.3   c-0.1,0.1-0.1,0.1-0.2,0.2c-1.3,1.3-2.7,2.5-4.1,3.8c-9.8,9-20,17.8-25,21.4c-1,0.8-1.9,1.3-2.4,1.5c-1,0-1.9,0.4-2.6,1.2   c-0.4,0.4-0.7,0.7-0.9,1.2c-0.5,1.2-0.3,3.3,1.6,9.1c0.6,1.8,1.4,4,2.3,6.7c1.1,3.1,2.5,6.8,4.2,11.3c4.5,11.7,9.2,23.4,9.3,23.5   l0.3,0.6l0.5,0.5c0.2,0.2,2.1,2.1,5.8,3c1.2,0.3,2.5,0.5,4.1,0.5c0.9,0,1.8-0.1,2.8-0.2c4-0.6,9.1-2.4,15.1-6.6   c11.5-8,20-19.5,23.6-28.7c0.4-1.1,0.8-2.2,1.1-3.3C138.6,247.2,138.8,245.3,138.7,243.7z M109.4,275.5c-6.2,4.3-10.7,5.5-13.7,5.6   c-2.5,0-4-0.7-4.6-1.1l0,0c-0.3-0.7-0.6-1.4-0.9-2.2c-0.3-0.7-0.6-1.4-0.9-2.2c-0.3-0.7-0.6-1.5-0.9-2.2c-1.4-3.5-2.7-6.9-4-10.2   c-0.3-0.9-0.7-1.8-1-2.6c-0.3-0.7-0.5-1.4-0.8-2.1s-0.5-1.4-0.8-2s-0.5-1.3-0.7-2c-0.5-1.3-0.9-2.6-1.4-3.8   c-0.5-1.2-0.9-2.4-1.3-3.5c-0.9-2.5-1.7-4.7-2.3-6.6c-0.5-1.6-1-3-1.3-4.1c0-0.1-0.1-0.3-0.1-0.4c0.2-0.1,0.5-0.3,0.7-0.4   c0.4-0.2,0.8-0.5,1.3-0.8c0.3-0.2,0.5-0.3,0.8-0.5c0.4-0.3,0.8-0.5,1.2-0.9c0.2-0.1,0.3-0.2,0.5-0.3c0.2-0.2,0.4-0.3,0.7-0.5   c0.6-0.4,1.2-0.9,1.9-1.5c0.9-0.7,1.9-1.5,3-2.4c1.3-1.1,2.8-2.3,4.3-3.7c0.3-0.2,0.5-0.4,0.8-0.7c0.5-0.4,0.9-0.8,1.4-1.2   c0.3-0.3,0.7-0.6,1.1-0.9c2.2-1.9,4.6-4.1,7.2-6.5l3.1-2.8c0.2-0.2,0.3-0.3,0.5-0.5c0.2-0.1,0.3-0.3,0.5-0.4   c0.8-0.7,1.6-1.5,2.4-2.2c0.2,0.1,0.4,0.2,0.6,0.3c1.5,0.7,3,1.7,4.5,3c0.2,0.2,0.4,0.4,0.6,0.6c0.2,0.2,0.4,0.4,0.6,0.6   c0.9,0.8,1.7,1.7,2.6,2.6c0.4,0.4,0.8,0.9,1.2,1.3c0,0,0.1,0.1,0.1,0.1c0.2,0.3,0.5,0.5,0.7,0.8c0.5,0.5,0.9,1.1,1.4,1.7   c0.4,0.5,0.8,1.1,1.2,1.6c0.3,0.3,0.5,0.7,0.8,1c0.2,0.3,0.4,0.6,0.6,0.9c0,0,0.1,0.1,0.1,0.1c0,0,0,0,0,0   c2.5,3.6,4.8,7.3,6.6,10.6c0,0,0,0.1,0,0.1h0c0.6,1.2,1.2,2.3,1.7,3.3c0.1,0.3,0.2,0.5,0.4,0.8c0.1,0.2,0.2,0.3,0.3,0.5   c0.4,0.9,0.8,1.8,1.1,2.5c0.1,0.2,0.1,0.3,0.2,0.5c0.1,0.3,0.2,0.7,0.3,1c0.1,0.3,0.1,0.6,0.1,1   C131.7,250.1,124.3,265.1,109.4,275.5z"/>
	<path id="XMLID_292_" class="st27" d="M109.4,275.5c-11.2,7.8-16.8,5.5-18.3,4.5l0,0c-7.2-17.7-14.6-37.3-16.3-43.8   c3.7-2.1,10.7-7.4,24.8-20.3c1.2-1,2.4-2.1,3.6-3.3c0.9-0.9,1.9-1.7,2.9-2.7c10.4,4.2,23.6,27.1,25.6,33.8   C132.8,247.8,125.4,264.3,109.4,275.5z"/>
</g>
<path id="XMLID_282_" class="st5" d="M109.4,275.5c-11.2,7.8-16.8,5.5-18.3,4.5c0,0,24.9-16.7,25.3-27.3c0.3-8.8-9.7-32.1-13.1-40  c0.9-0.9,1.9-1.7,2.9-2.7c10.4,4.2,23.6,27.1,25.6,33.8C132.8,247.8,125.4,264.3,109.4,275.5z"/>
<path id="XMLID_281_" class="st28" d="M84.6,254.1l6.5,25.9c-7.2-17.7-14.6-37.3-16.3-43.8c3.7-2.1,10.7-7.4,24.8-20.3l3.1-2.8  L90.9,227C84.5,234.5,82.2,244.6,84.6,254.1z"/>
<path id="XMLID_185_" class="st28" d="M107.2,215.4c0,0,0.8,7.6-8.8,14.1s-19.4,7.2-19.4,7.2S108.5,239.4,107.2,215.4z"/>
<g id="XMLID_188_">
	<path id="XMLID_279_" class="st8" d="M114.7,207.2l-0.4-0.2c-1,2.2-2,4.3-3.1,6.3c-9.9,17.8-24.2,24.8-35.1,27.4   c-2.5,0.6-4.9,1-7,1.3c0.6,1.8,1.3,4,2.3,6.7c2.1-0.3,4.5-0.8,7-1.4c1.6-0.4,3.2-0.9,4.8-1.5c10.1-3.4,23.3-11,33-27.4   c1.2-2,2.4-4.2,3.5-6.5L114.7,207.2z"/>
</g>
<ellipse id="XMLID_50_" transform="matrix(0.9491 -0.3149 0.3149 0.9491 -77.4224 41.7276)" class="st29" cx="90.4" cy="260.5" rx="2.8" ry="11.8"/>
<g id="XMLID_298_">
	<path id="XMLID_308_" class="st8" d="M472.7,231.6c-0.1-0.1-0.2-0.2-0.3-0.3c-0.6-0.6-1.5-0.9-2.3-0.9c-0.7-0.3-1.9-1.1-3.3-2.2   c-5.4-4-15.1-12.5-24.5-21c-1.3-1.2-2.7-2.4-4-3.7l-0.1-0.1l-1.2-1.1l-1.8,0.4c-3,0.6-5.9,2.3-8.8,4.6c-1.7,1.4-3.4,3-5,4.7   c-3.9,4.1-7.5,9.1-10.4,13.8c-1.1,1.7-2,3.3-2.9,4.9c-1.2,2.2-2.3,4.2-3.1,5.9c-1.1,2.3-1.9,4.1-2.2,5.3c-0.2,0.7-0.3,1.6-0.3,2.5   c0,1.6,0.3,3.5,0.9,5.5c0.3,1,0.7,2.1,1.1,3.3c3.7,9.1,12.1,20.3,23.3,28.2c6.5,4.5,11.8,6.3,16,6.7c0.7,0.1,1.3,0.1,1.9,0.1   c2.1,0,3.8-0.3,5.2-0.8c2.9-1,4.4-2.5,4.6-2.6l0.5-0.5l0.3-0.6c0.1-0.1,4.8-11.8,9.3-23.5c1.7-4.5,3.1-8.2,4.2-11.3   c1-2.7,1.7-4.9,2.3-6.7C474.6,233.7,473.8,232.9,472.7,231.6z M462.7,247.3c-0.4,1.2-0.9,2.4-1.3,3.7c-0.3,0.9-0.7,1.9-1.1,2.9   c-0.3,0.8-0.6,1.5-0.9,2.3c0,0,0,0,0,0c0,0.1-0.1,0.2-0.1,0.3c-0.3,0.8-0.6,1.6-0.9,2.4c-0.3,0.9-0.7,1.8-1,2.7   c-1.5,3.8-3,7.8-4.6,11.8c-0.3,0.7-0.6,1.5-0.9,2.2c-0.3,0.7-0.6,1.5-0.9,2.2c-0.3,0.7-0.6,1.4-0.9,2.2l0,0   c-0.6,0.4-1.7,0.9-3.5,1.1c-3,0.2-7.8-0.7-14.8-5.6c-14.5-10.1-22-24.7-22.4-30.3c0-0.6,0-1,0.1-1.4c0.1-0.3,0.2-0.6,0.3-1   c0,0,0,0,0,0c0,0,0,0,0-0.1c0.2-0.5,0.4-1.1,0.7-1.7c0.1-0.3,0.3-0.6,0.4-0.9c0.1-0.2,0.2-0.4,0.3-0.5c0.2-0.5,0.5-1,0.8-1.6   c0.3-0.5,0.6-1.1,0.9-1.7c0.6-1.2,1.3-2.4,2.1-3.7c1.6-2.6,3.3-5.4,5.3-8.1c0.2-0.3,0.4-0.6,0.7-0.9c0.2-0.3,0.5-0.6,0.7-1h0   c0,0,0,0,0-0.1c0.4-0.5,0.8-1.1,1.2-1.6c0.5-0.6,0.9-1.1,1.4-1.7c0.2-0.3,0.5-0.5,0.7-0.8c0,0,0-0.1,0.1-0.1   c0.4-0.5,0.8-0.9,1.2-1.3c0.4-0.5,0.8-0.9,1.3-1.3c0.2-0.2,0.4-0.4,0.6-0.6c0.2-0.2,0.5-0.4,0.7-0.7c0.2-0.2,0.4-0.4,0.6-0.6   c0.2-0.2,0.4-0.4,0.6-0.6c1.5-1.3,3-2.3,4.5-3c0.2-0.1,0.4-0.2,0.6-0.3c0.8,0.7,1.5,1.4,2.2,2.1c0.2,0.2,0.4,0.4,0.6,0.6   c0.2,0.2,0.3,0.3,0.5,0.5l3.1,2.8c6.2,5.6,11,9.8,14.8,12.9c1.1,0.9,2,1.7,2.9,2.4c0.6,0.5,1.2,0.9,1.7,1.3   c0.3,0.2,0.6,0.5,0.9,0.7c0.2,0.1,0.3,0.2,0.5,0.3c1.4,1,2.5,1.7,3.4,2.3c0.2,0.1,0.4,0.3,0.6,0.4c0,0.1-0.1,0.2-0.1,0.4   c-0.1,0.3-0.2,0.7-0.3,1.1c-0.1,0.2-0.1,0.5-0.2,0.7c-0.2,0.7-0.5,1.5-0.8,2.3C464.3,242.6,463.6,244.8,462.7,247.3z"/>
	<path id="XMLID_302_" class="st27" d="M431.7,275.5c11.2,7.8,16.8,5.5,18.3,4.5l0,0c7.2-17.7,14.6-37.3,16.3-43.8   c-3.7-2.1-10.7-7.4-24.8-20.3c-1.2-1-2.4-2.1-3.6-3.3c-0.9-0.9-1.9-1.7-2.9-2.7c-10.4,4.2-23.6,27.1-25.6,33.8   C408.2,247.8,415.7,264.3,431.7,275.5z"/>
</g>
<path id="XMLID_286_" class="st28" d="M431.7,275.5c11.2,7.8,16.8,5.5,18.3,4.5c0,0-24.9-16.7-25.3-27.3c-0.3-8.8,9.7-32.1,13.1-40  c-0.9-0.9-1.9-1.7-2.9-2.7c-10.4,4.2-23.6,27.1-25.6,33.8C408.2,247.8,415.7,264.3,431.7,275.5z"/>
<path id="XMLID_225_" class="st5" d="M456.5,254.1L450,280c7.2-17.7,14.6-37.3,16.3-43.8c-3.7-2.1-10.7-7.4-24.8-20.3l-3.1-2.8  l11.8,13.9C456.6,234.5,458.9,244.6,456.5,254.1z"/>
<g id="XMLID_189_">
	<path id="XMLID_193_" class="st8" d="M421.3,211.9c1.1,2.3,2.3,4.5,3.5,6.5c9.7,16.4,23,23.9,33,27.4c1.7,0.6,3.3,1.1,4.8,1.5   c2.5,0.6,4.8,1.1,7,1.4c1-2.7,1.7-4.9,2.3-6.7c-2.1-0.2-4.4-0.6-7-1.3c-10.9-2.7-25.2-9.6-35.1-27.4c-1.1-2-2.1-4-3.1-6.3l-0.4,0.2   L421.3,211.9z"/>
</g>
<g id="XMLID_287_">
	<g id="XMLID_311_">
		<path id="XMLID_324_" class="st8" d="M360.9,348.2c0,0.4-0.3,2.4-0.7,5.6c-1.7,13-6.4,45.2-14.1,63.8c-1,2.4-2,4.5-3.1,6.4    c-0.8,1.4-1.6,2.6-2.5,3.6c-4.8,5.7-11.5,9.1-18.2,11c-2.3,0.7-5.4,1.2-8.8,1.6c-2.8,0.3-5.8,0.5-8.9,0.7    c-13.6,0.7-28.3,0.1-28.8,0.1l0.7-7c0.2,0,17.4,1,33.5-1.3c3.3-0.5,6.6-1,9.6-1.8c6.3-1.6,11.8-3.9,15-7.3    c0.2-0.2,0.4-0.4,0.5-0.6c1.3-1.6,2.6-3.7,3.8-6.4c6.7-14.8,11.7-44,14-61.4c0.4-2.9,0.7-5.5,0.9-7.6c0-0.1,0-0.2,0-0.3l0.7,0.1    L360.9,348.2z"/>
	</g>
</g>
<g id="XMLID_284_">
	<g id="XMLID_264_">
		<path id="XMLID_289_" class="st8" d="M270.9,441c-0.5,0-11.9,0.5-23.8,0.1c-2.9-0.1-5.9-0.2-8.7-0.4c-5.5-0.4-10.5-1-14-2.1    c-6.8-2-13.4-5.4-18.2-11c-0.9-1.1-1.8-2.4-2.7-3.9c-1.2-2-2.3-4.4-3.3-7c-7.5-18.7-12.1-50.1-13.7-62.9c0-0.1,0-0.1,0-0.2    c-0.4-3-0.6-5-0.6-5.4l2.7-0.3l4.1-0.4l0.2,0c0,0,0,0,0,0v0c0.2,2.1,0.5,4.6,0.9,7.5c2.3,17.4,7.3,46.9,14.1,61.7    c1.2,2.6,2.5,4.8,3.8,6.4c0.2,0.2,0.4,0.4,0.5,0.6c4.1,4.3,12,6.9,20.7,8.5c3,0.5,6.1,0.9,9.2,1.3c14.4,1.4,28.1,0.7,28.2,0.6    L270.9,441z"/>
	</g>
</g>
<g id="XMLID_291_">
	<path id="XMLID_326_" class="st8" d="M324.7,417c1.6,1.1,2.1,3.2,1,4.9l-6,9.1l-6.2,9.3c-2.8,0.3-5.8,0.5-8.9,0.7l5.4-8.2l9.8-14.7   C320.9,416.4,323.1,415.9,324.7,417L324.7,417z"/>
</g>
<g id="XMLID_312_">
	<path id="XMLID_330_" class="st8" d="M247.1,441.1c-2.9-0.1-5.9-0.2-8.7-0.4l-5.7-8.5l-6.8-10.3c-1.1-1.6-0.6-3.8,1-4.9h0   c1.6-1.1,3.8-0.6,4.9,1l10.2,15.4L247.1,441.1z"/>
</g>
<g id="XMLID_303_">
	<path id="XMLID_323_" class="st8" d="M273.6,389.2L273.6,389.2c-1.9,0-3.5-2-3.5-4.5v-56.6c0-2.5,1.6-4.5,3.5-4.5l0,0   c1.9,0,3.5,2,3.5,4.5v56.6C277.1,387.2,275.5,389.2,273.6,389.2z"/>
</g>
<g id="XMLID_35_">
	<path id="XMLID_38_" class="st8" d="M253.9,346L253.9,346c0-1.9,1.2-3.5,2.6-3.5h33.3c1.5,0,2.6,1.6,2.6,3.5l0,0   c0,1.9-1.2,3.5-2.6,3.5h-33.3C255.1,349.5,253.9,347.9,253.9,346z"/>
</g>
<g id="XMLID_42_">
	<path id="XMLID_45_" class="st8" d="M249.7,367L249.7,367c0-1.9,1.5-3.5,3.3-3.5h41.2c1.8,0,3.3,1.6,3.3,3.5l0,0   c0,1.9-1.5,3.5-3.3,3.5H253C251.2,370.5,249.7,368.9,249.7,367z"/>
</g>
<path id="XMLID_335_" class="st8" d="M323.2,299.3l-4.4,0.7l-26.1,4c-9-0.1-16.3-7.5-16.3-16.6v-18.7c0-3.7,1.2-7.2,3.3-10  c2.3-3,5.5-5.2,9.4-6.1l11.3-2.7l4.1-1v0l0.2,0l0,0l-2-2.9l-2.2-3.3l-13,3.1c-6.4,1.5-11.7,5.6-14.9,10.9  c-3.2-5.4-8.4-9.4-14.9-10.9l-6.5-1.5l-3.3,3.3l-2.5,2.5l1.5,0.3l9.2,2.2c4.4,1,8,3.8,10.3,7.4c1.6,2.6,2.5,5.6,2.5,8.8v18.7  c0,9.1-7.3,16.5-16.3,16.6l-23.9-3.7l-2.8-0.4l-1,6.9l2.6,0.4l24.2,3.8l0.5,0c8.6,0,16.2-4.7,20.3-11.6c4.1,6.9,11.7,11.6,20.3,11.6  h0.3l26.8-4.1l4.4-0.7L323.2,299.3z"/>
<polyline id="XMLID_337_" class="st21" points="224,313.6 225,306.8 225.9,299.9 226.4,296.7 "/>
<polyline id="XMLID_329_" class="st21" points="253.1,242.3 251.2,244.2 245.4,250 241,254.4 "/>
<polyline id="XMLID_328_" class="st21" points="308,253.8 304.7,248.9 300.5,242.7 297.1,237.8 "/>
<polyline id="XMLID_325_" class="st21" points="325.1,311 324.3,306.2 323.2,299.3 322.1,292.8 "/>
<g id="XMLID_318_">
	<path id="XMLID_354_" class="st8" d="M396,517.3c0,0.6-0.2,1.3-0.5,1.8c-0.5,0.9-1.2,2-2,3.2c-1.1,1.7-2.4,3.7-3.9,5.9   c-6.1,8.9-15.1,20.6-24.9,28c-9.9,7.5-26,12.6-45.6,12.6c-16.2,0-34.8-3.5-54.1-12.2c-39.8-17.9-53.5-80-55.6-91   c-0.2-0.8-0.3-1.4-0.3-1.6l6.9-1.2c0,0.1,0.3,1.5,0.8,3.9c3.3,14.9,17.2,68.3,51.1,83.5c38.4,17.2,75.6,13.2,92.6,0.4   c12.8-9.7,24.7-28,29-35.1c1-1.6,3.1-2.1,4.7-1.2C395.3,514.9,396,516,396,517.3z"/>
</g>
<g id="XMLID_313_">
	<path id="XMLID_353_" class="st8" d="M342.6,519.9c-0.5,1.8-2.3,2.8-4.1,2.4c-2-0.4-3.2-2.4-2.6-4.4c0.9-3.1,2.6-8.6,5.7-18.4   c5.1-15.8,0.2-37.9-0.7-41.7c-0.1-0.3-0.1-0.5-0.1-0.5l6.8-1.8c0,0.2,0.2,0.8,0.5,1.9c1.1,4.6,3.5,16.9,2.8,29.6   c-0.1,2.4-0.4,4.8-0.8,7.2c-0.4,2.5-1,5-1.7,7.4C345.1,511.5,343.4,517,342.6,519.9z"/>
</g>
<g id="XMLID_322_">
	<path id="XMLID_352_" class="st8" d="M413.5,553c-1,1.2-3.3,3.7-6.2,3.7c-0.4,0-0.7,0-1.1-0.1c-3.4-0.8-4.5-4.4-5.8-9   c-1.7-5.9-3.9-13.8-10.8-19.4c-0.8-0.7-1.8-1.3-2.8-2l3.7-6c1.1,0.7,2,1.3,3,2.1c9,7,11.9,17.1,13.7,23.3c0.3,1,0.6,2.1,0.9,3   c0.1-0.1,0.1-0.2,0.2-0.3c7.7-8.5,2.1-47.7-8.7-60.8c-6.1-7.3-31.2,1.3-48.4,10.2c-0.7,0.4-1.5,0.8-2.2,1.2l-3.3-6.1   c0.7-0.4,2.1-1.1,4.1-2.2c12-6,44.5-20.5,55.1-7.5C416.3,496.8,425,540.2,413.5,553z"/>
</g>
<path id="XMLID_86_" class="st1" d="M251.3,326.4l0.9,9.3c0.3,2.7,2.7,4.7,5.5,4.5l9.6-1l-9.1-1.2c-1.8-0.3-3.4-1.5-4-3.3  L251.3,326.4z"/>
<path id="XMLID_87_" class="st1" d="M247.4,348.4l0.9,9.3c0.3,2.7,2.7,4.7,5.5,4.5l9.6-1l-9.1-1.2c-1.8-0.3-3.4-1.5-4-3.3  L247.4,348.4z"/>
<path id="XMLID_89_" class="st1" d="M278.1,327.5l-0.4,9.4c-0.1,2.7,2,5.1,4.8,5.2l9.7,0.4l-8.8-2.5c-1.8-0.5-3.1-2-3.5-3.8  L278.1,327.5z"/>
<path id="XMLID_94_" class="st1" d="M278.1,348.5l-0.4,9.4c-0.1,2.7,2,5.1,4.8,5.2l9.7,0.4l-8.8-2.5c-1.8-0.5-3.1-2-3.5-3.8  L278.1,348.5z"/>
<path id="XMLID_100_" class="st1" d="M315.5,313.6c0,0-9.5,3.5-20.3,2s-0.5,10.5,3.9,22.2s11.1,41.5,10.7,44.9s9.9-24,8.5-34.6  C317,337.7,315.5,313.6,315.5,313.6z"/>
<path id="XMLID_221_" class="st0" d="M99.7,208.5c-1.6,2.7-6.2,7.5-6.4,7.8c-0.2,0.3-11.4,9-17.6,13.8c-0.8-0.6-1.6-1-2.5-1.3  c-6.6-2.4-17.3-3.6-26.8-4.6c-6.4-0.7-12.4-1.3-15.6-2.2c-4-1.1-7.5-2.5-10.5-4.3c0,0,22.7,4.8,33.9,1.3c8.9-2.8,6.7-9.3,6.3-12.2  c3.7-0.6,7.2-1.3,10.5-2c10.3-2.1,18.4-3.8,23.6-0.3C96.2,205.6,97.9,207,99.7,208.5z"/>
<path id="XMLID_115_" class="st9" d="M381,253.8c0,0-12.8,1-15.5,13.7c-2.7,12.7-2.3,13.6-2.3,13.6S366.2,262.3,381,253.8z"/>
<ellipse id="XMLID_52_" class="st0" cx="306.4" cy="618.7" rx="131.9" ry="9.5"/>
<g id="XMLID_57_">
	<path id="XMLID_285_" class="st30" d="M348.3,397.7c0,0-50.3-16.9-76.6-17.6c-26.3-0.7-75.4,19.5-75.4,19.5s5.4,52.8,14.4,60.8   c9,8,59,17,61.7,17s66.3-16,73.1-21C352.2,451.4,348.3,397.7,348.3,397.7z M343.3,453.7c-6.1,4.2-64.7,19.4-71,20.3   c-5.6-0.4-51.9-9.5-59.3-16.1c-5.3-4.7-10.6-34.7-13-56c10.1-4,49.5-18.9,71.6-18.3C294,384.1,335,397,345,400.3   c0.3,4.3,0.8,14,0.9,24C346.2,448.9,343.7,453.1,343.3,453.7z"/>
	<path id="XMLID_60_" class="st8" d="M352.9,425.1c-0.1-14-1.1-27.6-1.1-27.7l-0.2-2.3l-2.2-0.7c-2.1-0.7-51.1-17.1-77.7-17.8   c-26.8-0.7-74.8,18.9-76.8,19.8l-2.4,1l0.3,2.6c0.9,9.1,6,54.6,15.6,63.1c9.9,8.9,60.6,17.9,64,17.9c3.2,0,67.5-16,75.1-21.7   C350.3,457.2,353.1,451.5,352.9,425.1z M213,457.8c-5.3-4.7-10.6-34.7-13-56c10.1-4,49.5-18.9,71.6-18.3   C294,384.1,335,397,345,400.3c0.3,4.3,0.8,14,0.9,24c0.3,24.6-2.2,28.8-2.6,29.4c-6.1,4.2-64.7,19.4-71,20.3   C266.7,473.5,220.4,464.4,213,457.8z"/>
	<path id="XMLID_384_" class="st30" d="M343.3,453.7c-4.8,3.4-43,13.7-61.5,18.2c0,0-0.1,0-0.1,0c-4.7,1.1-8.1,1.9-9.4,2   c-4.6-0.4-36.8-6.5-52.2-12.4c0,0,0,0,0,0c-3.3-1.3-5.8-2.5-7.1-3.7c-0.9-0.8-1.7-2.2-2.6-4.2c-4.1-9.4-7.9-30.9-10-48.2   c-0.2-1.2-0.3-2.4-0.4-3.6c3.7-1.5,11.2-4.3,20.4-7.4c0.3-0.1,0.5-0.2,0.5-0.2c16-5.3,36.8-11.1,50.6-10.7   c14.4,0.4,36.3,5.8,52.9,10.5h0c9.3,2.6,16.9,5.1,20.5,6.2c0.3,4.3,0.8,14,0.9,24C346.2,448.9,343.7,453.1,343.3,453.7z"/>
</g>
<path id="XMLID_68_" class="st8" d="M397.2,363.3c0,0-29.2,5.1-41.2,7.1V356c0,0,2-6.5,7.2-5.8s18.9,4,22.4,5.2  C389,356.5,397.2,363.3,397.2,363.3z"/>
<path id="XMLID_98_" class="st8" d="M150.3,363.3c0,0,28.6,15.8,39.8,12.1c0,0-1.2-5.4,0-11.7c1.2-6.3,1.3-13-3.7-13.6  c-5.1-0.7-26.9,4.1-29.1,5.9C155,357.8,150.3,363.3,150.3,363.3z"/>
<path id="XMLID_372_" class="st31" d="M284.9,434.2c-0.3,19.4-11.7,34.4-11.7,34.4s-41.6-5.7-52.3-10.5c-3.6-1.6-7.3-3.2-10.6-4.5  c-4.1-9.4-7.9-30.9-10-48.2c0.9-0.3,2-0.6,3.2-0.8c0,0,60.4-19.7,67.2-17.2S285.2,414.8,284.9,434.2z"/>
<path id="XMLID_307_" class="st32" d="M220.1,461.5c-3.3-1.3-5.8-2.5-7.1-3.7c-0.9-0.8-1.7-2.2-2.6-4.2c-4.1-9.4-7.9-30.9-10-48.2  c-0.2-1.2-0.3-2.4-0.4-3.6c3.7-1.5,11.2-4.3,20.4-7.4c-2.7,0.9-14.1,5.3-13.4,13.4C207.8,416.6,211.9,457.4,220.1,461.5z"/>
<path id="XMLID_381_" class="st33" d="M343.3,453.7c-4.8,3.4-43,13.7-61.5,18.2c2.3-0.8,53-18.5,55.9-23c3-4.7,0.3-43-1.3-47  c-0.7-1.7-6-4.8-11.8-7.8c9.3,2.6,16.9,5.1,20.5,6.2c0.3,4.3,0.8,14,0.9,24C346.2,448.9,343.7,453.1,343.3,453.7z"/>
<path id="XMLID_104_" class="st8" d="M6.1,205.2c0,0,3.3-1.7,3.5-4.6s-1.2-7-7.3-8.9v-2.2c0,0,9.2,4.3,9.2,8.9  c0,4.7-4.6,8.5-4.6,8.5L6.1,205.2z"/>
<polygon id="XMLID_105_" class="st8" points="12,213.1 15.1,208.4 13,214.2 16.5,210.8 16.1,215.4 "/>
<path id="XMLID_107_" class="st8" d="M533.8,205.2c0,0-3.3-1.7-3.5-4.6c-0.2-2.8,1.2-7,7.3-8.9v-2.2c0,0-9.2,4.3-9.2,8.9  c0,4.7,4.6,8.5,4.6,8.5L533.8,205.2z"/>
<polygon id="XMLID_103_" class="st8" points="527.9,213.1 524.8,208.4 526.9,214.2 523.4,210.8 523.8,215.4 "/>
<path id="XMLID_108_" class="st8" d="M117.2,274.9l19,23.8c0,0-12.2-18.3-12.6-26.2s-6.4,1.1-6.4,1.1V274.9z"/>
<polygon id="XMLID_134_" class="st8" points="415.6,270.5 404.7,290.2 421.3,273.4 "/>
<path id="XMLID_430_" class="st8" d="M345.9,407.5c-9.4-5-72.3-18.3-72.3-18.3s0,0,4.9,0s67.4,14.7,67.4,14.7V407.5z"/>
<polygon id="XMLID_431_" class="st8" points="198.1,404.4 249.7,391 198.1,407.5 "/>
<polygon id="XMLID_432_" class="st8" points="348.3,411.9 333.9,407.5 348.3,415.2 "/>
<polygon id="XMLID_433_" class="st8" points="200,411.3 217.4,405.9 199.3,415.2 "/>
</svg>