<?xml version="1.0" encoding="utf-8"?>
<!-- Generator: Adobe Illustrator 19.0.0, SVG Export Plug-In . SVG Version: 6.00 Build 0)  -->
<svg version="1.1" id="Layer_1" xmlns="http://www.w3.org/2000/svg" xmlns:xlink="http://www.w3.org/1999/xlink" x="0px" y="0px"
	 viewBox="-458 261.4 41.3 39.6" style="enable-background:new -458 261.4 41.3 39.6;" xml:space="preserve">
<style type="text/css">
	.st0{fill:#662D91;}
	.st1{fill:#FFFFFF;}
</style>
<path id="XMLID_22_" class="st0" d="M-434.2,263.3l4.5,9.1l10.1,1.5c2.8,0.4,4,3.9,1.9,5.9l-7.3,7.2l1.7,10c0.5,2.8-2.5,5-5,3.6
	l-9-4.7l-9,4.7c-2.5,1.3-5.5-0.8-5-3.6l1.7-10l-7.4-7.2c-2.1-2-0.9-5.5,1.9-5.9l10.1-1.5l4.5-9.1
	C-439.2,260.8-435.5,260.8-434.2,263.3z"/>
<g id="XMLID_35_">
	<path id="XMLID_8_" class="st1" d="M-447.4,290.3v-5.7h2c0.6,0,1.1,0.1,1.5,0.4c0.3,0.3,0.5,0.6,0.5,1.2c0,0.3-0.1,0.5-0.2,0.7
		s-0.3,0.4-0.6,0.5c0.3,0.1,0.5,0.2,0.7,0.5c0.2,0.2,0.3,0.5,0.3,0.8c0,0.5-0.2,0.9-0.5,1.2c-0.3,0.3-0.8,0.4-1.5,0.4H-447.4z
		 M-446.4,287h1c0.3,0,0.5-0.1,0.7-0.2c0.2-0.1,0.3-0.3,0.3-0.6c0-0.3-0.1-0.5-0.2-0.6c-0.2-0.2-0.5-0.2-0.8-0.2h-1V287z
		 M-446.4,287.7v1.8h1.1c0.3,0,0.6-0.1,0.7-0.2c0.2-0.2,0.3-0.4,0.3-0.6c0-0.6-0.3-0.9-0.9-0.9h-1.2V287.7z"/>
	<path id="XMLID_12_" class="st1" d="M-440.2,286.9c-0.1,0-0.3,0-0.4,0c-0.4,0-0.7,0.2-0.9,0.5v2.9h-1v-4.2h1v0.5
		c0.2-0.4,0.5-0.6,1-0.6c0.1,0,0.2,0,0.3,0.1V286.9z"/>
	<path id="XMLID_14_" class="st1" d="M-437.2,290.3c0-0.1-0.1-0.2-0.1-0.4c-0.3,0.3-0.7,0.5-1.1,0.5s-0.8-0.1-1-0.4
		c-0.3-0.2-0.4-0.5-0.4-0.9c0-0.5,0.2-0.8,0.5-1c0.3-0.2,0.8-0.4,1.4-0.4h0.6v-0.3c0-0.2-0.1-0.4-0.2-0.5s-0.3-0.2-0.6-0.2
		c-0.2,0-0.4,0.1-0.5,0.2s-0.2,0.2-0.2,0.4h-0.9c0-0.2,0.1-0.4,0.2-0.7c0.2-0.2,0.4-0.4,0.6-0.5c0.2-0.1,0.6-0.2,0.9-0.2
		c0.5,0,0.9,0.1,1.2,0.4c0.3,0.3,0.4,0.6,0.5,1.1v1.9c0,0.4,0.1,0.7,0.2,0.9v0.1C-436.1,290.3-437.2,290.3-437.2,290.3z
		 M-438.2,289.6c0.2,0,0.4,0,0.5-0.1c0.1-0.1,0.3-0.2,0.4-0.4v-0.8h-0.5c-0.4,0-0.6,0.1-0.8,0.2c-0.2,0.1-0.3,0.3-0.3,0.5
		s0.1,0.3,0.2,0.4C-438.6,289.5-438.4,289.6-438.2,289.6z"/>
	<path id="XMLID_17_" class="st1" d="M-434.5,286v0.5c0.3-0.4,0.7-0.6,1.2-0.6c0.9,0,1.3,0.5,1.3,1.5v2.8h-1v-2.7
		c0-0.3-0.1-0.5-0.2-0.6c-0.1-0.1-0.3-0.2-0.6-0.2c-0.4,0-0.7,0.2-0.9,0.5v3h-1V286C-435.7,286-434.5,286-434.5,286z"/>
	<path id="XMLID_19_" class="st1" d="M-431.1,288.1c0-0.7,0.2-1.2,0.5-1.6c0.3-0.4,0.7-0.6,1.2-0.6c0.4,0,0.8,0.2,1.1,0.5v-2.2h1v6
		h-0.9v-0.4c-0.4,0.4-0.8,0.6-1.3,0.6s-0.9-0.2-1.2-0.6C-431,289.4-431.1,288.8-431.1,288.1z M-430.2,288.2c0,0.4,0.1,0.8,0.2,1
		c0.2,0.2,0.4,0.4,0.7,0.4c0.4,0,0.7-0.2,0.9-0.5v-1.8c-0.2-0.3-0.5-0.5-0.8-0.5c-0.3,0-0.5,0.1-0.7,0.4
		C-430.1,287.4-430.2,287.7-430.2,288.2z"/>
</g>
<g id="XMLID_36_">
	<path id="XMLID_2_" class="st1" d="M-441.1,282.9h-1l-2.5-4v4h-1v-5.7h1l2.5,4.1v-4.1h1V282.9z"/>
	<path id="XMLID_4_" class="st1" d="M-436.6,280.4h-2.3v1.8h2.7v0.8h-3.7v-5.7h3.7v0.8h-2.7v1.6h2.3V280.4z"/>
	<path id="XMLID_6_" class="st1" d="M-431,281.4l0.9-4.3h1l-1.3,5.7h-1l-1.1-4.2l-1.1,4.2h-1l-1.3-5.7h1l0.9,4.3l1.1-4.3h0.8
		L-431,281.4z"/>
</g>
</svg>