<?xml version="1.0" encoding="utf-8"?>
<!-- Generator: Adobe Illustrator 19.0.0, SVG Export Plug-In . SVG Version: 6.00 Build 0)  -->
<svg version="1.1" id="Layer_1" xmlns="http://www.w3.org/2000/svg" xmlns:xlink="http://www.w3.org/1999/xlink" x="0px" y="0px"
	 viewBox="0 0 32 32" style="enable-background:new 0 0 32 32;" xml:space="preserve">
<style type="text/css">
	.st0{clip-path:url(#XMLID_5_);}
	.st1{fill:#FFFFFF;}
	.st2{fill:#BD0034;}
	.st3{fill:#1A237B;}
</style>
<g id="XMLID_3_">
	<defs>
		<circle id="XMLID_1_" cx="16" cy="16" r="15.8"/>
	</defs>
	<clipPath id="XMLID_5_">
		<use xlink:href="#XMLID_1_"  style="overflow:visible;"/>
	</clipPath>
	<g id="XMLID_2_" class="st0">
		<polygon id="XMLID_26_" class="st1" points="13.7,0 13.7,13.7 -11.8,13.7 -11.8,11.7 1.9,11.7 -11.8,4 -11.8,2.5 4.7,11.7 
			8.5,11.7 -11.8,0.3 -11.8,0 -7.4,0 11.9,10.9 11.9,0 		"/>
		<polygon id="XMLID_21_" class="st1" points="43.8,4.3 30.6,11.7 43.8,11.7 43.8,13.7 18.8,13.7 18.8,0 20.5,0 20.5,10.9 40,0 
			42.5,0 21.6,11.7 25.4,11.7 43.8,1.4 		"/>
		<polygon id="XMLID_27_" class="st1" points="43.8,21.4 30.6,21.4 43.8,28.7 43.8,30 28.4,21.4 24.6,21.4 43.8,32.1 43.8,32.4 
			38.9,32.4 20.5,22.2 20.5,32.4 18.8,32.4 18.8,19.4 43.8,19.4 		"/>
		<path id="XMLID_60_" class="st1" d="M-11.8,19.4v13l0,0v-0.2L7.6,21.4h3.8L-8.3,32.4h1.9l18.3-10.2v10.2h1.8v-13H-11.8z M-11.8,29
			v-7.7H1.9L-11.8,29z"/>
		<polygon id="XMLID_20_" class="st2" points="43.8,0 43.8,1.4 25.4,11.7 21.6,11.7 42.5,0 		"/>
		<polygon id="XMLID_22_" class="st2" points="43.8,30 43.8,32.1 24.6,21.4 28.4,21.4 		"/>
		<polygon id="XMLID_25_" class="st2" points="8.5,11.7 4.7,11.7 -11.8,2.5 -11.8,0.3 		"/>
		<polygon id="XMLID_17_" class="st2" points="11.5,21.4 -8.3,32.4 -11.8,32.4 -11.8,32.2 7.6,21.4 		"/>
		<polygon id="XMLID_19_" class="st3" points="40,0 20.5,10.9 20.5,0 		"/>
		<polygon id="XMLID_24_" class="st3" points="11.9,0 11.9,10.9 -7.4,0 		"/>
		<polygon id="XMLID_18_" class="st3" points="43.8,4.3 43.8,11.7 30.6,11.7 		"/>
		<polygon id="XMLID_16_" class="st3" points="43.8,21.4 43.8,28.7 30.6,21.4 		"/>
		<polygon id="XMLID_14_" class="st3" points="11.9,22.2 11.9,32.4 -6.3,32.4 		"/>
		<polygon id="XMLID_15_" class="st3" points="38.9,32.4 20.5,32.4 20.5,22.2 		"/>
		<polygon id="XMLID_11_" class="st3" points="1.9,21.4 -11.8,29 -11.8,21.4 		"/>
		<polygon id="XMLID_23_" class="st3" points="1.9,11.7 -11.8,11.7 -11.8,4 		"/>
		<polygon id="XMLID_10_" class="st2" points="43.8,13.7 43.8,19.4 18.8,19.4 18.8,32.4 13.7,32.4 13.7,19.4 -11.8,19.4 -11.8,13.7 
			13.7,13.7 13.7,0 18.8,0 18.8,13.7 		"/>
	</g>
</g>
</svg>
