<?xml version="1.0" encoding="utf-8"?>
<!-- Generator: Adobe Illustrator 19.0.0, SVG Export Plug-In . SVG Version: 6.00 Build 0)  -->
<svg version="1.1" id="Layer_1" xmlns="http://www.w3.org/2000/svg" xmlns:xlink="http://www.w3.org/1999/xlink" x="0px" y="0px"
	 viewBox="0 0 32 32" style="enable-background:new 0 0 32 32;" xml:space="preserve">
<style type="text/css">
	.st0{clip-path:url(#XMLID_33_);fill:#2534A4;}
	.st1{clip-path:url(#XMLID_33_);fill:#BC0030;}
	.st2{clip-path:url(#XMLID_33_);fill:#FFFFFF;}
	.st3{clip-path:url(#XMLID_33_);fill:#F3D02F;}
	.st4{clip-path:url(#XMLID_33_);}
	.st5{fill:#F3D02F;}
</style>
<g id="XMLID_2_">
	<defs>
		<circle id="XMLID_1_" cx="16" cy="16" r="15.8"/>
	</defs>
	<clipPath id="XMLID_33_">
		<use xlink:href="#XMLID_1_"  style="overflow:visible;"/>
	</clipPath>
	<polygon id="XMLID_37_" class="st0" points="55,0 55,16 27.8,16 0,0 	"/>
	<polygon id="XMLID_42_" class="st1" points="55,16 55,32 0,32 27.8,16 	"/>
	<polygon id="XMLID_32_" class="st2" points="0,0 0,32 27.9,16 	"/>
	<polygon id="XMLID_31_" class="st3" points="3.8,28.9 2.5,28.2 1.5,29.2 1.8,27.8 0.5,27.1 2,26.9 2.2,25.5 2.8,26.8 4.2,26.7 
		3.2,27.6 	"/>
	<path id="XMLID_72_" class="st3" d="M7.5,13.1l-1-1.8l-0.6-0.1l1.4,2L7.5,13.1z M6.7,13.9l-2.2-1.7l-0.1-1l0.9,0l1.8,2.2L6.7,13.9z
		 M6.4,14.3l-1.8-1l-0.1-0.6l2,1.4L6.4,14.3z"/>
	<path id="XMLID_68_" class="st3" d="M10.1,12.7l0.5-2l-0.4-0.5l-0.4,2.4L10.1,12.7z M8.9,12.7L8.6,10l0.6-0.7l0.6,0.6l-0.3,2.8
		L8.9,12.7z M8.4,12.8l-0.5-2l0.4-0.5l0.4,2.4L8.4,12.8z"/>
	<path id="XMLID_64_" class="st3" d="M12.2,14.4l1.8-1l0.1-0.6L12,14.1L12.2,14.4z M11.4,13.5l1.7-2.1l1-0.1l0,0.9L11.9,14
		L11.4,13.5z M11,13.2l1.1-1.8l0.6-0.1l-1.4,2L11,13.2z"/>
	<path id="XMLID_60_" class="st3" d="M12.5,16.9l2,0.5L15,17l-2.4-0.4L12.5,16.9z M12.5,15.7l2.7-0.3L16,16l-0.6,0.6l-2.8-0.3
		L12.5,15.7z M12.5,15.2l2-0.5l0.5,0.4l-2.4,0.4L12.5,15.2z"/>
	<path id="XMLID_56_" class="st3" d="M11,18.9l1.1,1.8l0.6,0.1l-1.4-2L11,18.9z M11.8,18.1l2.2,1.7l0.1,1l-0.9,0l-1.8-2.2L11.8,18.1
		z M12.1,17.7l1.8,1l0.1,0.6L12,17.9L12.1,17.7z"/>
	<path id="XMLID_52_" class="st3" d="M8.4,19.3l-0.5,2l0.4,0.5l0.4-2.4L8.4,19.3z M9.6,19.3L9.9,22l-0.6,0.8l-0.7-0.6l0.3-2.8
		L9.6,19.3z M10.1,19.2l0.5,2l-0.4,0.5l-0.5-2.4L10.1,19.2z"/>
	<path id="XMLID_48_" class="st3" d="M6.3,17.7l-1.8,1l-0.1,0.6l2-1.4L6.3,17.7z M7.1,18.5l-1.7,2.2l-1,0.1l0-0.9l2.2-1.8L7.1,18.5z
		 M7.5,18.9l-1,1.8l-0.6,0.1l1.4-2L7.5,18.9z"/>
	<path id="XMLID_44_" class="st3" d="M6,15.2l-2-0.5L3.5,15l2.4,0.4L6,15.2z M6,16.3l-2.7,0.4L2.5,16l0.6-0.7l2.8,0.3L6,16.3z
		 M6,16.8l-2,0.5L3.5,17L6,16.6L6,16.8z"/>
	<g id="XMLID_39_" class="st4">
		<path id="XMLID_6_" class="st5" d="M9.2,12.6c1.9,0,3.4,1.5,3.4,3.4c0,1.9-1.5,3.4-3.4,3.4c-1.9,0-3.4-1.5-3.4-3.4
			C5.9,14.1,7.4,12.6,9.2,12.6"/>
		<polygon id="XMLID_5_" class="st5" points="20.9,17.2 21.7,16 20.9,14.9 22.2,15.3 23.1,14.1 23,15.6 24.4,16 23,16.4 23.1,17.9 
			22.2,16.7 		"/>
		<polygon id="XMLID_4_" class="st5" points="3.8,2.7 2.5,3.4 1.5,2.5 1.8,3.9 0.5,4.6 2,4.7 2.2,6.1 2.8,4.8 4.2,5 3.2,4 		"/>
	</g>
</g>
</svg>
