<?xml version="1.0" encoding="UTF-8" standalone="no"?><!-- Generator: Gravit.io --><svg xmlns="http://www.w3.org/2000/svg" xmlns:xlink="http://www.w3.org/1999/xlink" style="isolation:isolate" viewBox="1116 193 100 99.846" width="100pt" height="99.846pt"><g><path d=" M 1166 193 C 1160.154 193 1154.462 193.923 1149.385 195.769 L 1149.385 226.231 L 1213.231 226.231 C 1206.308 207 1187.846 193 1166 193 Z " fill="rgb(255,255,255)"/><path d=" M 1213.231 226.385 L 1149.385 226.385 L 1149.385 195.769 C 1130 202.692 1116 221.154 1116 243 C 1116 264.846 1130 283.308 1149.385 290.231 L 1149.385 259.615 L 1213.231 259.615 C 1215.077 254.385 1216 248.846 1216 243 C 1216 237.154 1214.923 231.462 1213.231 226.385 Z " fill="rgb(219,22,27)"/><path d=" M 1149.385 259.615 L 1149.385 290.077 C 1154.615 291.923 1160.154 292.846 1166 292.846 C 1187.846 292.846 1206.308 279 1213.231 259.462 L 1149.385 259.462 L 1149.385 259.615 Z " fill="rgb(0,128,0)"/><path d=" M 1144.462 227 L 1144.154 227.154 L 1141.538 224.846 L 1138.462 221.462 C 1138.615 221.154 1138.615 220.231 1138.462 219.769 L 1138.923 219.308 L 1139.385 219.308 C 1139.538 219.615 1139.846 219.923 1140.308 219.923 C 1140.769 219.923 1141.077 219.769 1141.385 219.308 L 1142 219.308 L 1142 220.077 L 1146.462 220.077 L 1146.462 217.615 L 1142 217.615 L 1142 218.385 L 1141.385 218.385 C 1141.231 218.077 1140.923 217.769 1140.615 217.769 L 1140.769 217.615 L 1144.462 210.077 L 1144 209.615 L 1138.769 216.538 L 1139.077 216.846 L 1138.769 217.462 L 1138 217.462 L 1137.846 217.154 L 1138.462 217.154 L 1138.462 216.846 L 1138 216.692 L 1138 215.615 L 1138.615 215.615 L 1138.769 215.154 L 1137.385 214.846 L 1137.385 211.462 L 1138.462 210.231 L 1136.769 209.154 L 1135.231 210.385 L 1136.308 211.615 L 1136.308 215 L 1134.923 215.308 L 1135.077 215.769 L 1135.692 215.769 L 1135.692 216.846 L 1135.231 216.846 L 1135.231 217.308 L 1135.846 217.308 L 1135.692 217.615 L 1134.923 217.615 L 1134.615 217 L 1134.923 216.692 L 1129.692 209.769 L 1129.385 209.923 L 1133.077 217.462 L 1133.231 217.615 C 1132.923 217.615 1132.615 217.923 1132.462 218.231 L 1131.846 218.231 L 1131.846 217.462 L 1127.077 217.462 L 1127.077 219.923 L 1131.538 219.923 L 1131.538 219.154 L 1132.154 219.154 C 1132.308 219.462 1132.615 219.769 1133.077 219.769 C 1133.538 219.769 1133.846 219.615 1134.154 219.154 L 1134.615 219.154 L 1135.077 219.769 L 1135.077 219.923 L 1134.462 219.923 L 1134.462 220.692 L 1130.462 221 L 1130.308 220.692 C 1130.308 220.692 1128.154 221 1127.846 221.462 C 1127.846 221.615 1127.846 221.769 1127.846 221.923 C 1128.154 222.385 1130.308 223.154 1130.308 223.154 L 1130.308 223 C 1130.308 223 1131.846 223.308 1133.538 223.462 L 1132.615 224.692 L 1130 227 L 1129.692 226.846 L 1127.385 229.154 L 1127.231 229.462 L 1129.846 228.692 L 1131.692 227.308 L 1131.385 227.154 L 1135.692 223.462 C 1135.846 223.462 1136 223.462 1136 223.462 C 1136.462 223.462 1137.538 223.154 1137.846 222.846 L 1138.308 223.308 L 1142.769 227.154 L 1142.462 227.308 L 1144.308 228.692 L 1146.923 229.462 L 1147.077 229.154 L 1144.462 227 Z " fill="rgb(255,255,255)"/></g></svg>