<svg id="Layer_1" data-name="Layer 1" xmlns="http://www.w3.org/2000/svg" viewBox="0 0 32 32">
    <defs>
        <style>.cls-1{fill:#f93;}.cls-2{fill:#fff;}.cls-3{fill:#128807;}.cls-4{fill:#008;}</style>
    </defs>
    <title>flag_ind</title>
    <path class="cls-1" d="M16,0A16,16,0,0,0,.91,10.67H31.09A16,16,0,0,0,16,0Z" />
    <path class="cls-2" d="M32,16a15.91,15.91,0,0,0-.91-5.33H.91a16.06,16.06,0,0,0,0,10.66H31.09A15.91,15.91,0,0,0,32,16ZM16,20.27A4.27,4.27,0,1,1,20.27,16,4.27,4.27,0,0,1,16,20.27Z" />
    <path class="cls-3" d="M31.09,21.33H.91a16,16,0,0,0,30.18,0Z" />
    <path class="cls-4" d="M16,11.73A4.27,4.27,0,1,0,20.27,16,4.27,4.27,0,0,0,16,11.73Zm3.68,4.94h0l-.06.3h0l-.09.29h0a.18.18,0,0,1,.1.24.18.18,0,0,1-.24.1h0c0,.09-.09.18-.14.27h0c-.05.08-.1.17-.16.25h0a.2.2,0,0,1,0,.27.19.19,0,0,1-.26,0h0l-.2.22h0l-.22.2h0a.19.19,0,0,1-.29.23h0l-.25.16h0l-.27.14h0a.18.18,0,0,1-.1.24.17.17,0,0,1-.24-.1h0l-.28.09h0l-.3.06h0a.19.19,0,0,1-.16.21.19.19,0,0,1-.21-.17h-.6a.19.19,0,1,1-.37-.05h0l-.3-.06h0l-.29-.09h0a.18.18,0,0,1-.24.1.18.18,0,0,1-.1-.24h0l-.27-.14h0l-.25-.16h0a.2.2,0,0,1-.27,0,.19.19,0,0,1,0-.26h0l-.22-.2h0l-.2-.22h0a.19.19,0,1,1-.23-.29h0c-.06-.08-.11-.17-.16-.25h0c0-.09-.1-.18-.14-.27h0a.18.18,0,0,1-.24-.1.17.17,0,0,1,.1-.24h0L12.39,17h0l-.06-.3h0a.19.19,0,0,1-.21-.16.19.19,0,0,1,.17-.21h0c0-.1,0-.2,0-.3s0-.2,0-.3h0a.19.19,0,1,1,.05-.37h0l.06-.3h0l.09-.29h0a.18.18,0,0,1-.1-.24.18.18,0,0,1,.24-.1h0c0-.09.09-.18.14-.27h0c.05-.08.1-.17.16-.25h0a.2.2,0,0,1,0-.27.19.19,0,0,1,.26,0h0l.2-.22h0l.22-.2h0a.19.19,0,0,1,.29-.23h0l.25-.16h0l.27-.14h0a.18.18,0,0,1,.1-.24.17.17,0,0,1,.24.1h0l.28-.09h0l.3-.06h0a.19.19,0,0,1,.16-.21.19.19,0,0,1,.21.17h.6a.19.19,0,1,1,.37.05h0l.3.06h0l.29.09h0a.18.18,0,0,1,.24-.1.18.18,0,0,1,.1.24h0l.27.14h0l.25.16h0a.2.2,0,0,1,.27,0,.19.19,0,0,1,0,.26h0l.22.2h0l.2.22h0a.19.19,0,0,1,.26,0,.2.2,0,0,1,0,.27h0c.06.08.11.17.16.25h0c.05.09.1.18.14.27h0a.18.18,0,0,1,.24.1.17.17,0,0,1-.1.24h0l.09.28h0l.06.3h0a.19.19,0,0,1,.21.16.19.19,0,0,1-.17.21h0c0,.1,0,.2,0,.3s0,.2,0,.3h0a.19.19,0,1,1-.05.37Z" />
    <path class="cls-2" d="M15.26,16a.49.49,0,0,1,0-.12l-.75-.1L12.39,15l-.06.3a.19.19,0,0,1-.05.37c0,.1,0,.2,0,.3l2.24-.13Z" />
    <path class="cls-2" d="M15.27,16.16a.49.49,0,0,1,0-.12l-.75.09L12.27,16c0,.1,0,.2,0,.3a.18.18,0,0,1,.2.16.18.18,0,0,1-.15.21l.06.3,2.13-.71Z" />
    <path class="cls-2" d="M15.29,15.77a.54.54,0,0,1,.05-.11l-.7-.3-1.87-1.23c0,.09-.1.18-.14.27a.18.18,0,0,1,.09.24.18.18,0,0,1-.24.1l-.09.29,2.2.46Z" />
    <path class="cls-2" d="M15.37,15.59l.08-.09-.6-.47-1.49-1.67-.2.22a.2.2,0,0,1,0,.26.19.19,0,0,1-.26,0c-.06.08-.11.17-.16.25l2,1Z" />
    <path class="cls-2" d="M15.34,16.34a.54.54,0,0,1-.05-.11l-.7.28-2.2.46.09.28a.19.19,0,0,1,.24.11.18.18,0,0,1-.09.24c0,.09.09.18.14.27l1.87-1.23Z" />
    <path class="cls-2" d="M16.66,15.66a.54.54,0,0,1,.05.11l.7-.28,2.2-.46-.09-.28a.19.19,0,0,1-.24-.11.18.18,0,0,1,.09-.24c0-.09-.09-.18-.14-.27l-1.87,1.23Z" />
    <path class="cls-2" d="M15.45,16.5l-.08-.09-.6.45-2,1c.05.08.1.17.16.25a.19.19,0,0,1,.26,0,.2.2,0,0,1,0,.26l.2.22L14.85,17Z" />
    <path class="cls-2" d="M15.5,15.45l.09-.08-.45-.6-1-2-.25.16a.19.19,0,0,1,0,.26.2.2,0,0,1-.26,0l-.22.2L15,14.85Z" />
    <path class="cls-2" d="M15.77,16.71l-.11-.05-.3.7-1.23,1.87.27.14a.18.18,0,0,1,.24-.09.18.18,0,0,1,.1.24l.29.09.46-2.2Z" />
    <path class="cls-2" d="M16.41,15.37l.09.08.47-.6,1.67-1.49-.22-.2a.2.2,0,0,1-.26,0,.19.19,0,0,1,0-.26l-.25-.16-1,2Z" />
    <path class="cls-2" d="M16.73,15.84a.49.49,0,0,1,0,.12l.75-.09,2.24.13c0-.1,0-.2,0-.3a.18.18,0,0,1-.2-.16.18.18,0,0,1,.15-.21l-.06-.3-2.13.71Z" />
    <path class="cls-2" d="M16,16.74h-.12l-.1.75L15,19.61l.3.06a.19.19,0,0,1,.37,0H16l-.13-2.24Z" />
    <path class="cls-2" d="M15.66,15.34l.11-.05-.28-.7L15,12.39l-.28.09a.19.19,0,0,1-.11.24.18.18,0,0,1-.24-.09l-.27.14,1.23,1.87Z" />
    <path class="cls-2" d="M16.55,15.5l.08.09.6-.45,2-1c-.05-.08-.1-.17-.16-.25a.19.19,0,0,1-.26,0,.2.2,0,0,1,0-.26l-.2-.22L17.15,15Z" />
    <path class="cls-2" d="M15.84,15.27H16l-.09-.75L16,12.27h-.3a.18.18,0,0,1-.16.2.18.18,0,0,1-.21-.15l-.3.06.71,2.13Z" />
    <path class="cls-2" d="M16.23,15.29l.11.05.3-.7,1.23-1.87-.27-.14a.18.18,0,0,1-.24.09.18.18,0,0,1-.1-.24L17,12.39l-.46,2.2Z" />
    <path class="cls-2" d="M16,15.26h.12l.1-.75L17,12.39l-.3-.06a.19.19,0,0,1-.37-.05H16l.13,2.24Z" />
    <path class="cls-2" d="M15.59,16.63l-.09-.08-.47.6-1.67,1.49.22.2a.2.2,0,0,1,.26,0,.19.19,0,0,1,0,.26l.25.16,1-2Z" />
    <path class="cls-2" d="M19.52,16.46a.18.18,0,0,1,.2-.16c0-.1,0-.2,0-.3l-2.24.13L16.74,16a.49.49,0,0,1,0,.12l.75.1,2.13.71.06-.3A.18.18,0,0,1,19.52,16.46Z" />
    <path class="cls-2" d="M16.16,16.73H16l.09.75L16,19.73h.3a.18.18,0,0,1,.16-.2.18.18,0,0,1,.21.15l.3-.06-.71-2.13Z" />
    <path class="cls-2" d="M16.5,16.55l-.09.08.45.6,1,2,.25-.16a.19.19,0,0,1,0-.26.2.2,0,0,1,.26,0l.22-.2L17,17.15Z" />
    <path class="cls-2" d="M16.71,16.23a.54.54,0,0,1-.05.11l.7.3,1.87,1.23c.05-.09.1-.18.14-.27a.18.18,0,0,1-.09-.24.18.18,0,0,1,.24-.1l.09-.29-2.2-.46Z" />
    <path class="cls-2" d="M16.63,16.41l-.08.09.6.47,1.49,1.67.2-.22a.2.2,0,0,1,0-.26.19.19,0,0,1,.26,0c.06-.08.11-.17.16-.25l-2-1Z" />
    <path class="cls-2" d="M16.34,16.66l-.11.05.28.7.46,2.2.28-.09a.19.19,0,0,1,.11-.24.18.18,0,0,1,.24.09l.27-.14-1.23-1.87Z" />
    <path class="cls-4" d="M16.74,16a.49.49,0,0,0,0-.12l-.32.05.3-.12a.54.54,0,0,0-.05-.11l-.29.13.26-.2-.08-.09-.25.2.2-.25-.09-.08-.2.26.13-.29-.11-.05-.12.3.05-.32H16l0,.31,0-.31h-.12l.05.32-.12-.3-.11.05.13.29-.2-.26-.09.08.2.25-.25-.2-.08.09.26.2-.29-.13a.54.54,0,0,0-.05.11l.3.12-.32-.05a.49.49,0,0,0,0,.12l.31,0-.31,0a.49.49,0,0,0,0,.12l.32-.05-.3.12a.54.54,0,0,0,.05.11l.29-.13-.26.2.08.09.25-.2-.2.25.09.08.2-.26-.13.29.11.05.12-.3-.05.32H16l0-.31,0,.31h.12l-.05-.32.12.3.11-.05-.13-.29.2.26.09-.08-.2-.25.25.2.08-.09-.26-.2.29.13a.54.54,0,0,0,.05-.11l-.3-.12.32.05a.49.49,0,0,0,0-.12l-.31,0Z" />
    <path class="cls-4" d="M19.73,16.3h0c0,.13,0,.25,0,.37h0a.19.19,0,1,0,.05-.37Z" />
    <path class="cls-4" d="M19.52,16.46a.18.18,0,0,0,.15.21c0-.12,0-.24,0-.37A.18.18,0,0,0,19.52,16.46Z" />
    <path class="cls-4" d="M16,16.74H16l-.09.75L16,19.73l.13-2.24Z" />
    <path class="cls-4" d="M16,16.74H16l0-.31Z" />
    <path class="cls-4" d="M19.38,17.6a.18.18,0,0,0,.24-.1.18.18,0,0,0-.1-.24h0c-.05.11-.09.23-.15.34Z" />
    <path class="cls-4" d="M19.28,17.36a.18.18,0,0,0,.09.24c.06-.11.1-.23.15-.34A.18.18,0,0,0,19.28,17.36Z" />
    <polygon class="cls-4" points="15.03 19.61 15.03 19.61 15.03 19.61 15.03 19.61" />
    <path class="cls-4" d="M15.84,16.73l-.07,0-.28.7L15,19.61h0l.71-2.13Z" />
    <path class="cls-4" d="M15.77,16.71l.07,0,.05-.32Z" />
    <path class="cls-4" d="M18.85,18.42a.19.19,0,0,0,.26,0,.2.2,0,0,0,0-.27h0l-.23.3Z" />
    <path class="cls-4" d="M18.81,18.16a.2.2,0,0,0,0,.26l.23-.3A.19.19,0,0,0,18.81,18.16Z" />
    <polygon class="cls-4" points="14.13 19.23 14.13 19.23 14.13 19.23 14.13 19.23" />
    <path class="cls-4" d="M15.66,16.66l-.07,0-.45.6-1,2h0l1.23-1.87Z" />
    <path class="cls-4" d="M15.59,16.63l.07,0,.13-.29Z" />
    <path class="cls-4" d="M18.13,19.08a.19.19,0,0,0,.29-.23h0l-.3.23Z" />
    <path class="cls-4" d="M18.16,18.81a.19.19,0,0,0,0,.26l.3-.23A.2.2,0,0,0,18.16,18.81Z" />
    <polygon class="cls-4" points="13.36 18.64 13.36 18.64 13.36 18.64 13.36 18.64" />
    <path class="cls-4" d="M15.5,16.55l-.05-.05-.6.47-1.49,1.67h0L15,17.15Z" />
    <path class="cls-4" d="M15.45,16.5l.05.05.2-.25Z" />
    <path class="cls-4" d="M17.26,19.52a.17.17,0,0,0,.24.1.18.18,0,0,0,.1-.24h0a3.68,3.68,0,0,1-.35.15Z" />
    <path class="cls-4" d="M17.36,19.28a.19.19,0,0,0-.11.24,3.68,3.68,0,0,0,.35-.15A.18.18,0,0,0,17.36,19.28Z" />
    <polygon class="cls-4" points="12.77 17.87 12.77 17.87 12.77 17.87 12.77 17.87" />
    <path class="cls-4" d="M15.37,16.41l0-.07-.7.3-1.87,1.23h0l2-1Z" />
    <path class="cls-4" d="M15.34,16.34l0,.07.26-.2Z" />
    <path class="cls-4" d="M16.3,19.72a.19.19,0,0,0,.21.17.19.19,0,0,0,.16-.21h0l-.37,0Z" />
    <path class="cls-4" d="M16.46,19.52a.18.18,0,0,0-.16.2l.37,0A.18.18,0,0,0,16.46,19.52Z" />
    <polygon class="cls-4" points="12.39 16.97 12.39 16.97 12.39 16.97 12.39 16.97" />
    <path class="cls-4" d="M15.29,16.23s0-.05,0-.07l-.75.1L12.39,17h0l2.2-.46Z" />
    <path class="cls-4" d="M15.27,16.16s0,.05,0,.07l.3-.12Z" />
    <path class="cls-4" d="M15.33,19.68a.19.19,0,1,0,.37.05h0l-.37,0Z" />
    <path class="cls-4" d="M15.54,19.52a.18.18,0,0,0-.21.15l.37,0A.18.18,0,0,0,15.54,19.52Z" />
    <path class="cls-4" d="M15.26,16a.08.08,0,0,1,0-.08l-.75-.09L12.27,16l2.24.13Z" />
    <path class="cls-4" d="M15.26,16a.08.08,0,0,0,0,.08l.31,0Z" />
    <path class="cls-4" d="M14.4,19.38a.18.18,0,0,0,.1.24.18.18,0,0,0,.24-.1h0c-.11-.05-.23-.09-.34-.15Z" />
    <path class="cls-4" d="M14.64,19.28a.18.18,0,0,0-.24.09c.11.06.23.1.34.15A.18.18,0,0,0,14.64,19.28Z" />
    <polygon class="cls-4" points="12.39 15.03 12.39 15.03 12.39 15.03 12.39 15.03" />
    <path class="cls-4" d="M15.27,15.84s0-.05,0-.07l-.7-.28L12.39,15h0l2.13.71Z" />
    <path class="cls-4" d="M15.29,15.77s0,.05,0,.07l.32.05Z" />
    <path class="cls-4" d="M13.58,18.85a.19.19,0,0,0,0,.26.2.2,0,0,0,.27,0h0l-.3-.23Z" />
    <path class="cls-4" d="M13.84,18.81a.2.2,0,0,0-.26,0l.3.23A.19.19,0,0,0,13.84,18.81Z" />
    <polygon class="cls-4" points="12.77 14.13 12.77 14.13 12.77 14.13 12.77 14.13" />
    <path class="cls-4" d="M15.34,15.66l0-.07-.6-.45-2-1h0l1.87,1.23Z" />
    <path class="cls-4" d="M15.37,15.59l0,.07.29.13Z" />
    <path class="cls-4" d="M12.92,18.13a.19.19,0,1,0,.23.29h0l-.23-.3Z" />
    <path class="cls-4" d="M13.19,18.16a.19.19,0,0,0-.26,0l.23.3A.2.2,0,0,0,13.19,18.16Z" />
    <polygon class="cls-4" points="13.36 13.36 13.36 13.36 13.36 13.36 13.36 13.36" />
    <path class="cls-4" d="M15.45,15.5l.05-.05-.47-.6-1.67-1.49h0L14.85,15Z" />
    <path class="cls-4" d="M15.5,15.45l-.05.05.25.2Z" />
    <path class="cls-4" d="M12.48,17.26a.17.17,0,0,0-.1.24.18.18,0,0,0,.24.1h0a3.68,3.68,0,0,1-.15-.35Z" />
    <path class="cls-4" d="M12.72,17.36a.19.19,0,0,0-.24-.11,3.68,3.68,0,0,0,.15.35A.18.18,0,0,0,12.72,17.36Z" />
    <polygon class="cls-4" points="14.13 12.77 14.13 12.77 14.13 12.77 14.13 12.77" />
    <path class="cls-4" d="M15.59,15.37l.07,0-.3-.7-1.23-1.87h0l1,2Z" />
    <path class="cls-4" d="M15.66,15.34l-.07,0,.2.26Z" />
    <path class="cls-4" d="M12.28,16.3a.19.19,0,0,0-.17.21.19.19,0,0,0,.21.16h0c0-.12,0-.24-.05-.37Z" />
    <path class="cls-4" d="M12.48,16.46a.18.18,0,0,0-.2-.16c0,.13,0,.25.05.37A.18.18,0,0,0,12.48,16.46Z" />
    <polygon class="cls-4" points="15.03 12.39 15.03 12.39 15.03 12.39 15.03 12.39" />
    <path class="cls-4" d="M15.77,15.29l.07,0-.1-.75L15,12.39h0l.46,2.2Z" />
    <path class="cls-4" d="M15.84,15.27l-.07,0,.12.3Z" />
    <path class="cls-4" d="M12.32,15.33a.19.19,0,1,0-.05.37h0c0-.13,0-.25.05-.37Z" />
    <path class="cls-4" d="M12.48,15.54a.18.18,0,0,0-.15-.21c0,.12,0,.24-.05.37A.18.18,0,0,0,12.48,15.54Z" />
    <path class="cls-4" d="M16,15.26H16l.09-.75L16,12.27l-.13,2.24Z" />
    <path class="cls-4" d="M16,15.26H16l0,.31Z" />
    <path class="cls-4" d="M12.62,14.4a.18.18,0,0,0-.24.1.18.18,0,0,0,.1.24h0c0-.11.09-.23.15-.34Z" />
    <path class="cls-4" d="M12.72,14.64a.18.18,0,0,0-.09-.24c-.06.11-.1.23-.15.34A.18.18,0,0,0,12.72,14.64Z" />
    <polygon class="cls-4" points="16.97 12.39 16.97 12.39 16.97 12.39 16.97 12.39" />
    <path class="cls-4" d="M16.16,15.27l.07,0,.28-.7.46-2.2h0l-.71,2.13Z" />
    <path class="cls-4" d="M16.23,15.29l-.07,0-.05.32Z" />
    <path class="cls-4" d="M13.15,13.58a.19.19,0,0,0-.26,0,.2.2,0,0,0,0,.27h0l.23-.3Z" />
    <path class="cls-4" d="M13.19,13.84a.2.2,0,0,0,0-.26l-.23.3A.19.19,0,0,0,13.19,13.84Z" />
    <polygon class="cls-4" points="17.87 12.77 17.87 12.77 17.87 12.77 17.87 12.77" />
    <path class="cls-4" d="M16.34,15.34l.07,0,.45-.6,1-2h0l-1.23,1.87Z" />
    <path class="cls-4" d="M16.41,15.37l-.07,0-.13.29Z" />
    <path class="cls-4" d="M13.87,12.92a.19.19,0,0,0-.29.23h0l.3-.23Z" />
    <path class="cls-4" d="M13.84,13.19a.19.19,0,0,0,0-.26l-.3.23A.2.2,0,0,0,13.84,13.19Z" />
    <polygon class="cls-4" points="18.64 13.36 18.64 13.36 18.64 13.36 18.64 13.36" />
    <path class="cls-4" d="M16.5,15.45l.05.05.6-.47,1.49-1.67h0L17,14.85Z" />
    <path class="cls-4" d="M16.55,15.5l-.05-.05-.2.25Z" />
    <path class="cls-4" d="M14.74,12.48a.17.17,0,0,0-.24-.1.18.18,0,0,0-.1.24h0a3.68,3.68,0,0,1,.35-.15Z" />
    <path class="cls-4" d="M14.64,12.72a.19.19,0,0,0,.11-.24,3.68,3.68,0,0,0-.35.15A.18.18,0,0,0,14.64,12.72Z" />
    <polygon class="cls-4" points="19.23 14.13 19.23 14.13 19.23 14.13 19.23 14.13" />
    <path class="cls-4" d="M16.63,15.59l0,.07.7-.3,1.87-1.23h0l-2,1Z" />
    <path class="cls-4" d="M16.66,15.66l0-.07-.26.2Z" />
    <path class="cls-4" d="M15.7,12.28a.19.19,0,0,0-.21-.17.19.19,0,0,0-.16.21h0l.37-.05Z" />
    <path class="cls-4" d="M15.54,12.48a.18.18,0,0,0,.16-.2l-.37.05A.18.18,0,0,0,15.54,12.48Z" />
    <polygon class="cls-4" points="19.61 15.03 19.61 15.03 19.61 15.03 19.61 15.03" />
    <path class="cls-4" d="M16.71,15.77s0,.05,0,.07l.75-.1L19.61,15h0l-2.2.46Z" />
    <path class="cls-4" d="M16.73,15.84s0-.05,0-.07l-.3.12Z" />
    <path class="cls-4" d="M16.67,12.32a.19.19,0,1,0-.37-.05h0l.37.05Z" />
    <path class="cls-4" d="M16.46,12.48a.18.18,0,0,0,.21-.15l-.37-.05A.18.18,0,0,0,16.46,12.48Z" />
    <path class="cls-4" d="M16.74,16a.08.08,0,0,1,0,.08l.75.09L19.73,16l-2.24-.13Z" />
    <path class="cls-4" d="M16.74,16l-.31,0,.31,0a.08.08,0,0,0,0-.08Z" />
    <path class="cls-4" d="M17.6,12.62a.18.18,0,0,0-.1-.24.18.18,0,0,0-.24.1h0c.11,0,.23.09.34.15Z" />
    <path class="cls-4" d="M17.36,12.72a.18.18,0,0,0,.24-.09c-.11-.06-.23-.1-.34-.15A.18.18,0,0,0,17.36,12.72Z" />
    <polygon class="cls-4" points="19.61 16.97 19.61 16.97 19.61 16.97 19.61 16.97" />
    <path class="cls-4" d="M16.73,16.16s0,.05,0,.07l.7.28,2.2.46h0l-2.13-.71Z" />
    <path class="cls-4" d="M16.71,16.23s0-.05,0-.07l-.32-.05Z" />
    <path class="cls-4" d="M18.42,13.15a.19.19,0,0,0,0-.26.2.2,0,0,0-.27,0h0l.3.23Z" />
    <path class="cls-4" d="M18.16,13.19a.2.2,0,0,0,.26,0l-.3-.23A.19.19,0,0,0,18.16,13.19Z" />
    <polygon class="cls-4" points="19.23 17.87 19.23 17.87 19.23 17.87 19.23 17.87" />
    <path class="cls-4" d="M16.66,16.34l0,.07.6.45,2,1h0l-1.87-1.23Z" />
    <path class="cls-4" d="M16.63,16.41l0-.07-.29-.13Z" />
    <path class="cls-4" d="M19.08,13.88a.2.2,0,0,0,0-.27.19.19,0,0,0-.26,0h0l.23.3Z" />
    <path class="cls-4" d="M18.81,13.84a.19.19,0,0,0,.26,0l-.23-.3A.2.2,0,0,0,18.81,13.84Z" />
    <polygon class="cls-4" points="18.64 18.64 18.64 18.64 18.64 18.64 18.64 18.64" />
    <path class="cls-4" d="M16.55,16.5l-.05.05.47.6,1.67,1.49h0L17.15,17Z" />
    <path class="cls-4" d="M16.5,16.55l.05-.05-.25-.2Z" />
    <path class="cls-4" d="M19.52,14.74a.17.17,0,0,0,.1-.24.18.18,0,0,0-.24-.1h0a3.68,3.68,0,0,1,.15.35Z" />
    <path class="cls-4" d="M19.28,14.64a.19.19,0,0,0,.24.11,3.68,3.68,0,0,0-.15-.35A.18.18,0,0,0,19.28,14.64Z" />
    <polygon class="cls-4" points="17.87 19.23 17.87 19.23 17.87 19.23 17.87 19.23" />
    <path class="cls-4" d="M16.41,16.63l-.07,0,.3.7,1.23,1.87h0l-1-2Z" />
    <path class="cls-4" d="M16.34,16.66l.07,0-.2-.26Z" />
    <path class="cls-4" d="M19.72,15.7a.19.19,0,0,0,.17-.21.19.19,0,0,0-.21-.16h0c0,.12,0,.24,0,.37Z" />
    <path class="cls-4" d="M19.52,15.54a.18.18,0,0,0,.2.16c0-.13,0-.25,0-.37A.18.18,0,0,0,19.52,15.54Z" />
    <polygon class="cls-4" points="16.97 19.61 16.97 19.61 16.97 19.61 16.97 19.61" />
    <path class="cls-4" d="M16.23,16.71l-.07,0,.1.75L17,19.61h0l-.46-2.2Z" />
    <path class="cls-4" d="M16.16,16.73l.07,0-.12-.3Z" />
</svg>