<?xml version="1.0" encoding="utf-8"?>
<!-- Generator: Adobe Illustrator 19.0.0, SVG Export Plug-In . SVG Version: 6.00 Build 0)  -->
<svg version="1.1" id="Layer_1" xmlns="http://www.w3.org/2000/svg" xmlns:xlink="http://www.w3.org/1999/xlink" x="0px" y="0px"
	 viewBox="0 0 32 32" style="enable-background:new 0 0 32 32;" xml:space="preserve">
<style type="text/css">
	.st0{clip-path:url(#XMLID_41_);fill:#3D9635;}
	.st1{clip-path:url(#XMLID_41_);}
	.st2{fill:#FFFFFF;}
</style>
<g id="XMLID_2_">
	<defs>
		<circle id="XMLID_1_" cx="16" cy="16" r="15.8"/>
	</defs>
	<clipPath id="XMLID_41_">
		<use xlink:href="#XMLID_1_"  style="overflow:visible;"/>
	</clipPath>
	<rect id="XMLID_40_" x="-11" y="-0.1" class="st0" width="55.1" height="32.2"/>
	<g id="XMLID_45_" class="st1">
		<path id="XMLID_39_" class="st2" d="M4.6,9c-0.1,0.8-0.1,2.1,0.5,2.2c0.8,0.1,0.3-1.3,0.6-1.6c0.1-0.1,0.2-0.1,0.2,0v1.2
			c0,0.4,0.2,0.5,0.4,0.6c0.2,0,0.3,0,0.4,0.2c0,0.7,0.1,1.3,0.1,2c0,0,0.5,0.1,0.5-1.1c0-0.8-0.1-1.4,0-1.5c0-0.1,0.2-0.2,0.3-0.1
			c0.2,0.1,0.3,0.3,0.6,0.2c0.5-0.1,0.8-0.4,0.8-0.7c0-0.3-0.1-0.7-0.2-1c0-0.1-0.1-0.2-0.1-0.3c0.1,0.1,0.2,0.1,0.2,0
			C8.8,8.9,8.7,8.6,8.5,8.5C8.3,8.3,8.1,8.4,8,8.7c0,0.3,0.1,0.8,0.4,1.1c0.1,0.1,0.1,0.4,0.1,0.6c-0.1,0.1-0.3,0-0.4-0.1
			c0,0-0.4-0.3-0.4-0.3c0.1-0.6,0-0.7,0-0.9c0-0.2-0.2-0.3-0.3-0.5c-0.1-0.1-0.2-0.1-0.3,0C7,8.8,7,9.5,7.2,9.7
			c0.1,0.3,0.2,0.4,0.2,0.4c-0.1,0.1-0.2,0.1-0.2-0.1C7,9.8,6.9,9.2,6.9,9c0-0.3-0.1-0.9-0.3-1.1C6.6,7.8,6.4,7.9,6.3,8
			c0,0.3,0,0.6,0,0.8c0.1,0.5,0.2,0.9,0.2,1.3c0,0.6-0.4,0.3-0.3,0c0.1-0.4,0.1-1.1,0-1.2C6.2,8.8,6.1,8.7,5.9,8.8
			c-0.1,0-0.4,0.3-0.5,0.9c0,0-0.1,0.3-0.1,0.6c0,0.3-0.2,0.5-0.4,0C4.8,9.8,4.7,8.8,4.6,9"/>
		<path id="XMLID_38_" class="st2" d="M6.7,12.1c-0.7,0.3-1.3,0.6-2,1c0-0.5,1-1.3,1.6-1.3C6.6,11.8,6.5,12,6.7,12.1"/>
		<path id="XMLID_82_" class="st2" d="M9.2,7.9c0,0-0.1,0-0.1,0C8.9,8,8.8,8.1,8.8,8.4c0.2,1.2,0.3,2.1,0.5,3.3
			c0,0.1-0.1,0.3-0.2,0.3c-0.3-0.2-0.3-0.5-0.8-0.5c-0.3,0-0.7,0.3-0.7,0.7c0,0.3-0.1,0.5,0,0.8c0.2,0.3,0.5,0.2,0.7,0.2
			c0.2-0.1,0.3-0.3,0.4-0.2l0,0l0,0c0,0.1,0,0.7-0.9,1.2c-0.6,0.2-1,0.3-1.2-0.1c-0.1-0.3,0-1.3-0.3-1.1c-1.1,2.7,2.5,3.1,2.9,0.1
			c0-0.1,0.1-0.2,0.2-0.1c0,0,0,0,0.1,0.1c-0.1,2.7-2.7,2.9-3.2,2C6.1,14.7,6.1,14.2,6,14c0-0.2-0.1-0.3-0.1-0.3
			c-0.1-0.1-0.3,0.1-0.3,0.5c0,0.3,0,0.4,0,0.7C5.8,17,9.2,16,9.7,14.3c0.3-0.9,0-1.6,0.1-1.7c0,0,0,0,0,0c0,0,0,0,0,0h0
			c0,0,0,0,0,0c0.3,0.4,0.8,0,0.9-0.1c0-0.1,0.2-0.1,0.2,0c0.3,0.2,0.7,0.1,0.8-0.2c0.1-0.3,0.1-0.7,0.1-1c-0.2,0.1-0.3,0.1-0.4,0.2
			c0,0,0,0,0,0.1c0,0.1,0,0.2,0,0.3c0,0,0,0,0,0c0,0,0,0,0,0c-0.1,0-0.2,0-0.2-0.1c-0.1-0.4-0.4-0.4-0.6,0.2c-0.1,0.1-0.4,0.1-0.4,0
			c0-0.4-0.1-0.4-0.4-0.3C9.7,10.8,9.6,10,9.5,9.3c0.1,0,0.2,0.1,0.4-0.1C9.8,8.8,9.5,8,9.3,7.9h0C9.3,7.9,9.3,7.9,9.2,7.9
			C9.3,7.9,9.3,7.9,9.2,7.9C9.3,7.9,9.3,7.9,9.2,7.9C9.3,7.9,9.3,7.9,9.2,7.9C9.2,7.9,9.2,7.9,9.2,7.9 M8.3,12.1
			c0.1,0,0.1,0,0.2,0.1c0,0.1,0,0.2,0,0.2l0,0c0,0,0,0,0,0c0,0-0.1,0-0.2,0c-0.1,0-0.1,0-0.2-0.1c0-0.1,0-0.1,0.1-0.2c0,0,0,0,0,0
			c0,0,0,0,0,0C8.2,12.1,8.2,12.1,8.3,12.1"/>
		<path id="XMLID_79_" class="st2" d="M11.6,7.8c-0.1,0-0.2,0-0.2,0.1c-0.2,0.2-0.2,0.4-0.1,0.6c0.1,0.1,0.3,0.2,0.2,0.3
			C11.1,9.2,10.1,9.8,10,10l0,0v0l0,0l0,0c0,0,0,0,0,0h0h0l0,0h0c0.1,0,0.7,0,0.7,0v0h0l0,0C11,9.9,12,8.7,12,8.7
			c0,0-0.1-0.1-0.2-0.1c-0.1,0-0.1-0.1,0-0.1c0.2-0.1,0.2-0.5,0-0.6C11.8,7.8,11.7,7.8,11.6,7.8 M11.6,8.2c0.1,0,0.1,0.1,0.2,0.1
			c0,0.1,0,0.2,0,0.2c-0.1,0-0.1,0-0.2-0.1C11.5,8.3,11.5,8.2,11.6,8.2C11.5,8.2,11.5,8.2,11.6,8.2"/>
		<path id="XMLID_33_" class="st2" d="M4.7,14.1c-0.4,0.6-0.4,1.5-0.2,1.8C4.6,16,4.8,16,4.9,16c0.2-0.1,0.3-0.6,0.3-0.8
			c-0.1-0.1-0.1-0.1-0.2,0c-0.2,0.3-0.2,0.1-0.3-0.1C4.7,14.7,4.8,14.4,4.7,14.1C4.8,13.9,4.8,13.9,4.7,14.1"/>
		<path id="XMLID_32_" class="st2" d="M20.9,13.1c-0.4-0.8-0.9-1.6-1-1.9c-0.2-0.3-1.4-2.1-1.6-2.3c-0.4-0.5,0.6,0.2-0.1-0.7
			C17.8,8,17.8,8,17.6,7.8c-0.1-0.1-0.4-0.2-0.5,0c0,0.2,0,0.4,0,0.6c0,0.1,0.2,0.4,0.3,0.5c1.2,1.7,2.3,3.3,3.4,5.4
			C21,14.2,21,13.2,20.9,13.1"/>
		<path id="XMLID_31_" class="st2" d="M19.3,15.7c-0.1,0.1,0.2,0.4,0.5,0.4c0.5-0.1,1-0.4,1.5-1.2c0.1-0.2,0.3-0.6,0.3-0.9
			c0-1.8-0.1-3.2-0.4-4.5c0-0.1,0-0.3,0-0.3c0,0,0.2,0,0.2-0.1C21.5,9,21.2,8.2,21,7.9c-0.1-0.1-0.1-0.2-0.2,0
			c-0.1,0.2-0.2,0.5-0.2,0.9c0.3,1.8,0.3,3.4,0.5,5.1c0,0.2,0,0.4-0.1,0.5C20.5,14.9,19.9,15.5,19.3,15.7"/>
		<path id="XMLID_30_" class="st2" d="M26.6,15.7c-0.4,0.2-0.4,0.5-0.1,0.5c0.5-0.1,1.2-0.1,1.6-0.8c0.1-0.2,0.3-0.7,0.3-1
			c0-1.8,0-3.6-0.3-4.9c0-0.1-0.1-0.4-0.1-0.5c0-0.1,0.2,0,0.3-0.1c0.1-0.1-0.5-0.8-0.6-1.1c-0.1-0.1-0.1-0.2-0.2,0
			c-0.1,0.2-0.2,0.5-0.1,0.9c0.3,1.9,0.5,3.8,0.5,5.5c0,0.2,0,0.3-0.1,0.5c-0.2,0.2-0.4,0.5-0.5,0.6C27.1,15.5,26.7,15.6,26.6,15.7"
			/>
		<path id="XMLID_29_" class="st2" d="M26.9,14c0-0.5,0-0.8,0-1.2c0-0.3-0.2-1.6-0.2-1.9c-0.1-0.3-0.1-0.7-0.2-1
			c0-0.1-0.1-0.5-0.1-0.6c0-0.1,0.2,0,0.2-0.1c0.1-0.1-0.3-1.1-0.5-1.4c-0.1-0.1-0.2-0.1-0.4,0.1c-0.2,0.1-0.1,0.5,0,0.8
			c0.4,2,0.7,4.2,0.6,6.1C26.3,14.9,26.9,14.3,26.9,14"/>
		<path id="XMLID_28_" class="st2" d="M24,11.5c-0.2,0-0.8-0.5-0.9-0.8c-0.1-0.2,0-0.3,0-0.4c0.1-0.1,0.2-0.1,0.3-0.1
			c0,0,0.1,0.1,0.1,0.2c0.1,0.1,0.2,0,0.2,0c0-0.1,0-0.1,0-0.3c0.1-0.3,0.4-0.3,0.5-0.1c0.1,0.1,0.1,0.3,0.1,0.5c0,0.1-0.1,0-0.2,0
			c-0.1,0-0.1,0.1-0.1,0.2C24,10.9,24,11.2,24,11.5"/>
		<path id="XMLID_27_" class="st2" d="M19.5,14.5c0.1-0.6,0-1.9,0-2.2c0-0.9-0.2-2.5-0.2-2.8c-0.1-0.5,0.2,0.1,0.2-0.3
			c-0.1-0.5-0.4-0.9-0.7-1.4c-0.1-0.2-0.1-0.2-0.3,0c-0.2,0.4,0,0.7,0,1.1c0.2,1.1,0.4,2.1,0.5,3.1c0.1,1,0.1,2.2,0,3.2
			C19.1,15.2,19.4,14.9,19.5,14.5"/>
		<path id="XMLID_26_" class="st2" d="M27.7,13.5c-0.4-0.7-1.1-1.6-1.3-1.9c-0.2-0.3-1.6-2.4-1.8-2.6c-0.5-0.6,0.2-0.1-0.1-0.5
			c-0.3-0.3-0.4-0.4-0.6-0.6c-0.1-0.1-0.2-0.2-0.2,0c0,0.2,0,0.5,0,0.7c0,0.1,0.1,0.3,0.2,0.4c1.3,1.6,2.7,3.6,3.9,5.6
			C27.8,14.5,27.8,13.6,27.7,13.5"/>
		<path id="XMLID_68_" class="st2" d="M22.5,22L22.5,22c-0.4,0.1-0.4,0.5-0.1,0.7c-4,0-10.2-0.1-11.5-0.1c-0.7,0-3.1-0.1-3.1-0.1
			c0.5,0.7,1.2,0.9,2.2,0.9c1.8,0,10.1,0,12.4,0c-0.2,0.3,0,0.8,0.1,0.9c0,0,0,0,0,0c0,0,0,0,0,0h0c0.2,0,0.2-0.1,0.3-0.2
			c0.2,0,1.7,0,1.8,0l0,0c0.1,0.1,0.2,0.3,0.3,0.2c0.3-0.1,0.5-0.1,0.5-0.7c0,0,0-1-0.7-0.9c-0.2,0-0.6,0.1-0.6,0.1
			c-0.5-0.1-0.9-0.1-1.5-0.1c0.1-0.1,0.1-0.3,0-0.4c0,0-0.1,0-0.1,0l0,0h0l0,0h0c0,0,0,0,0,0c0,0,0,0,0,0
			C22.5,22.2,22.5,22.1,22.5,22L22.5,22L22.5,22L22.5,22L22.5,22L22.5,22 M22.7,23.5C22.7,23.5,22.7,23.5,22.7,23.5
			c0.6,0,1.1,0,1.7,0c0.1,0.1,0,0.3,0,0.3c0,0,0,0,0,0h0c0,0,0,0,0,0c-0.2,0-0.3,0-0.5,0c0,0,0,0,0,0c0-0.1-0.4-0.1-0.5,0h0l0,0
			c0,0,0,0,0,0c0,0,0,0,0,0c0,0,0,0,0,0c-0.3,0-0.5,0-0.8,0C22.6,23.7,22.7,23.5,22.7,23.5"/>
		<path id="XMLID_23_" class="st2" d="M12.3,8.4c-0.4,1.1,0.2,2.3,0.7,2.2c0.3,0.1,0.5-0.5,0.6-1.1c0.1-0.2,0.2-0.2,0.2-0.1
			c0,0.9,0.1,1.1,0.3,1.3c0.5,0.4,0.9,0.1,0.9,0c0,0,0.4-0.4,0.4-0.4c0.1-0.1,0.2-0.1,0.3,0c0.1,0.1,0.1,0.3,0.3,0.4
			c0.2,0.1,0.7,0,0.8-0.2c0.1-0.2,0.2-0.3,0.2-0.4c0.1-0.1,0.3-0.1,0.3,0c0,0.1-0.1,0.1,0,0.3c0.1,0.1,0.1,0,0.2,0
			c0.2-0.1,0.4-0.7,0.4-0.7c0-0.2-0.1-0.2-0.2-0.1c-0.1,0.1-0.1,0.1-0.2,0.1c-0.1,0-0.4,0.1-0.5-0.1c-0.1-0.2-0.1-0.5-0.2-0.7
			c0,0-0.2-0.3,0-0.4c0.1,0,0.2,0.1,0.3-0.1c0.1-0.1-0.2-0.5-0.3-0.7c-0.1-0.2-0.3-0.2-0.5,0c-0.1,0.1-0.1,0.3-0.1,0.4
			c0,0.2,0,0.3,0.1,0.5c0.1,0.3,0.4,0.6,0.3,1.1c0,0-0.1,0.2-0.4,0.2c-0.1,0-0.3-0.1-0.4-0.7c-0.1-0.5,0-1.2-0.2-1.6
			c-0.1-0.2-0.1-0.4-0.3-0.1c-0.1,0.1-0.3,0.3-0.1,0.8c0.1,0.3,0.2,0.7,0.1,1.2C15.1,9.8,15.1,9.9,15,10c-0.2,0.2-0.3,0.1-0.5,0.1
			c-0.1-0.1-0.2-0.1-0.3-0.4c0-0.4,0-1.2,0-1.3c-0.1-0.2-0.3-0.2-0.4-0.1c-0.4,0.4-0.6,1-0.7,1.5c-0.1,0.4-0.2,0.3-0.3,0.1
			C12.5,9.7,12.5,8.2,12.3,8.4"/>
		<path id="XMLID_63_" class="st2" d="M13.6,10.7C13.6,10.7,13.6,10.7,13.6,10.7L13.6,10.7c0,0-0.1,0.1-0.1,0.1
			c-0.1,0.1-0.1,0.2-0.1,0.5c0,0,0.2,0.6,0.4,1c0.1,0.4,0.2,0.9,0.2,1.4c-0.3,0.6-0.9,1.2-1.4,1.5c-0.3,0.1-0.5,0.1-0.6,0v0
			c-0.2-0.1-0.2-0.3-0.2-0.3l0,0h0c0.5-0.3,1-0.6,1.4-1.5c0.1-0.3,0.2-0.5,0-1.1c0-0.2-0.1-0.3-0.2-0.5c0,0,0,0,0,0
			c0.1,0,0.3,0.1,0.3,0c0-0.3-0.2-0.6-0.4-0.7c-0.2-0.2-0.3-0.2-0.5,0c-0.2,0.1-0.2,0.4-0.1,0.7c0.1,0.2,0.3,0.3,0.5,0.7v0
			c0,0,0.1,0.3,0,0.5c-0.1,0.2-1,0.9-1.1,1l0,0c0,0,0,0,0,0h0h0l0,0h0l0,0h0c0,0,0,0,0,0c0,0,0-0.1,0-0.1c0-0.1,0.1-0.4,0-0.5l0,0h0
			v0h0c-0.3,0.2-0.4,0.8-0.5,1c-0.8,0.5-1.6,0.9-2.1,1.5c-0.3,0.4,1.8-0.5,2-0.6c0,0,0,0,0,0c0,0,0,0.2,0.2,0.4
			c0.2,0.3,0.7,0.5,1.1,0.4c0.7-0.3,1.2-0.8,1.6-1.3c0.1-0.1,0.2-0.2,0.2-0.1c0.3,0.7,1.2,1.1,2.3,1.2c0.3-0.3,0.1-0.5,0-0.5
			c0,0-0.6-0.2-0.6-0.4c0-0.2,0.1-0.4,0.3-0.5c0.7-0.1,1.4-0.2,2.1-0.4c0-0.2,0.1-0.6,0.2-0.7c0.1-0.1,0.1-0.1,0.1-0.1c0,0,0,0,0,0
			l0,0c0,0,0,0,0,0v0c0,0,0,0,0,0L18.7,13l-2.3,0c0,0,0,0-0.1,0h0c0,0,0,0,0,0h0l0,0h0v0l0,0l0,0l0,0v0l0,0l0,0v0l0,0l0,0l0,0
			c0,0,0,0,0,0c0,0,0,0,0.1,0c0.6-0.1,1.5-0.2,1.6-1.2c0-0.5-0.2-0.8-0.8-0.9c-0.4,0-0.8,0.5-0.7,0.9c0,0.1,0,0.4-0.1,0.4
			c-0.8,0.1-1.8,0.6-1.8,1h0l0,0h0h0l0,0c0,0,0,0,0,0h0h0h0l0,0c-0.1,0-0.1-0.1-0.1-0.2c0-0.7-0.2-1.4-0.6-2
			C13.7,10.8,13.7,10.7,13.6,10.7L13.6,10.7L13.6,10.7L13.6,10.7L13.6,10.7L13.6,10.7 M17,11.6c0.1,0,0.1,0,0.2,0
			c0.1,0.1,0.1,0.1,0.1,0.2v0v0h0c0,0,0,0,0,0v0c0,0,0,0,0,0c0,0-0.1,0-0.2,0C16.9,11.8,16.9,11.7,17,11.6L17,11.6
			C16.9,11.6,16.9,11.6,17,11.6C16.9,11.6,16.9,11.6,17,11.6L17,11.6C16.9,11.6,16.9,11.6,17,11.6C16.9,11.6,16.9,11.6,17,11.6
			 M14.8,13.5C14.8,13.5,14.8,13.5,14.8,13.5L14.8,13.5c0.3,0.1,0.7,0.1,1,0.1c0.3,0,0.4,0.2,0.1,0.3c-0.2,0.1-0.5,0.1-0.5,0.5
			c0,0.2,0,0.3,0,0.3c0,0,0,0,0,0c0,0,0,0,0,0h0h0v0h0c0,0,0,0,0,0c0,0,0,0,0,0c-0.1,0-0.1-0.1-0.2-0.1c-0.1-0.1-0.6-0.4-0.6-0.9
			C14.6,13.6,14.7,13.5,14.8,13.5"/>
		<path id="XMLID_19_" class="st2" d="M7.4,8.4c0.3,0.1,0.8,0.1,0.7-0.4c0,0,0-0.2,0-0.2C8.1,7.8,8,7.8,7.9,7.9c0,0,0,0.1,0,0.1
			c0,0-0.1,0-0.1-0.1c0,0,0-0.1,0-0.1c0,0,0,0-0.1,0c0,0,0,0-0.1,0c0,0,0,0.1,0,0.1c0,0,0,0.1-0.1,0.1c0,0,0,0-0.1,0c0,0,0,0,0-0.1
			c0,0,0-0.1,0-0.1c0,0,0,0-0.1,0C7.3,7.8,7.3,8,7.3,8C7.3,8.1,7.3,8.3,7.4,8.4"/>
		<path id="XMLID_18_" class="st2" d="M15.2,11.7c0.3,0.1,0.9,0.1,0.7-0.4c0,0,0-0.2,0-0.2c-0.1-0.1-0.2-0.1-0.2,0c0,0,0,0.1,0,0.1
			c0,0-0.1,0-0.1-0.1c0,0,0-0.1,0-0.1c0,0,0,0-0.1,0c0,0,0,0-0.1,0c0,0,0,0.1,0,0.1c0,0,0,0.1-0.1,0.1c0,0,0,0-0.1,0c0,0,0,0,0-0.1
			s0-0.1,0-0.1c0,0,0,0-0.1,0c-0.1,0-0.2,0.2-0.1,0.2C15,11.3,15,11.6,15.2,11.7"/>
		<path id="XMLID_17_" class="st2" d="M19.7,10.4c0.3,0.1,0.8,0.1,0.7-0.4c0,0,0-0.2,0-0.2c-0.1-0.1-0.2-0.1-0.2,0c0,0,0,0.1,0,0.1
			c0,0-0.1,0-0.1-0.1c0,0,0-0.1,0-0.1c0,0,0,0-0.1,0c0,0,0,0-0.1,0c0,0,0,0.1,0,0.1c0,0,0,0.1-0.1,0.1c0,0,0,0-0.1,0c0,0,0,0,0-0.1
			c0,0,0-0.1,0-0.1c0,0,0,0-0.1,0c-0.1,0-0.2,0.2-0.1,0.2C19.5,10,19.5,10.3,19.7,10.4"/>
		<path id="XMLID_16_" class="st2" d="M22.1,13.8c-0.5,0.5-0.3,1.4-0.2,1.6c0.2,0.3,0.3,0.5,0.6,0.6c0.3,0.2,0.5,0.1,0.6-0.1
			c0.3-0.3,0.3-1,0.4-1.1c0.1-0.3,0.3-0.2,0.4-0.1c0.1,0.1,0.2,0.3,0.4,0.3c0.3,0.2,0.6,0.3,0.9,0.1c0.2-0.1,0.3-0.3,0.5-0.6
			c0.1-0.4,0.1-2.3,0-3.2c0-0.1-0.3-1.3-0.3-1.3c0,0,0-0.6-0.1-0.8c0-0.1,0-0.1,0-0.1c0.1,0.1,0.1,0.1,0.1,0.1
			c0.1,0,0.1-0.1,0.1-0.2c-0.2-0.4-0.4-0.8-0.6-1.2c0-0.1-0.1-0.1-0.2,0c-0.1,0.1-0.2,0.2-0.2,0.3c0,0.3,0.1,0.6,0.1,0.8
			c0.1,0.5,0.2,0.9,0.3,1.4c0.1,1,0.1,1.9,0.2,2.9c0,0.4-0.1,1-0.3,1c0,0-0.2,0.1-0.3,0c-0.1,0-0.5-0.6-0.5-0.6
			c-0.2-0.2-0.3-0.1-0.5,0c-0.4,0.4-0.5,1-0.8,1.5c-0.1,0.1-0.3,0.2-0.5,0C21.8,14.5,22.1,13.5,22.1,13.8"/>
		<path id="XMLID_15_" class="st2" d="M19.8,7.9c0.2,0.1,0.4,0.6,0.3,0.8c0,0.3-0.2,0.6-0.3,0.6c-0.1,0,0.1-0.3,0-0.6
			c-0.1-0.2-0.4-0.5-0.3-0.6C19.5,7.9,19.7,7.8,19.8,7.9"/>
		<path id="XMLID_14_" class="st2" d="M22.8,14.1c0-0.6,0-0.9,0-1.3c0-0.3-0.4-3.1-0.5-3.3c-0.1-0.5,0.4-0.1,0.3-0.3
			c-0.2-0.4-0.5-0.9-0.7-1.2c-0.1-0.1,0-0.3-0.2,0c-0.1,0.5-0.2,0.9-0.1,1.2c0.4,2,0.8,3.9,0.7,5.8C22.5,14.9,22.7,14.5,22.8,14.1"
			/>
		<path id="XMLID_13_" class="st2" d="M26.9,8.6c0.2,0.1,0.3,0.7,0.3,0.9c0,0.3-0.2,0.7-0.2,0.6c-0.1,0,0-0.5,0-0.6
			c-0.1-0.2-0.3-0.5-0.3-0.6C26.6,8.6,26.7,8.5,26.9,8.6"/>
		<path id="XMLID_12_" class="st2" d="M10.8,13c0.2,0.1,0.3,0.5,0.3,0.6c0,0.2-0.2,0.5-0.2,0.4c-0.1,0,0-0.3,0-0.4
			c0-0.2-0.3-0.4-0.3-0.5C10.5,13,10.7,12.9,10.8,13"/>
		<path id="XMLID_11_" class="st2" d="M5.3,7.7c0.3,0.1,0.3,0.5,0.3,0.7c0,0.2-0.2,0.5-0.2,0.5c-0.1,0,0-0.4,0-0.5
			C5.3,8.3,5,8,5.1,7.9C5,7.8,5.2,7.7,5.3,7.7"/>
		<path id="XMLID_10_" class="st2" d="M11.3,9.9c-0.2,0.1-0.3,0.5-0.2,0.7c0.1,0.2,0.4,0.1,0.4,0.1c0.2,0,0.4-0.4,0.4-0.4
			s0-0.1-0.3,0.1c-0.1,0-0.1,0-0.2-0.1c0-0.1,0-0.2,0-0.4C11.5,9.8,11.5,9.8,11.3,9.9"/>
		<path id="XMLID_9_" class="st2" d="M13.1,7.6c-0.1,0.1-0.4,0.3-0.4,0.6c0,0.2,0,0.2,0.1,0.3c0.1,0.1,0.2,0.1,0.3,0
			c0.1-0.1,0.1-0.1,0.1-0.2C13.3,8,13,8.3,13,8.1c0-0.2,0.1-0.3,0.2-0.4C13.2,7.5,13.2,7.5,13.1,7.6"/>
		<path id="XMLID_8_" class="st2" d="M14.5,7.8c-0.1,0.1-0.1,0.7-0.1,0.7c0,0.2,0.2,0.3,0.3,0c0.2-0.4,0.2-0.6,0.2-0.8
			C14.8,7.5,14.6,7.5,14.5,7.8"/>
		<path id="XMLID_7_" class="st2" d="M23.4,12.3c0,0,1.3-0.9,1.3-0.9c0.1,0,0.1,0.4,0,0.4c0,0.1-1.2,0.9-1.3,0.9
			C23.3,12.8,23.3,12.5,23.4,12.3"/>
		<path id="XMLID_6_" class="st2" d="M24.5,12.3c0.2,0.1,0.3,0.7,0.3,0.9c0,0.3-0.2,0.6-0.3,0.6c-0.1,0,0-0.4,0-0.6
			c-0.1-0.2-0.2-0.5-0.2-0.6C24.2,12.4,24.4,12.3,24.5,12.3"/>
		<path id="XMLID_5_" class="st2" d="M17.2,15.1c0.1-0.1,0.3-0.3,0.3-0.3c0.1-0.1,0.2,0,0.2,0c0,0.1-0.1,0.2,0,0.4
			c0,0.1,0,0.1,0.2,0.1c0.2-0.2,0.4-0.2,0.6-0.2c0.2,0,0.2,0.3,0.1,0.3c-0.4,0.1-0.5,0.2-0.8,0.3c-0.1,0.1-0.2,0-0.2,0
			c0,0-0.1-0.1,0-0.2c0-0.1,0-0.2-0.2-0.2c-0.1,0.1-0.2,0.1-0.2,0C17.2,15.1,17.2,15.1,17.2,15.1"/>
		<path id="XMLID_4_" class="st2" d="M25.8,15.4c0.1,0.1,0.1,0.1,0,0.2c-0.1,0.1-0.1,0.1-0.2,0.2c0,0.1-0.1,0.2,0.1,0.2
			c0.2,0.1,0.8-0.3,0.8-0.3c0.1-0.1,0.1-0.2,0-0.2c0-0.1-0.2,0-0.2,0c0,0-0.2,0-0.1-0.1c0-0.1,0.1-0.1,0.1-0.2c0-0.1,0-0.1-0.1-0.2
			c-0.1,0-0.2,0-0.3,0c-0.1,0-0.1,0.1-0.1,0.1C25.6,15.3,25.7,15.3,25.8,15.4"/>
	</g>
</g>
</svg>
